<svg xmlns="http://www.w3.org/2000/svg" viewbox="0 0 24 24" width="24" height="24"
    fill="white">
    <path
        d="M5.11 6.542c.462.957 1.03 2.146 1.264 2.647 1.065 2.305 1.469 2.858 3.432 4.69.792.74 1.116 1.19 1.35 1.856.142.416.153.524.153 1.28 0 .752-.017.866-.159 1.281-.086.251-.194.513-.24.581l-.079.13h3.53v-1.445c0-.796-.03-1.644-.064-1.89-.13-.944-.557-2.02-1.08-2.737-.303-.41-.82-.928-1.56-1.56-1.128-.967-1.663-1.69-2.414-3.25-.245-.512-.877-1.799-1.395-2.863-.523-1.064-1.314-2.67-1.753-3.575L5.29.05 3.648.054C2.748.056 1.998.044 2 .05c1.023 2.174 2.065 4.328 3.11 6.492" />
    <path
        d="M12.29.05s-.195.08-.688.789c-.571.826-.985 1.851-1.12 2.797-.086.572-.09 1.513.006 2.05.272 1.547 1.224 3.047 2.497 3.948.516.368 1.054.634 2.067 1.03 1.331.527 2.01 1.02 2.571 1.869.538.815.77 1.58.77 2.56 0 2.196-1.223 4.19-3.205 5.215-1.71.883-3.93.928-5.651.113-1.597-.76-2.69-1.954-3.392-3.71l-.096-.237H4.492c-1.336 0-1.557.011-1.557.085 0 .164.577 1.71.85 2.276a9.191 9.191 0 0 0 6.964 5.085c.702.097 2.027.108 2.746.023.691-.085 1.874-.39 2.486-.651.566-.238 1.676-.884 2.1-1.23.488-.39 1.23-1.188 1.626-1.743.459-.634 1.059-1.812 1.285-2.514.329-1.003.49-2.157.43-3.058-.132-2.004-.973-3.902-2.281-5.136-.86-.81-1.58-1.246-2.786-1.687-.912-.334-1.36-.582-1.83-1.02-.703-.655-1.04-1.387-1.098-2.378a2.8 2.8 0 0 1 .073-.862c.092-.447.528-1.42.832-1.857.572-.824 1.4-1.347 2.289-1.748z" />
    <path
        d="M18.014.643a164.843 164.843 0 0 0-1.012 1.834 81.81 81.81 0 0 1-.843 1.528c-.105.19-.332.595-.495.906l-.306.57h1.528c1.244 0 1.54-.017 1.587-.074a5.16 5.16 0 0 0 .29-.49 56.394 56.394 0 0 1 .368-.675c.611-1.09.97-1.739 1.323-2.398.226-.421.548-.995.717-1.275.173-.284.31-.527.31-.542 0-.016-.695-.027-1.549-.027h-1.554z" />
</svg>