<svg xmlns="http://www.w3.org/2000/svg"
   viewBox="0 0 24 24"
   fill="currentColor"
   aria-hidden="true">
   <path
      d="M12 2.25c-5.376 0-9.75 4.374-9.75 9.75s4.374 9.75 9.75 9.75 9.75-4.374 9.75-9.75S17.376 2.25 12 2.25zm0 1.5A8.239 8.239 0 0 1 20.25 12 8.239 8.239 0 0 1 12 20.25 8.239 8.239 0 0 1 3.75 12 8.239 8.239 0 0 1 12 3.75Zm.75 4.5a.75.75 0 0 0-.531.219.75.75 0 0 0 0 1.062l1.719 1.719H8.25a.75.75 0 0 0-.75.75.75.75 0 0 0 .75.75h5.688l-1.72 1.719a.75.75 0 0 0 0 1.062.75.75 0 0 0 1.063 0l3-3A.75.75 0 0 0 16.5 12a.75.75 0 0 0-.219-.531l-3-3a.75.75 0 0 0-.531-.219Z"
      style="baseline-shift:baseline;display:inline;overflow:visible;vector-effect:none;stroke-linecap:round;stroke-linejoin:round;enable-background:accumulate;stop-color:#000;stop-opacity:1;opacity:1" />
</svg>