<?xml version="1.0" encoding="UTF-8" standalone="no"?>
<!-- Created with Inkscape (http://www.inkscape.org/) -->

<svg
   version="1.1"
   id="svg1"
   width="416"
   height="320.32001"
   viewBox="0 0 416 320.32001"
   sodipodi:docname="design-pro.svg"
   inkscape:version="1.3.2 (091e20e, 2023-11-25)"
   xmlns:inkscape="http://www.inkscape.org/namespaces/inkscape"
   xmlns:sodipodi="http://sodipodi.sourceforge.net/DTD/sodipodi-0.dtd"
   xmlns:xlink="http://www.w3.org/1999/xlink"
   xmlns="http://www.w3.org/2000/svg"
   xmlns:svg="http://www.w3.org/2000/svg">
  <defs
     id="defs1">
    <linearGradient
       id="linearGradient1"
       inkscape:collect="always">
      <stop
         style="stop-color:#8a150f;stop-opacity:0.89999998;"
         offset="0"
         id="stop2" />
      <stop
         style="stop-color:#002d5b;stop-opacity:1;"
         offset="1"
         id="stop1" />
    </linearGradient>
    <linearGradient
       inkscape:collect="always"
       xlink:href="#linearGradient1"
       id="linearGradient2"
       x1="34.384346"
       y1="183.03998"
       x2="376.28965"
       y2="183.03998"
       gradientUnits="userSpaceOnUse" />
  </defs>
  <sodipodi:namedview
     id="namedview1"
     pagecolor="#505050"
     bordercolor="#eeeeee"
     borderopacity="1"
     inkscape:showpageshadow="0"
     inkscape:pageopacity="0"
     inkscape:pagecheckerboard="0"
     inkscape:deskcolor="#505050"
     inkscape:zoom="0.73676322"
     inkscape:cx="207.66509"
     inkscape:cy="159.48136"
     inkscape:window-width="1464"
     inkscape:window-height="688"
     inkscape:window-x="0"
     inkscape:window-y="37"
     inkscape:window-maximized="0"
     inkscape:current-layer="g1" />
  <g
     inkscape:groupmode="layer"
     inkscape:label="Image"
     id="g1">
    <path
       style="fill:url(#linearGradient2)"
       d="m 45.71525,314.40001 v -5.92 h 6.08 6.08 v -39.04 -39.04 h 45.45004 c 36.07868,0 45.47634,-0.0825 45.57758,-0.4 3.86606,-12.12523 4.47964,-13.57533 7.18429,-16.97884 4.17463,-5.25333 10.40798,-8.41895 17.78809,-9.03371 1.408,-0.11729 2.87567,-0.41231 3.2615,-0.65561 0.38582,-0.24329 3.04982,-0.82421 5.92,-1.29092 2.87017,-0.46671 5.53327,-1.04212 5.91798,-1.27868 1.41595,-0.87067 1.17945,-5.61504 -0.46938,-9.41611 -0.58388,-1.34603 -0.80014,-1.52035 -2.91604,-2.3505 -6.85763,-2.6905 -12.46013,-8.66079 -14.92339,-15.90308 -0.91906,-2.70214 -1.52016,-6.78577 -1.37591,-9.34742 l 0.10524,-1.86901 -1.62209,-0.54928 c -1.98226,-0.67125 -3.22342,-1.611 -4.37032,-3.30897 -1.05764,-1.56581 -1.3221,-2.83046 -1.15166,-5.5072 0.0978,-1.5367 0.34386,-2.35976 1.00303,-3.35584 1.04514,-1.57931 3.07792,-3.11777 4.69479,-3.55315 1.07372,-0.28913 1.20683,-0.4538 1.54258,-1.90837 2.01569,-8.73245 8.98068,-17.06596 17.58662,-21.04216 2.60314,-1.20272 7.82511,-2.65116 9.55808,-2.65116 1.05762,0 1.07897,-0.0272 1.07897,-1.37277 0,-4.80056 2.88589,-9.32399 7.35315,-11.52554 1.87622,-0.92463 2.34739,-1.02059 4.96,-1.0101 3.96672,0.0159 6.0528,0.85406 8.66252,3.48041 1.06463,1.0714 2.26441,2.65551 2.6662,3.52024 1.66763,3.58911 1.51334,7.76761 -0.41543,11.25089 l -1.04643,1.88983 2.74999,2.73784 c 6.17709,6.14976 9.19371,12.87629 9.53853,21.2692 0.19779,4.81404 -0.17561,7.74768 -1.48402,11.65952 l -0.90655,2.71035 0.65131,1.24956 c 0.84612,1.62331 1.05985,3.99912 0.53104,5.9029 -0.30926,1.11337 -0.89558,1.98986 -2.20094,3.29019 -2.11151,2.10337 -3.57933,2.64013 -6.86446,2.51026 -2.17212,-0.0859 -2.35805,-0.0344 -4.11491,1.13895 -1.012,0.67589 -1.84,1.33774 -1.84,1.47079 0,0.13304 -1.07712,1.34377 -2.39361,2.69051 l -2.39361,2.4486 3.22944,6.46419 c 1.7762,3.5553 3.27697,6.51583 3.33505,6.57895 0.0581,0.0631 1.65738,-0.0364 3.55399,-0.22123 1.89661,-0.1848 3.59697,-0.21545 3.77856,-0.0681 0.1816,0.14734 1.41018,0.43056 2.73018,0.62938 1.32,0.19881 3.1834,0.58581 4.14089,0.85998 4.26616,1.2216 9.60865,4.87252 12.19893,8.33645 0.7811,1.04454 5.95618,10.05912 11.50018,20.03239 5.90983,10.63139 10.23569,18.07974 10.45633,18.00393 0.20698,-0.0711 6.16018,-4.49173 13.22934,-9.82359 11.54128,-8.70492 12.89408,-9.63811 13.25545,-9.14391 0.36417,0.49803 0.97762,0.16122 6.45066,-3.5417 5.97892,-4.04519 6.1023,-4.10947 10.76822,-5.61002 l 4.72,-1.51795 v -0.98742 c 0,-1.27291 1.09036,-3.02846 2.255,-3.63072 0.6425,-0.33225 1.95539,-0.47225 4.42883,-0.47225 h 3.51562 l 0.10028,-1.04 0.10027,-1.04 13.31793,-0.0835 c 10.98027,-0.0688 13.38198,-0.006 13.68281,0.35617 0.27482,0.33114 0.0996,4.7431 -0.71015,17.87672 -0.59126,9.59038 -1.17702,17.60211 -1.30169,17.80383 -0.16347,0.26449 -3.38291,0.36676 -11.54622,0.36676 -10.50422,0 -11.33146,-0.0403 -11.48484,-0.56 -0.0909,-0.308 -0.31889,-3.152 -0.50661,-6.32 -0.18773,-3.168 -0.42141,-6.516 -0.5193,-7.44 l -0.17798,-1.68 h -1.73698 c -1.58144,0 -1.73894,0.0645 -1.75902,0.72 -0.0729,2.37975 -0.93343,6.55788 -1.43674,6.97559 -0.31782,0.26377 -0.89868,0.2524 -2.22068,-0.0435 -1.68598,-0.3773 -2.111,-0.32812 -7.29541,0.84427 l -5.50512,1.24493 -2.04694,1.96048 -2.04695,1.96049 0.59578,1.00858 c 0.5221,0.88383 0.5378,1.06342 0.12695,1.45204 -1.22327,1.15706 -34.88752,24.69218 -36.14884,25.27212 -1.09371,0.50288 -2.09411,0.66318 -4.16,0.66659 -4.73804,0.008 -4.8703,-0.0874 -17.17616,-12.36739 l -10.61616,-10.59384 -0.18769,1.08979 c -0.51548,2.99294 -0.86092,7.47348 -1.03387,13.4098 -0.35619,12.22593 1.03311,21.97747 4.33393,30.41986 1.90832,4.88088 4.0909,8.24296 7.72474,11.89935 l 3.09998,3.11921 63.96761,0.0808 63.96762,0.0808 0.0872,5.84 0.0872,5.84 H 211.00247 45.71525 Z m 101.44,-44.48 v -6.24 h -23.84 -23.840001 v 6.24 6.24 h 23.840001 23.84 z m 200.77264,-27.76 c 0.18538,-1.19276 1.79472,-27.9448 1.79029,-29.76001 l -0.003,-1.2 h -11.35993 c -6.248,0 -11.36,0.11685 -11.36,0.25966 0,0.1428 0.43153,7.1628 0.95895,15.6 0.52742,8.43719 0.95942,15.52035 0.96,15.74035 8.2e-4,0.31092 2.10004,0.4 9.42655,0.4 h 9.4255 z m -39.97264,-5.95656 c 2.112,-0.51538 3.53363,-0.95199 3.15918,-0.97025 -1.18606,-0.0578 -1.47917,-0.79451 -1.34818,-3.38842 l 0.12144,-2.40477 h -0.88622 c -0.79064,0 -0.88622,-0.11478 -0.88622,-1.06421 0,-0.93679 0.38023,-1.41592 3.17552,-4.00156 1.74653,-1.61554 4.23053,-3.64382 5.52,-4.50728 2.3364,-1.56453 4.46018,-3.51372 3.42565,-3.14404 -0.28535,0.10197 -3.66935,1.30283 -7.52,2.66857 l -7.00117,2.48317 -5.44,3.67103 c -2.992,2.01907 -5.5586,3.77507 -5.70355,3.90223 -0.22312,0.19572 1.95522,4.36646 5.14838,9.85734 l 0.80558,1.38525 1.79479,-1.77501 c 1.77059,-1.75106 1.8466,-1.78764 5.6348,-2.71205 z m 11.36,-2.59735 c 0,-1.0736 0.0461,-1.05464 -3.94305,-1.62131 -2.65149,-0.37666 -3.41695,-0.27913 -3.41695,0.43535 0,0.28287 1.05797,0.73293 2.96,1.25917 4.05257,1.12123 4.4,1.11545 4.4,-0.0732 z m 0.64,-5.0826 c 0,-0.84774 -0.1114,-0.93177 -1.48466,-1.12 -0.81657,-0.11192 -2.38377,-0.20349 -3.48268,-0.20349 -1.72889,0 -2.02056,0.0862 -2.16538,0.64 -0.0921,0.352 -0.14484,0.65237 -0.11732,0.66751 0.12534,0.0689 5.88916,0.85648 6.53004,0.89227 0.58843,0.0329 0.72,-0.12726 0.72,-0.87629 z m 5.76,-1.64349 c 0,-0.176 -0.792,-0.32 -1.76,-0.32 -0.968,0 -1.76,0.144 -1.76,0.32 0,0.176 0.792,0.32 1.76,0.32 0.968,0 1.76,-0.144 1.76,-0.32 z m -8.54728,-2.56 c -0.0921,-0.352 -0.22257,-0.64 -0.29004,-0.64 -0.0675,0 -0.12268,0.288 -0.12268,0.64 0,0.352 0.13052,0.64 0.29004,0.64 0.15952,0 0.21473,-0.288 0.12268,-0.64 z m 8.1152,-2.92916 c -0.11436,-1.61104 -0.20792,-3.41104 -0.20792,-4 0,-0.82367 -0.13493,-1.07085 -0.58458,-1.07085 -0.46475,0 -0.5563,0.1927 -0.44661,0.94005 0.0759,0.51703 -0.0662,1.34941 -0.31584,1.84974 -0.30985,0.62112 -0.36987,1.21112 -0.18918,1.85995 0.25155,0.9033 0.17912,1.70492 -0.25666,2.84054 -0.15755,0.41056 0.0383,0.50973 1.00655,0.50973 h 1.20216 z m -4.04792,0.63956 c 0,-0.46142 -0.24469,-0.5904 -1.12,-0.5904 -1.268,0 -1.49894,0.65088 -0.58806,1.65739 0.49707,0.54926 0.57049,0.5529 1.12,0.0556 0.32343,-0.2927 0.58806,-0.79787 0.58806,-1.12259 z m -2.863,-7.6598 c 0.44934,-0.31045 1.38534,-0.62264 2.08,-0.69374 1.21897,-0.12477 1.20928,-0.13115 -0.27804,-0.18307 -1.73622,-0.0606 -2.59815,0.29044 -3.12355,1.27216 -0.39367,0.73558 -0.25548,0.69424 1.32159,-0.39535 z m -109.297,-2.0196 c 3.52184,-0.949 7.10785,-2.95637 9.41909,-5.27257 1.93982,-1.944 4.59371,-6.1323 4.16031,-6.56571 -0.0919,-0.0919 -1.42972,-0.0367 -2.97301,0.12249 -1.5433,0.15923 -3.02001,0.20737 -3.28159,0.107 -0.26158,-0.10038 -1.83812,-2.9979 -3.50344,-6.43893 -1.66531,-3.44104 -3.08552,-6.31411 -3.15601,-6.38461 -0.0705,-0.0705 -4.01452,1.93497 -8.7645,4.45658 l -8.63632,4.58474 -0.22487,1.75666 c -0.27583,2.15479 -1.2275,4.10237 -2.17274,4.44648 -0.38881,0.14155 -2.29092,0.50113 -4.22692,0.79908 -5.4037,0.83162 -5.14486,0.74229 -4.43592,1.53085 0.97554,1.0851 4.27925,3.31439 6.67592,4.50481 4.84351,2.40576 8.50091,3.14783 14.72,2.98663 2.76445,-0.0717 5.21523,-0.31425 6.4,-0.6335 z m -8.32,-24.68178 c 6.31605,-1.70167 12.03785,-6.27273 15.00154,-11.98448 0.59494,-1.14661 2.62604,-6.11332 4.51355,-11.03714 2.94298,-7.67719 3.40977,-9.14804 3.27701,-10.32586 -0.18841,-1.67165 -1.41943,-3.61452 -2.85056,-4.49895 -1.99423,-1.23242 -34.40657,-13.5028 -35.66781,-13.5028 -1.44546,0 -3.53336,0.96482 -4.67256,2.15919 -0.91949,0.96402 -7.61411,17.94923 -8.41822,21.35823 -0.66676,2.82672 -0.58843,7.56248 0.17518,10.5914 1.06754,4.23448 2.83436,7.39168 5.84995,10.45351 3.75728,3.81489 7.87571,6.12946 12.71128,7.14377 2.55343,0.53561 7.40561,0.36384 10.08064,-0.35687 z m -12.73826,-8.35298 c -0.43048,-0.12671 -0.55315,-0.4291 -0.48,-1.18323 0.0954,-0.98392 0.13962,-1.01116 1.53826,-0.94823 3.10115,0.13952 5.97079,-1.11007 7.15571,-3.11598 0.45472,-0.76978 0.7687,-0.96415 1.43328,-0.88726 0.68815,0.0796 0.8693,0.28547 0.9466,1.07569 0.12652,1.29335 -1.94428,3.69134 -3.85036,4.45873 -1.35526,0.54564 -5.63492,0.9266 -6.74349,0.60028 z m -0.38174,-10.90235 c -3.45366,-2.25338 -3.51638,-2.66943 -0.70486,-4.67569 2.34356,-1.67233 5.54739,-5.00203 6.45862,-6.71236 0.66826,-1.25428 1.33243,-1.65223 2.20116,-1.31887 1.47294,0.56522 -0.45473,4.13998 -4.15034,7.69655 l -2.7053,2.60352 1.41045,0.82658 c 1.27326,0.74618 1.79315,1.51955 1.8059,2.68637 0.01,0.88516 -2.08753,0.34764 -4.31563,-1.1061 z m 13.5996,-4.09438 c -0.25729,-0.31002 -0.34679,-1.10726 -0.25227,-2.24708 0.1841,-2.21999 1.37901,-3.67244 3.02128,-3.67244 1.17866,0 1.71579,0.6741 1.70436,2.13897 -0.01,1.24303 -1.08318,3.49694 -1.86473,3.91522 -0.9178,0.49119 -2.14166,0.42801 -2.60864,-0.13467 z m 6.8608,-5.55103 c -2.3125,-1.42966 -4.34362,-4.93327 -3.4044,-5.87249 1.4777,-1.47769 6.75402,3.14396 6.40304,5.60857 -0.13308,0.93448 -1.69205,1.07169 -2.99864,0.26392 z m -22.98616,-0.55466 c -0.40338,-1.05117 -0.17624,-3.19943 0.44622,-4.22035 1.28598,-2.10919 3.64489,-2.23646 4.02373,-0.21709 0.26009,1.3864 -0.57492,3.77273 -1.56206,4.46415 -0.91551,0.64124 -2.65772,0.62524 -2.90789,-0.0267 z m 0.20773,-8.10619 c -2.10261,-0.5388 -2.64585,-2.00637 -1.04197,-2.81491 1.18834,-0.59906 6.07712,-0.53914 6.9688,0.0854 0.99327,0.69572 0.9232,1.86253 -0.14098,2.3474 -1.10205,0.50213 -4.45364,0.72346 -5.78585,0.38209 z m 39.76077,24.65557 c 2.59878,-1.1806 4.35236,-4.18343 3.76553,-6.44808 l -0.28852,-1.11344 -0.93443,1.59916 c -0.51393,0.87953 -1.83391,2.71515 -2.93327,4.07915 -2.13264,2.646 -2.05992,2.9965 0.39069,1.88321 z M 168.75075,158.48 c -0.12814,-0.308 -0.30682,-2.756 -0.39708,-5.44 -0.0902,-2.684 -0.26518,-4.88 -0.38874,-4.88 -0.61991,0 -3.20827,2.41556 -3.50719,3.27304 -0.50198,1.43997 -0.41796,3.13509 0.21801,4.39831 0.9299,1.84708 4.78359,4.35189 4.075,2.64865 z M 58.61313,213.28465 c -6.27797,-1.1388 -11.68715,-3.8296 -16.05442,-7.9863 -3.62298,-3.4483 -5.80424,-7.01558 -7.28863,-11.91996 -0.73865,-2.44049 -0.85717,-3.41908 -0.88393,-7.29839 -0.0358,-5.19527 0.4507,-7.79442 2.39852,-12.81349 4.6241,-11.91518 15.3852,-22.79606 29.25058,-29.57616 9.9648,-4.87274 18.16909,-6.85004 28.479999,-6.86392 8.460151,-0.0114 13.911801,1.08966 19.734771,3.98575 1.65109,0.82118 2.50614,1.09762 2.61168,0.84436 3.73212,-8.95586 3.76768,-9.10727 2.42477,-10.32258 -1.31513,-1.19018 -0.3889,-3.51487 1.30158,-3.26675 0.8186,0.12014 0.92298,-0.0529 2.86054,-4.74218 2.12213,-5.13598 2.81818,-6.11993 4.96309,-7.01592 3.37704,-1.41069 7.54357,1.59644 7.54357,5.44446 0,0.65476 -0.83151,3.16519 -1.96725,5.93936 l -1.96725,4.80524 0.72639,0.7732 c 0.53772,0.57238 0.67237,0.98841 0.51842,1.6018 -0.21637,0.86209 -0.7878,1.19244 -2.85991,1.65334 l -1.2296,0.27349 -2.39069,5.79902 -2.3907,5.79901 1.57481,2.41237 c 3.95397,6.05688 4.8947,12.37757 2.77983,18.67763 -1.1502,3.4264 -2.73922,5.92724 -5.50756,8.66796 -1.83987,1.82152 -2.96993,2.61887 -5.29291,3.73461 -1.62447,0.78025 -3.74558,1.57097 -4.71358,1.75718 -0.968,0.1862 -2.912,0.55397 -4.32,0.81726 -5.38101,1.00625 -10.785761,4.77815 -13.090491,9.13569 -4.695859,8.87839 -11.592889,15.07653 -20.293059,18.23672 -5.07271,1.84258 -11.64138,2.40446 -16.91857,1.4472 z m 13.38017,-2.8352 c 9.13487,-2.34838 16.36989,-8.08749 21.398819,-16.97439 2.12961,-3.76336 4.23762,-6.17381 6.975011,-7.97572 2.88673,-1.90021 5.75139,-2.98289 9.47984,-3.58286 5.68484,-0.91478 9.00872,-2.50561 12.39491,-5.93228 3.73908,-3.7838 6.03404,-9.73017 5.5458,-14.3695 -0.35699,-3.39209 -1.98757,-7.53826 -3.88721,-9.88422 l -0.58752,-0.72556 -0.90737,2.0828 c -0.78887,1.8108 -1.0942,2.17324 -2.33803,2.77537 -3.31141,1.60303 -6.8323,-0.63219 -6.8323,-4.33744 0,-0.91215 0.8785,-3.46072 2.43802,-7.07276 0.18187,-0.42124 -4.63145,-2.68992 -7.70326,-3.63079 -15.59388,-4.7763 -36.09147,-0.0603 -52.22493,12.01573 -2.48192,1.85773 -5.84449,4.91025 -8.7114,7.90815 -4.03584,4.22025 -8.33759,11.93876 -9.8391,17.65402 -1.06826,4.0662 -1.20629,9.9834 -0.30977,13.28 1.13336,4.16748 3.58615,8.66054 5.91309,10.83167 8.27515,7.72106 18.8522,10.5968 29.1954,7.93778 z M 64.90438,204.4 c -2.12264,-1.07136 -2.92018,-2.65342 -2.79773,-5.54973 0.0806,-1.90594 0.23907,-2.45736 0.98883,-3.44034 1.20639,-1.58166 2.39276,-2.12993 4.60887,-2.12993 2.49495,0 3.85348,0.75269 4.96343,2.74996 1.14355,2.05774 1.16447,3.92853 0.0685,6.12785 -0.63074,1.26573 -1.13204,1.79503 -2.18103,2.30283 -1.79215,0.86757 -3.85576,0.84543 -5.65087,-0.0606 z M 46.6476,192.65417 c -2.37904,-0.72096 -3.81235,-2.87355 -3.81235,-5.72548 0,-2.90493 1.42145,-4.99631 3.944,-5.80282 3.94589,-1.26158 7.79252,1.87872 7.50288,6.1252 -0.27634,4.05141 -3.81977,6.55917 -7.63453,5.4031 z m 6.1386,-22.44049 c -1.46617,-0.89384 -2.15075,-1.78951 -2.61013,-3.415 -0.77492,-2.74196 0.24874,-5.70363 2.40894,-6.96959 1.65157,-0.96788 4.25305,-1.06829 5.92287,-0.22859 1.68763,0.84865 2.9788,3.17175 2.9788,5.3595 0,2.18776 -1.29117,4.51086 -2.9788,5.35951 -1.57129,0.79015 -4.33587,0.73901 -5.72168,-0.10583 z m 57.64441,-1.10253 c -2.36598,-1.19801 -3.43979,-3.05209 -3.42352,-5.91115 0.025,-4.39948 3.01625,-7.11375 7.28273,-6.60845 4.81222,0.56994 7.15621,5.98999 4.47634,10.35071 -1.72837,2.81241 -5.25329,3.72959 -8.33555,2.16889 z m 5.09941,-2.26686 c 0.95555,-0.48587 1.99463,-1.82882 2.26862,-2.93203 0.47756,-1.92286 -1.47176,-4.55793 -3.70167,-5.00391 -1.46231,-0.29246 -4.17693,1.10469 -4.7271,2.43293 -0.92759,2.2394 -0.0853,4.64873 1.92029,5.49317 2.16308,0.91073 2.46674,0.91144 4.23986,0.01 z M 73.86564,156.72 c -4.08665,-2.06451 -4.26827,-8.30116 -0.3093,-10.62106 1.46714,-0.85973 4.54416,-0.89508 5.92383,-0.0681 2.04181,1.22393 3.31941,4.36483 2.70443,6.64867 -1.09632,4.07143 -4.74742,5.84474 -8.31896,4.04045 z m 23.787649,-2.49792 c -2.24935,-0.68457 -3.95605,-3.25278 -3.92221,-5.90208 0.0161,-1.25701 0.73183,-3.232 1.47374,-4.06637 0.85982,-0.96698 2.9566,-1.83852 4.44263,-1.8466 4.585631,-0.0249 7.337281,5.32053 4.801821,9.32822 -0.51442,0.81313 -1.31141,1.70058 -1.7711,1.97213 -1.08398,0.64032 -3.723691,0.91071 -5.024881,0.5147 z M 119.58324,153.36 c 0.577,-0.4904 7.4137,-16.35698 7.41097,-17.19933 -10e-4,-0.34247 -4.40373,-2.26257 -4.64186,-2.02444 -0.0778,0.0778 -1.73178,3.98485 -3.67547,8.6823 -2.6318,6.36043 -3.48212,8.74746 -3.33082,9.3503 0.38724,1.54288 2.9693,2.26876 4.23718,1.19117 z m 12.47232,-26.62289 c 1.08883,-2.6306 1.97969,-4.87684 1.97969,-4.99164 0,-0.11481 -0.23542,-0.70485 -0.52315,-1.3112 -0.95674,-2.01617 -3.33304,-2.61216 -5.24019,-1.31427 -0.86994,0.59203 -1.38864,1.51309 -2.91843,5.18223 -1.02324,2.45422 -1.81805,4.50462 -1.76624,4.55643 0.13634,0.13634 6.09382,2.64082 6.30832,2.65197 0.0992,0.005 1.07117,-2.14293 2.16,-4.77352 z m 144.21969,59.36354 c -2.71551,-0.63552 -4.46551,-1.30799 -6.79718,-2.61192 -2.20122,-1.231 -5.72427,-4.34324 -7.17757,-6.34062 -0.50098,-0.68854 -1.23361,-1.41264 -1.62806,-1.6091 -0.42229,-0.21033 -0.73811,-0.68242 -0.76806,-1.14811 -0.028,-0.43499 -0.49061,-1.96836 -1.02809,-3.40747 -4.91043,-13.14801 2.739,-27.57125 16.61747,-31.33277 2.79678,-0.75802 8.6678,-0.75987 11.50149,-0.004 6.73177,1.79653 12.78248,6.76176 15.70673,12.88898 2.76825,5.80034 2.99101,13.60812 0.55379,19.41031 -1.70107,4.04967 -6.06282,9.01946 -9.97942,11.37057 -0.98666,0.59229 -3.05554,1.51387 -4.59751,2.04796 -2.39122,0.82825 -3.3684,0.98683 -6.64359,1.07811 -2.53115,0.0705 -4.49443,-0.0461 -5.76,-0.34231 z m 33.14165,-3.66019 c -0.18791,-0.35111 -0.34165,-1.84953 -0.34165,-3.32982 0,-2.27655 0.0977,-2.77989 0.634,-3.2652 0.85517,-0.77393 1.606,-0.15973 1.606,1.31375 V 178.24 h 8.9416 8.9416 l 0.0984,-1.36 0.0984,-1.36 h 1.76 1.76 l 0.0984,1.36 0.0984,1.36 h 14.8616 14.8616 v -1.10874 c 0,-1.30308 0.9837,-2.09552 1.78046,-1.43428 0.69258,0.57479 0.65306,6.46405 -0.0473,7.04529 -0.72839,0.6045 -1.54974,-0.0112 -1.67345,-1.25454 L 362.7947,180.48 h -14.84041 -14.84041 l -0.0993,1.2 -0.0993,1.2 h -1.76 -1.76 l -0.0993,-1.2 -0.0993,-1.2 h -8.92143 -8.92137 l -0.0993,1.2 c -0.0788,0.95174 -0.2438,1.22057 -0.79767,1.29942 -0.44083,0.0628 -0.82433,-0.13598 -1.04,-0.53896 z m 33.65668,-15.77012 c -0.21908,-0.21909 -0.39833,-0.87354 -0.39833,-1.45434 V 164.16 H 327.17552 311.6758 l -0.10028,1.00773 c -0.12371,1.2433 -0.94506,1.85904 -1.67345,1.25454 -0.39905,-0.33119 -0.50682,-1.08444 -0.50682,-3.54227 0,-2.45783 0.10777,-3.21108 0.50682,-3.54226 0.76641,-0.63605 1.55478,0.0308 1.6725,1.41467 l 0.0993,1.16759 h 15.48229 15.48228 l 0.0984,-1.36 0.0984,-1.36 h 1.76 1.76 l 0.0984,1.36 0.0984,1.36 h 8.2832 8.2832 l 0.0984,-1.35724 c 0.1056,-1.4565 0.80635,-1.94309 1.71377,-1.19 0.69732,0.57872 0.66208,6.46501 -0.0422,7.04951 -0.72839,0.6045 -1.54974,-0.0112 -1.67345,-1.25454 L 363.1147,164.16 h -8.28133 -8.28132 l -0.0984,1.36 -0.0984,1.36 -1.44167,0.0943 c -0.84449,0.0553 -1.60666,-0.0707 -1.84,-0.304 z m -18.41062,-16.46929 c -0.12524,-0.12524 -0.22771,-0.70771 -0.22771,-1.29438 V 147.84 h -6.37973 -6.37972 l -0.10028,1.03738 c -0.0672,0.69499 -0.29017,1.07337 -0.67564,1.14643 -1.19984,0.22739 -1.50463,-0.50669 -1.50463,-3.62381 0,-3.11713 0.30481,-3.85123 1.50463,-3.62376 0.40854,0.0775 0.60417,0.45626 0.67469,1.30642 l 0.0993,1.19734 h 6.36137 6.36137 l 0.0993,-1.2 0.0993,-1.2 h 1.76 1.76 l 0.0993,1.2 0.0993,1.2 h 17.40041 17.40041 l 0.10028,-1.00773 c 0.11141,-1.1197 0.85108,-1.76241 1.66766,-1.44906 0.46156,0.17712 0.522,0.67462 0.4435,3.65093 -0.0886,3.35856 -0.11024,3.4486 -0.8547,3.55386 -0.8514,0.12038 -1.30393,-0.38622 -1.31129,-1.468 l -0.005,-0.72 H 345.7344 328.31371 l -0.0993,1.2 -0.0993,1.2 -1.61229,0.0944 c -0.88676,0.0519 -1.71476,-0.008 -1.84,-0.13333 z m -95.39347,-42.86722 c -0.10683,-0.27839 -0.19424,-14.020114 -0.19424,-30.537144 0,-26.87422 0.0529,-30.08383 0.50286,-30.53383 0.45268,-0.45268 5.30112,-0.50286 48.5904,-0.50286 46.18004,0 48.10856,0.0232 48.61714,0.5852 0.48489,0.53579 0.5296,3.12387 0.5296,30.656 0,22.96174 -0.0908,30.161584 -0.384,30.454804 -0.29529,0.29529 -11.59773,0.384 -48.92576,0.384 -43.96855,0 -48.56007,-0.0477 -48.736,-0.50617 z m 95.48576,-30.373824 v -28.64001 h -46.72 -46.72 V 76.960006 105.6 h 46.72 46.72 z m -89.28,16.16 v -9.6 h 21.6 21.6 v 9.6 9.599994 h -21.6 -21.6 z m 46.08,0 v -9.6 h 10.24 10.24 v 9.6 9.599994 h -10.24 -10.24 z m 25.61394,2.8 c 0.0175,-1.30735 0.475,-3.71561 0.75997,-4.00058 0.11836,-0.11836 0.47162,-0.0551 0.78503,0.14067 0.49153,0.30696 0.70445,0.12939 1.54934,-1.29211 1.21297,-2.0408 2.66133,-5.46319 3.47362,-8.20798 0.48864,-1.65117 0.61184,-3.03663 0.59757,-6.72 -0.0163,-4.19735 -0.10365,-4.89949 -0.91603,-7.36 -0.95224,-2.88412 -1.99193,-5.12166 -3.29417,-7.08949 -0.67692,-1.02289 -0.92551,-1.17527 -1.67337,-1.0257 -0.87199,0.1744 -0.8812,0.15792 -1.27455,-2.28047 -0.21792,-1.35088 -0.32136,-2.531 -0.22986,-2.6225 0.0915,-0.0915 1.25585,0.0905 2.58744,0.40441 1.84847,0.43577 2.42107,0.70019 2.42107,1.11802 0,0.30099 -0.22623,0.63406 -0.50273,0.74017 -0.43858,0.1683 -0.41718,0.31306 0.16773,1.1345 1.20735,1.69556 3.20005,6.04324 4.07915,8.89989 0.79315,2.57735 0.86178,3.23583 0.85898,8.24117 -0.003,4.58915 -0.1115,5.83181 -0.69643,7.94514 -0.7695,2.78018 -1.9098,5.49167 -3.51021,8.34685 -0.73258,1.30695 -0.95785,1.99465 -0.7285,2.224 0.84249,0.84248 0.33562,1.40529 -1.73375,1.9251 -2.72617,0.68479 -2.73644,0.68283 -2.7203,-0.52109 z m -71.69394,-30.48001 v -13.28 h 8.96 8.96 v 13.28 13.28001 h -8.96 -8.96 z m 21.12,0 v -13.28 h 22.72 22.72 v 13.28 13.28001 h -22.72 -22.72 z m -117.36192,16.56001 0.0819,-25.52001 16.94114,-0.0829 c 11.58852,-0.0567 17.0482,0.0241 17.28,0.25558 0.2181,0.21783 0.39588,4.11473 0.49886,10.93483 l 0.16,10.59639 6.824,1.82346 c 3.77155,1.00781 7.06134,2.0608 7.35458,2.35404 0.88558,0.88558 0.11052,1.52263 -3.90241,3.20758 -2.05526,0.86295 -3.69618,1.67179 -3.6465,1.79741 0.0497,0.12563 1.66971,1.61754 3.60006,3.31537 3.95182,3.4758 4.24554,3.84663 3.63555,4.58993 -0.67392,0.82119 -6.96895,6.168274 -7.26181,6.168274 -0.41625,0 -1.0353,-0.84412 -3.71347,-5.063594 -1.75224,-2.76067 -2.58362,-3.81654 -2.77163,-3.52 -0.14771,0.23298 -0.27077,3.34906 -0.27347,6.92463 -0.003,3.859454 -0.1395,6.752544 -0.33616,7.120004 -0.32116,0.6001 -0.85262,0.61896 -17.44191,0.61896 H 139.1514 Z m 43.91731,14.44791 2.02861,-1.7921 -3.972,-3.51833 c -2.89488,-2.56424 -3.972,-3.7164 -3.972,-4.24873 0,-0.93868 0.26527,-1.12472 3.44403,-2.41525 1.45422,-0.59039 2.53422,-1.16828 2.4,-1.28421 -0.35942,-0.31042 -15.17583,-4.20416 -15.34686,-4.03313 -0.13408,0.13408 2.03419,14.87203 2.32788,15.8228 0.0712,0.23043 0.79275,-0.84957 1.60349,-2.4 0.81074,-1.55043 1.6638,-3.01763 1.89568,-3.26045 0.45395,-0.47536 2.07578,-0.26041 2.07578,0.27511 0,0.30867 5.18844,8.64638 5.38052,8.64638 0.0585,0 1.01914,-0.80645 2.13487,-1.79209 z m -17.67539,-11.06344 c 0.67848,-0.34771 0.67922,-0.38269 0.08,-3.78447 -0.26352,-1.496 -0.47932,-3.332 -0.47956,-4.08 -4.2e-4,-1.29915 0.0427,-1.36 0.96361,-1.36 0.53023,0 1.97023,0.27882 3.2,0.61961 l 2.23595,0.61961 v -9.41961 -9.41962 h -15.2 -15.2 l -5.8e-4,8.24001 -5.9e-4,8.24 1.92082,-0.10844 c 3.80944,-0.21505 5.99399,1.80193 6.29201,5.80937 0.21609,2.90564 0.33067,3.25865 1.21056,3.72955 0.74687,0.39971 0.89442,0.34038 2.24149,-0.9013 1.25438,-1.15625 1.63301,-1.32918 2.91018,-1.32918 1.6678,0 2.31267,0.27739 4.21113,1.81145 2.34754,1.89693 3.82857,2.24853 5.61498,1.33302 z m -5.81003,-12.19895 c -2.90039,-1.02581 -3.31641,-5.17133 -0.67552,-6.73134 1.13706,-0.67168 3.16231,-0.68887 4.09618,-0.0348 0.88176,0.61761 1.66937,2.09226 1.66937,3.1256 0,1.11208 -0.86184,3.02101 -1.51947,3.36557 -1.05171,0.55103 -2.47914,0.66094 -3.57056,0.27492 z"
       id="path1" />
  </g>
</svg>
