<?xml version="1.0" encoding="UTF-8" standalone="no"?>
<!-- Created with Inkscape (http://www.inkscape.org/) -->

<svg
   width="200mm"
   height="200mm"
   viewBox="0 0 200 200"
   version="1.1"
   id="svg1"
   xml:space="preserve"
   inkscape:version="1.3.2 (091e20e, 2023-11-25)"
   sodipodi:docname="logo-resume.svg"
   inkscape:export-filename="logo-resume-white.png"
   inkscape:export-xdpi="96"
   inkscape:export-ydpi="96"
   xmlns:inkscape="http://www.inkscape.org/namespaces/inkscape"
   xmlns:sodipodi="http://sodipodi.sourceforge.net/DTD/sodipodi-0.dtd"
   xmlns:xlink="http://www.w3.org/1999/xlink"
   xmlns="http://www.w3.org/2000/svg"
   xmlns:svg="http://www.w3.org/2000/svg"><sodipodi:namedview
     id="namedview1"
     pagecolor="#505050"
     bordercolor="#eeeeee"
     borderopacity="1"
     inkscape:showpageshadow="0"
     inkscape:pageopacity="0"
     inkscape:pagecheckerboard="0"
     inkscape:deskcolor="#505050"
     inkscape:document-units="mm"
     inkscape:zoom="0.41400387"
     inkscape:cx="405.79331"
     inkscape:cy="388.88525"
     inkscape:window-width="1472"
     inkscape:window-height="661"
     inkscape:window-x="0"
     inkscape:window-y="37"
     inkscape:window-maximized="0"
     inkscape:current-layer="layer1" /><defs
     id="defs1"><linearGradient
       id="linearGradient16"
       inkscape:collect="always"><stop
         style="stop-color:#002d5b;stop-opacity:1;"
         offset="0"
         id="stop15" /><stop
         style="stop-color:#eb5047;stop-opacity:0.50196081;"
         offset="1"
         id="stop16" /></linearGradient><linearGradient
       inkscape:collect="always"
       xlink:href="#linearGradient16"
       id="linearGradient5"
       x1="1.4816287"
       y1="273.2966"
       x2="467.81497"
       y2="273.2966"
       gradientUnits="userSpaceOnUse"
       gradientTransform="matrix(0.42786482,0,0,0.36953713,-0.49602737,-0.68922126)" /></defs><g
     inkscape:label="Layer 1"
     inkscape:groupmode="layer"
     id="layer1"><path
       id="path1"
       style="fill:url(#linearGradient5);fill-opacity:1;stroke:none;stroke-width:0.397633"
       d="M 0.35218151,0.77521262 V 100.30412 199.83302 H 99.901786 199.45139 V 100.30412 0.77521262 H 99.901786 Z M 71.062691,14.331887 c 0.104643,-0.0049 0.167458,0.01778 0.189698,0.06785 0.07518,0.169204 0.101868,2.617408 0.05933,5.440569 l -0.07688,5.133101 -3.422918,1.527229 c -9.75474,4.351458 -19.071086,9.63974 -28.254958,16.039503 -3.387879,2.360829 -9.37445,6.923043 -10.950663,8.344887 -0.871564,0.786216 -1.677267,1.202537 -1.357136,0.701549 0.912502,-1.42803 3.236198,-4.619044 4.70902,-6.466901 8.694554,-10.908467 19.224051,-19.999295 30.89067,-26.670181 4.732048,-2.705746 7.481353,-4.083712 8.213833,-4.117597 z m 71.420839,4.894201 -0.16462,1.55249 c -0.0906,0.854056 -0.4978,3.715011 -0.90505,6.357191 -0.40724,2.642183 -0.85979,5.66676 -1.00531,6.720957 -0.14555,1.054197 -0.32953,2.007051 -0.40866,2.117626 -0.079,0.110617 -2.49038,0.275522 -5.35917,0.36664 -2.86875,0.09106 -6.56405,0.273261 -8.21132,0.404911 -1.64728,0.131707 -4.47091,0.358876 -6.27506,0.50522 -10.09721,0.819024 -24.227524,2.862529 -34.229195,4.949776 -9.184706,1.916786 -21.891375,5.349227 -28.097015,7.589956 -9.935132,3.587348 -17.639151,6.9017 -23.321139,10.033076 -1.060568,0.584467 -2.087726,1.059517 -2.282225,1.055202 -0.194498,-0.0042 1.57191,-1.64027 3.925158,-3.634751 12.846062,-10.887589 30.154271,-20.07495 51.020376,-27.083027 6.062092,-2.03601 16.66685,-4.884522 23.14313,-6.216451 1.41196,-0.290382 3.33735,-0.686121 4.27866,-0.879095 6.68763,-1.371018 16.4655,-2.740639 26.35379,-3.691762 z m -14.23654,28.106478 c 11.52332,-0.153216 22.90093,0.613113 34.26599,2.300939 3.21733,0.477816 3.71863,0.614706 3.78976,1.037158 0.0451,0.267798 -2.35624,11.074102 -5.33661,24.013422 -2.98037,12.939293 -5.69615,24.800898 -6.03442,26.359115 -0.33826,1.5582 -0.84274,3.60938 -1.12147,4.55785 -0.27871,0.94848 -0.86361,3.35885 -1.29947,5.35686 -0.43585,1.99801 -0.85876,3.57511 -0.94013,3.50482 -0.0814,-0.0702 -0.11998,-12.29188 -0.0859,-27.15954 0.0339,-14.86764 -0.0385,-27.155719 -0.16043,-27.306769 -0.73592,-0.911849 -23.43904,-1.442739 -35.8763,-0.838676 -15.13116,0.734903 -29.592037,2.439251 -42.644408,5.025561 -4.304855,0.853005 -5.073972,1.018943 -9.840889,2.121954 -7.44701,1.723163 -17.045459,4.551209 -24.388296,7.186484 l -2.995053,1.075412 -0.18719,5.908986 c -0.103205,3.249911 -0.253193,12.781914 -0.333435,21.182698 -0.08024,8.40079 -0.293628,27.24749 -0.473828,41.88113 -0.180198,14.63361 -0.430344,27.49378 -0.555722,28.57776 -0.177619,1.5356 -0.236222,1.70771 -0.265744,0.7795 -0.04048,-1.27259 -0.421033,-7.91952 -0.890828,-15.56097 -0.276441,-4.4965 -0.517395,-8.55319 -1.140695,-19.21593 -0.793798,-13.57959 -1.193682,-19.9725 -1.580248,-25.25194 -0.605992,-8.27617 -0.989967,-14.783756 -1.148218,-19.462061 -0.07562,-2.235688 -0.262305,-5.839167 -0.414493,-8.007114 -0.152188,-2.167935 -0.361332,-6.166911 -0.465469,-8.886937 l -0.189699,-4.945447 0.970218,-0.516043 c 6.286102,-3.339592 20.212479,-8.979117 29.495096,-11.944288 5.400398,-1.725062 13.671068,-4.082091 17.114592,-4.877596 0.470652,-0.108662 1.625887,-0.38181 2.567189,-0.606996 2.313839,-0.553545 8.288997,-1.838737 9.697989,-2.085865 0.627533,-0.110058 2.745476,-0.485931 4.706514,-0.835059 3.803242,-0.677121 10.848207,-1.674445 14.833207,-2.100306 7.04857,-0.753256 14.01464,-1.176197 20.9286,-1.268112 z M 56.567102,77.638935 h 31.036076 c 29.705012,0 31.056402,0.01913 31.508232,0.450372 0.62347,0.594998 0.60022,1.590479 -0.0493,2.098143 -0.47871,0.374141 -3.06729,0.407493 -31.448056,0.40417 -17.009484,-0.0027 -31.068202,-0.0852 -31.240821,-0.184767 -0.351827,-0.202882 -0.969377,-1.141461 -0.969377,-1.473088 0,-0.118857 0.261749,-0.459143 0.581624,-0.755686 z m 30.902368,25.138625 31.02186,0.0102 0.68861,0.59472 c 0.83106,0.71776 0.86192,1.11701 0.14376,1.88306 l -0.5457,0.58175 H 87.644135 c -31.08907,0 -31.134655,-0.001 -31.687067,-0.50886 -0.696688,-0.64047 -0.711471,-1.63183 -0.03175,-2.16309 0.47914,-0.37448 3.062289,-0.40708 31.544167,-0.39769 z m 70.58433,18.23364 c -3.27583,3.50789 -4.01717,4.3601 -8.99354,9.63178 -38.63108,40.9236 -42.73416,45.27828 -45.96787,48.78322 -1.83346,1.98722 -3.461849,3.62195 -3.61931,3.6333 -0.157509,0.0112 -6.831635,-5.633 -14.83153,-12.54333 -7.999892,-6.91035 -14.481381,-12.56426 -14.402833,-12.56426 0.07855,0 1.040982,0.28402 2.138489,0.63153 2.121317,0.67169 7.22343,2.2311 8.413561,2.57159 0.392212,0.11216 1.996155,0.60951 3.564982,1.1043 9.549773,3.01194 13.10454,4.03183 13.455182,3.86137 0.183512,-0.0892 1.018144,-0.71963 1.85436,-1.40092 0.836219,-0.68128 5.435349,-4.33601 10.220299,-8.12188 4.78493,-3.78588 9.53396,-7.56294 10.5537,-8.39325 1.01974,-0.83033 3.58723,-2.8744 5.70515,-4.54199 2.11793,-1.66761 4.62094,-3.65308 5.56225,-4.41207 0.94129,-0.759 3.18731,-2.54337 4.99147,-3.96531 1.80416,-1.42195 3.34449,-2.64413 3.42293,-2.71596 0.0784,-0.0718 4.05729,-3.22885 8.84225,-7.01543 2.04101,-1.61516 5.60241,-3.19265 9.09046,-4.54269 z M 56.804432,127.89598 H 87.55972 c 34.39534,0 32.14262,-0.11816 31.96786,1.68096 -0.0648,0.66523 -0.26957,0.97415 -0.79974,1.20462 -0.55958,0.24324 -7.30213,0.31028 -31.318541,0.31323 l -30.604867,0.004 -0.700293,-0.60482 c -0.385077,-0.33259 -0.700294,-0.7812 -0.700294,-0.99675 0,-0.21556 0.315217,-0.66417 0.700294,-0.99674 z"
       sodipodi:nodetypes="cccccccccsscccssscssccsssssssssccsssccssssssssssssscccssssssssscccssssssscssscssccccsccscscccssssssscsssssssssccsssccsssc" /></g></svg>
