<?xml version="1.0" encoding="UTF-8" standalone="no"?>
<!-- Created with Inkscape (http://www.inkscape.org/) -->

<svg
   version="1.1"
   id="svg1"
   width="100"
   height="125"
   viewBox="0 0 100 125"
   sodipodi:docname="logo-white.svg"
   inkscape:version="1.3.2 (091e20e, 2023-11-25)"
   xmlns:inkscape="http://www.inkscape.org/namespaces/inkscape"
   xmlns:sodipodi="http://sodipodi.sourceforge.net/DTD/sodipodi-0.dtd"
   xmlns:xlink="http://www.w3.org/1999/xlink"
   xmlns="http://www.w3.org/2000/svg"
   xmlns:svg="http://www.w3.org/2000/svg">
  <sodipodi:namedview
     id="namedview1"
     pagecolor="#505050"
     bordercolor="#eeeeee"
     borderopacity="1"
     inkscape:showpageshadow="0"
     inkscape:pageopacity="0"
     inkscape:pagecheckerboard="0"
     inkscape:deskcolor="#505050"
     inkscape:zoom="1.5382718"
     inkscape:cx="74.75922"
     inkscape:cy="86.785703"
     inkscape:window-width="1472"
     inkscape:window-height="804"
     inkscape:window-x="0"
     inkscape:window-y="37"
     inkscape:window-maximized="0"
     inkscape:current-layer="g1" />
  <defs
     id="defs1">
    <linearGradient
       id="linearGradient1">
      <stop
         style="stop-color:#002d5b;stop-opacity:1;"
         offset="0"
         id="stop1" />
      <stop
         style="stop-color:#8a150f;stop-opacity:1;"
         offset="1"
         id="stop2" />
    </linearGradient>
    <linearGradient
       xlink:href="#linearGradient1"
       id="linearGradient2"
       x1="-0.5"
       y1="270"
       x2="466"
       y2="270"
       gradientUnits="userSpaceOnUse"
       gradientTransform="matrix(1.2637684,0,0,1.1322189,-40.884107,-30.382216)" />
  </defs>
  <g
     id="g1"
     style="fill:#ffffff;fill-opacity:1"
     transform="matrix(0.27363573,0,0,0.30364554,17.21088,-0.03208413)">
    <path
       id="path1"
       style="fill:#ffffff;fill-opacity:1;stroke-width:0.87283"
       d="m -40.728637,-6.3170906 -36.422694,0.034264 36.530844,0.035678 c -0.0352,-0.023659 -0.07226,-0.046424 -0.10815,-0.069934 z M 75.630441,23.920352 c -2.169697,0 -24.446144,13.389039 -35.281409,21.205458 C 29.926978,52.644107 15.74509,65.451438 5.8431679,76.286722 -2.0813043,84.95817 -17.760783,105.21048 -17.760783,106.77395 c 0,0.42634 5.326724,-3.4457 11.8382637,-8.6038 C 18.554415,78.780815 38.943566,66.070704 69.942555,50.87927 l 6.215842,-3.044436 V 35.876881 c 0,-6.57622 -0.238309,-11.956529 -0.527956,-11.956529 z M 228.54597,34.983388 212.43291,36.913105 C 125.61717,47.30626 50.026161,77.040633 1.1144107,120.03788 c -5.064238,4.45184 -8.904863,8.10303 -8.533966,8.11423 0.3709,0.0114 3.458593,-1.51025 6.86047398,-3.38128 C 15.467985,115.95594 46.575983,103.25228 66.326624,97.45508 113.64242,83.566926 156.53177,76.450957 209.96109,73.626222 c 7.50264,-0.396657 13.82954,-0.891 14.06104,-1.099022 0.71487,-0.642386 5.10736,-32.881007 4.80704,-35.281536 z M 208.65759,98.00601 C 144.9939,97.60007 78.975092,110.70285 17.014034,136.469 c -17.64519332,7.33767 -24.5107893,16.01654 -25.1663263,17.5516 -0.521302,1.22075 -5.7440117,64.9136 -3.2290047,104.05473 0.950311,14.78972 2.9085277,48.11392 4.3502297,74.05284 1.923134,34.60062 2.782116,45.50919 3.227456,40.95649 0.333853,-3.41297 1.05736,-49.02435 1.608035,-101.35715 0.550661,-52.33287 1.25429398,-99.13003 1.56249698,-103.9934 l 0.560675,-8.84357 8.42012682,-3.04159 C 51.586373,140.22479 95.848941,130.87133 149.82061,125.95549 c 12.74063,-1.16046 23.63,-1.44452 52.02345,-1.36022 19.75052,0.0586 38.18822,0.42199 40.97359,0.80785 l 5.06459,0.70223 0.46107,60.81316 c 0.25321,33.44749 0.73784,60.25544 1.07725,59.57283 0.99505,-2.00116 6.51246,-26.08514 17.7211,-77.36133 13.66202,-62.49971 3.26084,-57.43524 -3.39594,-62.32231 -1.98882,-1.46008 -12.09188,-4.86394 -16.37064,-5.53109 -20.4578,-3.1898 -17.49627,-3.13528 -38.71749,-3.2706 z m -97.54651,68.11382 c -59.864631,-0.0284 -66.639771,0.10081 -67.971464,1.29742 -1.132345,1.01755 -1.244798,1.66521 -0.478143,2.76183 0.799164,1.14308 2.841245,1.52528 10.11211,1.89261 12.890054,0.65115 114.785997,0.71105 121.446447,0.0714 4.67044,-0.44869 5.56817,-0.79788 5.80031,-2.258 0.15104,-0.94996 -0.33067,-2.17893 -1.07013,-2.73043 -1.02483,-0.76429 -17.15705,-1.01068 -67.83913,-1.0348 z m 0.005,56.3771 c -57.41385,0 -67.118268,0.17169 -68.069666,1.20179 -1.399108,1.51487 -0.448824,4.36539 1.617992,4.85426 0.862455,0.204 31.404565,0.41397 67.871864,0.46673 l 66.30509,0.097 1.20532,-1.73418 c 1.02582,-1.47597 0.96927,-1.96881 -0.38138,-3.30991 -1.53243,-1.52161 -3.88065,-1.57574 -68.54922,-1.57574 z m 150.60451,41.41751 c -0.0647,-0.23203 -0.79014,0.1513 -1.47,0.32829 -7.8515,2.04404 -17.53752,9.33332 -67.67404,50.92334 -28.25196,23.43604 -53.22811,44.0938 -55.50139,45.90498 l -4.13394,3.29279 -16.19134,-5.06693 c -8.90555,-2.7867 -22.200557,-6.98233 -29.543696,-9.32316 l -13.350954,-4.25622 31.30116,28.16357 c 17.21564,15.48948 31.53539,28.16215 31.82201,28.16215 0.28661,0 13.39111,-14.24124 29.11964,-31.64763 15.72853,-17.40632 42.42841,-46.92781 59.33363,-65.60174 30.73459,-33.95021 36.48305,-40.18336 36.28892,-40.87944 z m -151.50326,14.85683 c -65.103302,-0.0113 -65.856422,0.008 -67.006649,1.6628 -0.843115,1.21312 -0.897763,2.12039 -0.197805,3.29564 0.914357,1.53531 2.20169,1.6334 24.191666,1.84265 43.912428,0.41787 110.643248,-0.29294 111.849458,-1.1918 1.946,-1.45017 1.38762,-4.54252 -0.9207,-5.09833 -1.13946,-0.27441 -31.7019,-0.5044 -67.91597,-0.51096 z"
       sodipodi:nodetypes="cccccscsscccssccscscssccssssssscccsscccssssssccccsssssssccssssssccccccsssscsssssc" />
  </g>
</svg>
