<?xml version="1.0" encoding="UTF-8" standalone="no"?>
<!-- Created with Inkscape (http://www.inkscape.org/) -->

<svg
   version="1.1"
   id="svg1"
   width="416"
   height="320.32001"
   viewBox="0 0 416 320.32001"
   sodipodi:docname="maintenance-pro.svg"
   inkscape:version="1.3.2 (091e20e, 2023-11-25)"
   xmlns:inkscape="http://www.inkscape.org/namespaces/inkscape"
   xmlns:sodipodi="http://sodipodi.sourceforge.net/DTD/sodipodi-0.dtd"
   xmlns:xlink="http://www.w3.org/1999/xlink"
   xmlns="http://www.w3.org/2000/svg"
   xmlns:svg="http://www.w3.org/2000/svg">
  <defs
     id="defs1">
    <linearGradient
       id="linearGradient18"
       inkscape:collect="always">
      <stop
         style="stop-color:#8a150f;stop-opacity:0.80000001;"
         offset="0"
         id="stop19" />
      <stop
         style="stop-color:#002d5b;stop-opacity:1;"
         offset="1"
         id="stop18" />
    </linearGradient>
    <linearGradient
       inkscape:collect="always"
       xlink:href="#linearGradient18"
       id="linearGradient19"
       x1="29.45085"
       y1="166.64778"
       x2="379.53089"
       y2="166.64778"
       gradientUnits="userSpaceOnUse"
       gradientTransform="matrix(0.99977137,0,0,1,0.00673345,0)" />
  </defs>
  <sodipodi:namedview
     id="namedview1"
     pagecolor="#505050"
     bordercolor="#eeeeee"
     borderopacity="1"
     inkscape:showpageshadow="0"
     inkscape:pageopacity="0"
     inkscape:pagecheckerboard="0"
     inkscape:deskcolor="#505050"
     inkscape:zoom="0.73676322"
     inkscape:cx="218.52339"
     inkscape:cy="225.30984"
     inkscape:window-width="1472"
     inkscape:window-height="685"
     inkscape:window-x="0"
     inkscape:window-y="243"
     inkscape:window-maximized="0"
     inkscape:current-layer="g1" />
  <g
     inkscape:groupmode="layer"
     inkscape:label="Image"
     id="g1">
    <path
       style="fill:url(#linearGradient19);fill-opacity:1;stroke:none;stroke-width:0.999886;stroke-opacity:1"
       d="m 31.442275,315.28001 0.08808,-5.04 19.114147,-0.0825 19.114149,-0.0825 0.08148,-33.35748 0.08148,-33.35748 50.368989,-0.081 c 40.084,-0.0645 50.42095,8.8e-4 50.62352,0.32 0.14,0.22055 0.25674,9.5907 0.25944,20.82256 0.005,19.30004 0.0357,20.41212 0.56477,20.24951 0.30793,-0.0946 1.47431,-0.38298 2.59196,-0.64078 1.11764,-0.25779 2.06656,-0.51407 2.1087,-0.56951 0.0422,-0.0554 3.27775,-12.77278 7.19025,-28.26078 3.91251,-15.488 7.51865,-29.12744 8.01366,-30.30986 2.26834,-5.41837 7.22338,-10.22162 12.94344,-12.54696 0.9727,-0.39542 4.34594,-1.42406 7.49609,-2.28586 l 5.72755,-1.5669 0.83208,-1.48057 c 1.25888,-2.23999 1.69062,-5.36151 1.19884,-8.66775 -0.22112,-1.48659 -0.5196,-2.89317 -0.66329,-3.12572 -0.20429,-0.33063 -3.35393,0.5708 -14.44371,4.13378 -10.14591,3.25973 -14.32152,4.4702 -14.67105,4.25297 -0.55064,-0.3422 -2.3386,-4.33731 -3.82034,-8.53634 -3.59018,-10.1741 -8.02097,-32.56163 -8.02435,-40.54488 -0.003,-7.18575 2.17457,-13.88483 6.22153,-19.13946 1.95513,-2.53858 6.02846,-6.33476 8.703,-8.11084 5.2036,-3.45557 14.18467,-6.92058 21.04064,-8.11775 3.4725,-0.60635 9.90002,-0.43081 13.62218,0.37203 4.99921,1.0783 11.23684,3.64599 15.54226,6.39789 9.3984,6.00719 17.77511,20.52667 23.62883,40.95621 1.40467,4.90233 2.8986,11.30736 2.68678,11.51923 -0.0648,0.0648 -6.01806,2.01326 -13.22958,4.32998 -7.21151,2.31672 -13.22539,4.31918 -13.36418,4.44991 -0.20084,0.18917 5.8853,18.15266 6.2363,18.40672 0.0521,0.0377 3.73842,0.3904 8.19192,0.78383 9.14978,0.8083 10.69278,1.12115 14.29761,2.89888 5.28697,2.6073 7.7219,5.34992 11.65825,13.13146 15.15981,29.96854 23.18567,58.35896 21.77033,77.00965 -0.27694,3.64955 -1.05364,8.63467 -1.39915,8.98026 -0.0933,0.0933 -12.40597,1.17595 -16.67294,1.466 -0.8798,0.0598 5.7283,0.13468 14.68465,0.16641 l 16.28429,0.0577 -1.2592,-0.91237 c -1.71812,-1.24489 -2.94169,-2.75539 -3.92679,-4.84763 l -0.82866,-1.76 -0.094,-13.44 c -0.0517,-7.392 -0.0126,-13.76537 0.0869,-14.16304 l 0.18084,-0.72304 15.58958,0.083 15.58957,0.083 0.094,2.32 0.094,2.32 h 3.66514 c 3.22283,0 3.74137,0.0763 4.29686,0.63186 0.94601,0.94622 1.03026,1.67487 0.91291,7.89508 -0.11927,6.3218 -0.29061,6.95079 -2.70457,9.92889 -1.06544,1.31443 -4.42062,3.30417 -5.57164,3.30417 -0.38794,0 -0.66087,0.43732 -0.92316,1.47921 -0.74366,2.95399 -2.34672,5.38809 -4.66244,7.07949 l -0.95978,0.70102 20.87522,0.0101 20.87523,0.0101 v 5.12 5.12 H 205.40248 31.354165 Z m 173.008555,-6.10667 c 0,-1.29555 -0.24856,-1.39353 -1.58443,-0.62452 -1.2419,0.71491 -2.12979,0.6291 -2.46244,-0.238 -0.1073,-0.27967 0.4642,-1.90175 1.28498,-3.6471 l 1.47822,-3.1434 -0.95365,-4.76015 c -0.5245,-2.61809 -1.04581,-5.12016 -1.15844,-5.56016 -0.17583,-0.68686 -1.39809,5.05251 -3.77643,17.73306 l -0.21512,1.14694 h 3.69365 3.69366 z m 130.98252,-0.79199 c 2.30678,-1.01788 4.31907,-2.82184 5.24011,-4.6976 l 0.86602,-1.76374 0.0969,-12.72 0.0969,-12.72 h -13.9337 -13.93373 v 12.01829 c 0,7.52554 0.12882,12.53003 0.34461,13.38719 0.71427,2.83725 3.87755,5.94662 6.90887,6.79111 2.35919,0.65724 12.63585,0.44526 14.31406,-0.29525 z m -127.8506,-6.14155 c 0.89761,-0.80721 1.9456,-1.97517 2.32888,-2.59547 0.61939,-1.00242 3.57209,-8.49188 3.40388,-8.63386 -0.0367,-0.031 -1.23314,1.25963 -2.65879,2.86799 -2.14163,2.41609 -2.88657,3.56357 -4.28654,6.60292 -0.93195,2.02324 -1.85303,3.889 -2.04684,4.14612 -0.5236,0.69462 1.39387,-0.71003 3.25941,-2.3877 z m 5.97309,-0.75828 c 1.52117,-1.68664 3.01936,-4.201 3.5989,-6.03998 0.46694,-1.48161 0.63245,-1.68153 1.39213,-1.68153 0.4742,0 1.02586,0.19727 1.22592,0.43838 1.17294,1.41363 7.87551,3.40464 11.54591,3.42974 1.32537,0.009 5.54564,0.58117 9.39905,1.27416 3.84649,0.69174 7.12174,1.25772 7.27833,1.25772 0.1566,0 0.28473,-2.54121 0.28473,-5.64713 v -5.64713 l -3.35081,0.21668 c -3.05919,0.19783 -4.38474,0.0623 -15.23176,-1.55787 l -11.88097,-1.77456 -1.1995,1.365 c -0.65973,0.75075 -1.58405,1.82302 -2.05405,2.38281 l -0.85455,1.0178 0.88684,0.1022 c 0.53193,0.0613 0.92866,0.3229 0.99136,0.6537 0.0823,0.43424 -1.79791,5.92811 -3.9729,11.6085 -0.226,0.59023 -0.19785,0.60267 0.36181,0.16 0.33377,-0.264 1.04457,-0.96532 1.57956,-1.55849 z m 133.17161,-4.38837 c 1.60817,-0.93879 2.78001,-2.39361 3.44378,-4.27535 0.71817,-2.03598 0.70234,-11.06635 -0.0199,-11.34356 -0.27834,-0.10683 -1.86197,-0.19423 -3.51919,-0.19423 H 343.619 v 1.12 1.12 h 2.23949 2.23949 v 4.17274 c 0,3.51007 -0.0994,4.36761 -0.62583,5.39975 -0.66766,1.30904 -2.15835,2.7326 -3.21156,3.06696 -0.47681,0.15137 -0.64159,0.48374 -0.64159,1.29419 0,1.05676 0.0272,1.08024 0.8798,0.75871 0.48389,-0.18249 1.48678,-0.68614 2.22865,-1.11921 z m -1.0395,-5.1415 c 0.31732,-0.65238 0.49047,-1.9233 0.49047,-3.6 v -2.59164 h -1.27971 -1.27971 v 4.17494 4.17494 l 0.78924,-0.57494 c 0.43407,-0.31622 1.00994,-1.02871 1.27971,-1.5833 z m -74.18789,-12.91884 c 2.80185,-0.53196 5.32881,-1.07196 5.61547,-1.2 0.43828,-0.19577 -0.17471,-1.59084 -3.85312,-8.76907 l -4.37431,-8.53627 -1.51026,9.49627 c -0.83064,5.22295 -1.50819,9.60427 -1.50566,9.73627 0.007,0.34048 -2.5e-4,0.34135 5.62788,-0.7272 z m -33.67152,-57.3433 c 5.0449,-8.57478 9.17256,-15.71428 9.17256,-15.86557 0,-0.20971 -3.56113,-10.3331 -7.22364,-20.53497 -0.10404,-0.28982 -0.25479,-0.34606 -0.39183,-0.14621 -0.12251,0.17866 -3.98346,3.3168 -8.57989,6.97364 l -8.35715,6.64882 -0.14584,3.25739 c -0.11901,2.65777 -0.30695,3.61596 -1.02101,5.20524 l -0.87515,1.94785 3.85941,13.75254 c 2.12268,7.56389 3.85942,14.02416 3.85942,14.35615 0,0.35059 0.11119,0.47619 0.26528,0.29962 0.1459,-0.1672 4.39293,-7.31973 9.43784,-15.8945 z m -16.01159,-32.59838 c 7.61252,-2.55942 15.4789,-8.29931 17.50255,-12.77113 0.43805,-0.968 0.9181,-1.84801 1.06677,-1.95558 0.71089,-0.51435 -3.12452,-6.41455 -6.8221,-10.49479 -1.72077,-1.89885 -7.27883,-7.02894 -9.32549,-8.60741 -0.44236,-0.34118 -1.12023,-0.16958 -4.20046,1.06333 l -3.67297,1.47017 0.94493,2.24954 c 0.51972,1.23724 0.8638,2.46102 0.76464,2.7195 -0.21064,0.54903 -8.58286,4.59524 -9.50825,4.59524 -0.40479,0 -0.78277,-0.36903 -1.0652,-1.04 -0.43381,-1.03062 -0.43931,-1.03278 -0.61072,-0.24 -0.30018,1.38842 -1.17116,8.41562 -1.05719,8.52962 0.0599,0.0599 1.16628,-0.25068 2.45852,-0.69031 1.29225,-0.43962 2.83732,-0.79931 3.43351,-0.79931 1.02497,0 1.07852,0.0552 0.98372,1.01359 -0.0979,0.99012 -0.18523,1.042 -3.76878,2.24 -2.0177,0.67453 -4.14121,1.22641 -4.71892,1.22641 -1.00425,0 -1.04946,-0.0527 -1.02931,-1.2 0.0116,-0.66 0.19604,-2.424 0.40988,-3.92 l 0.38881,-2.72 -3.48164,1.68465 c -2.42644,1.17407 -3.43028,1.81848 -3.31221,2.12624 0.48421,1.26213 3.93648,6.39978 5.6605,8.42394 2.02399,2.37634 4.90717,4.75594 7.18376,5.92904 3.74541,1.92997 8.19519,2.37105 11.77565,1.16726 z m -11.23552,-7.61221 c -0.23535,-0.14921 -0.37932,-0.60708 -0.31993,-1.01749 0.0865,-0.59736 0.45893,-0.85076 1.86757,-1.27046 3.26903,-0.974 5.38168,-2.58269 6.13753,-4.67345 0.35096,-0.97078 0.52033,-1.09591 1.3705,-1.01259 1.28962,0.1264 1.40177,1.02302 0.3788,3.02863 -1.23513,2.42156 -3.03901,3.847 -5.97015,4.71766 -1.91421,0.56859 -2.83154,0.62888 -3.46432,0.2277 z m -7.60226,-14.42437 c -0.0916,-0.9574 -0.21337,-1.0562 -0.41246,-0.33455 -0.25729,0.93261 -1.68195,1.26425 -2.50494,0.58313 -0.69956,-0.57898 -1.67396,-2.79794 -1.68252,-3.83151 l -0.007,-0.84839 -0.99712,0.93166 c -0.54842,0.51242 -1.3465,1.01938 -1.77354,1.12658 -0.42702,0.1072 -0.73414,0.29594 -0.68249,0.41943 0.0517,0.12349 0.58873,1.30903 1.19349,2.63454 l 1.09957,2.41003 2.89951,-1.37819 c 1.59474,-0.758 2.88512,-1.52873 2.86753,-1.71273 z m 1.68354,-3.29455 c -0.0888,-0.22 -0.16136,-0.04 -0.16136,0.4 0,0.44 0.0726,0.62 0.16136,0.4 0.0888,-0.22 0.0888,-0.58 0,-0.8 z m 7.88774,-1.54508 c -0.95896,-0.35483 -2.07542,-2.98582 -1.9558,-4.609 0.0884,-1.1995 0.16604,-1.29276 1.15556,-1.38776 0.8794,-0.0844 0.9958,-0.1802 0.68067,-0.56 -0.20909,-0.25199 -0.57609,-0.45816 -0.81558,-0.45816 -0.60643,0 -5.24491,2.32453 -5.24491,2.62844 0,0.13646 0.66542,1.68208 1.4787,3.43473 l 1.4787,3.18663 1.95864,-0.98894 c 1.7305,-0.87375 1.87772,-1.01887 1.26402,-1.24594 z m 2.56973,-1.10516 c -0.25377,-0.66148 -0.43169,-0.58353 -0.43169,0.18913 0,0.36239 0.13768,0.57377 0.30595,0.46975 0.16828,-0.10402 0.22486,-0.40052 0.12574,-0.65888 z m -14.71271,0.0102 c -0.20064,-0.52298 -0.75554,-0.66008 -0.75554,-0.18666 0,0.24288 0.22422,0.40823 0.86976,0.6414 0.0385,0.0139 -0.0129,-0.19074 -0.11422,-0.45474 z m 4.17148,-0.90035 c -0.11054,-0.34839 -0.51879,-1.31951 -0.9072,-2.15806 l -0.70621,-1.52462 -1.2569,0.58561 c -0.69129,0.32209 -1.03143,0.59727 -0.75585,0.61152 0.28395,0.0147 0.89287,0.84586 1.40531,1.91826 0.85162,1.78222 0.94841,1.87222 1.66305,1.54654 0.55954,-0.25501 0.70602,-0.51215 0.5578,-0.97925 z m 15.62828,-6.68364 c 0.48389,-0.17522 0.8798,-0.43498 0.8798,-0.57725 0,-0.32811 -3.23871,-2.66879 -3.67414,-2.65537 -0.17872,0.006 -1.17047,0.38942 -2.20387,0.85313 -1.52886,0.68603 -1.81007,0.9261 -1.50935,1.28853 0.20327,0.24498 0.9768,0.54015 1.71896,0.65593 0.74216,0.11578 1.7093,0.41477 2.1492,0.66443 0.4399,0.24966 1.01577,0.37186 1.27971,0.27155 0.26394,-0.10031 0.8758,-0.32574 1.35969,-0.50095 z m 109.40832,118.72938 c -0.21629,-0.21634 -0.39325,-1.07974 -0.39325,-1.91866 0,-1.35425 -0.16147,-1.70716 -1.43967,-3.14668 -1.23473,-1.39056 -1.43967,-1.81848 -1.43967,-3.00603 0,-0.94928 0.25149,-1.75534 0.79981,-2.56353 1.188,-1.75101 1.04517,-2.52927 -0.82762,-4.50993 -1.7404,-1.84063 -2.24849,-3.3815 -1.63569,-4.96051 0.17076,-0.44 1.44271,-2.16994 2.82656,-3.84431 1.38385,-1.67436 2.80403,-3.42833 3.15595,-3.8977 0.35192,-0.46938 0.92779,-0.89944 1.2797,-0.9557 0.50527,-0.0808 0.65923,0.0996 0.73196,0.85771 0.077,0.80261 -0.4344,1.60885 -3.11929,4.91774 -1.76627,2.17677 -3.21138,4.1827 -3.21138,4.45764 0,0.27494 0.62564,1.08595 1.39032,1.80225 1.78653,1.67351 2.12924,2.35681 2.12723,4.24133 -10e-4,1.07588 -0.23955,1.9274 -0.78983,2.82104 -0.43351,0.704 -0.79269,1.46556 -0.79818,1.69236 -0.005,0.2268 0.56902,1.01508 1.2767,1.75173 1.47318,1.53349 1.94521,2.97854 1.64361,5.03171 -0.2191,1.49152 -0.83518,1.97179 -1.57726,1.22954 z M 30.010722,226.21437 c -0.528169,-0.3077 -0.559872,-2.45043 -0.559872,-37.84627 0,-28.75563 0.08968,-37.6098 0.383912,-37.9041 0.286205,-0.28626 3.745834,-0.384 13.593,-0.384 h 13.209079 l 0.08388,-11.92 0.08388,-11.92 26.518915,-0.0819 c 19.326624,-0.0597 26.636864,0.0161 26.953834,0.27919 0.60344,0.50092 0.65371,75.13584 0.051,75.73867 -0.2862,0.28627 -3.7467,0.384 -13.59689,0.384 H 83.518484 v 11.66875 c 0,11.20903 -0.02439,11.68179 -0.618819,12 -0.849266,0.45461 -52.107832,0.44068 -52.888943,-0.0144 z M 81.278996,213.28 V 202.56 H 68.961812 56.644629 v -0.8 -0.8 H 45.586888 34.529139 l 0.100257,-1.04 0.100247,-1.04 10.957492,-0.0842 10.957494,-0.0842 V 195.5158 192.32 H 45.607153 34.569679 v -1.12 -1.12 h 11.037474 11.037476 v -3.2 -3.2 H 45.607153 34.569679 v -1.12 -1.12 h 11.037474 11.037476 v -3.1958 -3.19579 l -10.957494,-0.0842 -10.957492,-0.0842 -0.100247,-1.04 -0.100257,-1.04 h 11.057749 11.057741 v -3.1958 -3.19579 l -10.957494,-0.0842 -10.957492,-0.0842 v -1.12 -1.12 l 10.957492,-0.0842 10.957494,-0.0842 v -3.18824 -3.18824 l -5.518738,-0.0876 -5.518738,-0.0876 v -0.96 -0.96 l 5.518738,-0.0876 5.518738,-0.0876 v -1.43227 -1.43245 H 44.167483 31.690338 v 35.84 35.84001 h 24.794328 24.79433 z M 34.78517,209.70888 c -0.118523,-0.11855 -0.215491,-0.62354 -0.215491,-1.12221 V 207.68 h 22.095226 22.095217 l -0.100247,1.04 -0.100257,1.04 -21.77948,0.0822 c -11.97872,0.0452 -21.876457,-0.0148 -21.994968,-0.13333 z M 35.225008,160.08 c 0.008,-0.308 0.561461,-2 1.228789,-3.76 1.146737,-3.0244 1.2671,-3.20537 2.193378,-3.29799 0.968658,-0.0968 0.995272,-0.0586 2.290396,3.29521 0.720695,1.86625 1.31035,3.60235 1.31035,3.85799 0,0.32893 -0.374074,0.46479 -1.279707,0.46479 -0.924228,0 -1.279707,-0.13333 -1.279707,-0.48 0,-0.31605 -0.316118,-0.48 -0.925549,-0.48 -0.527589,0 -1.00473,0.20639 -1.109706,0.48 -0.278696,0.72646 -2.44855,0.65497 -2.428244,-0.08 z m 73.247772,4.24 v -36 H 83.678447 58.884117 v 36 36 h 24.79433 24.794333 z m -46.906376,21.1387 c -0.09738,-0.25372 -0.126851,-0.72172 -0.06558,-1.04 0.105985,-0.55061 1.17842,-0.58269 22.095357,-0.6609 l 21.983969,-0.0822 0.19674,0.78401 c 0.10819,0.43121 0.10269,0.9362 -0.0122,1.12221 -0.14352,0.23225 -7.070732,0.33818 -22.115121,0.33818 -18.782495,0 -21.931385,-0.0658 -22.08313,-0.4613 z m 0.09038,-8.39203 c -0.117313,-0.11733 -0.213291,-0.62133 -0.213291,-1.12 V 175.04 h 22.056076 c 15.149705,0 22.121501,0.1059 22.265031,0.33819 0.11493,0.186 0.12068,0.69 0.0128,1.12 L 105.58121,177.28 H 83.725636 c -12.020561,0 -21.95155,-0.096 -22.068853,-0.21333 z m 0.002,-8.6378 c -0.118523,-0.11854 -0.215491,-0.62353 -0.215491,-1.1222 V 166.4 h 22.084999 c 20.151498,0 22.102568,0.0458 22.285828,0.5235 0.11046,0.28792 0.0543,0.75592 -0.12486,1.04 -0.29369,0.46574 -2.46286,0.52458 -22.070338,0.59871 -11.959555,0.0452 -21.841626,-0.0148 -21.960138,-0.13334 z M 61.503008,158.64 61.603255,157.6 h 21.880127 c 19.788468,0 21.911248,0.0494 22.205848,0.51651 0.17914,0.28408 0.23535,0.75208 0.12489,1.04 -0.18326,0.47767 -2.13582,0.52349 -22.306104,0.52349 H 61.402751 Z m 0.06319,-8.0613 c -0.09738,-0.25372 -0.126851,-0.72172 -0.06559,-1.04 0.105985,-0.55061 1.17843,-0.58269 22.095357,-0.6609 l 21.983965,-0.0822 0.19674,0.78401 c 0.10819,0.43121 0.10269,0.9362 -0.0122,1.12221 -0.14351,0.23225 -7.070728,0.33818 -22.115117,0.33818 -18.782495,0 -21.931385,-0.0658 -22.08312,-0.4613 z m 0,-8.64 c -0.09738,-0.25372 -0.126851,-0.72172 -0.06559,-1.04 0.105975,-0.55058 1.175211,-0.58269 22.003788,-0.66094 13.251969,-0.0498 22.010304,0.0357 22.191134,0.21657 0.16432,0.16435 0.20577,0.66936 0.0921,1.12224 L 105.58104,142.4 H 83.662101 c -18.793633,0 -21.944162,-0.0658 -22.095907,-0.4613 z m 0.516981,-5.52154 c 0,-0.12257 0.611861,-1.85457 1.35969,-3.8489 1.336044,-3.56299 1.376155,-3.62451 2.306472,-3.53716 0.885867,0.0832 1.024746,0.29477 2.158596,3.2889 1.534579,4.0523 1.539778,4.32 0.08388,4.32 -0.709118,0 -1.198346,-0.17872 -1.313929,-0.48 -0.101287,-0.264 -0.533188,-0.48 -0.959781,-0.48 -0.426602,0 -0.858503,0.216 -0.95978,0.48 -0.185098,0.48248 -2.675109,0.72184 -2.675109,0.25716 z m 10.773777,-2.86759 c -0.118903,-0.11893 -0.216191,-0.62423 -0.216191,-1.1229 V 131.52 h 16.48628 c 14.968115,0 16.504755,0.0482 16.687105,0.5235 0.11046,0.28792 0.0543,0.75592 -0.12483,1.04 -0.29156,0.46238 -2.01737,0.52519 -16.470926,0.5994 -8.879889,0.0456 -16.242536,-0.0144 -16.361438,-0.13333 z m 231.727854,75.71962 c -0.9816,-3.64622 -0.97819,-9.12041 0.008,-12.54919 0.33423,-1.16227 0.39125,-1.2 1.81376,-1.2 h 1.46869 l -0.27822,-1.84 c -0.36118,-2.38877 -0.36552,-8.41382 -0.008,-10.56 l 0.28017,-1.68 h -1.91119 c -1.41787,0 -2.03928,-0.14454 -2.40739,-0.56 -1.76983,-1.99738 -1.76437,-13.17005 0.007,-15.2 0.45906,-0.52595 2.33265,-0.56 30.82099,-0.56 29.31501,0 30.34296,0.0201 30.65278,0.59913 0.20417,0.3816 0.21351,0.97249 0.0257,1.62745 -0.56017,1.95364 -0.72435,6.25824 -0.34893,9.14826 0.5323,4.09757 0.47167,3.98516 2.14909,3.98516 2.17525,0 2.52819,0.51737 2.02995,2.97569 -0.50239,2.47874 -0.49991,7.23084 0.005,9.66372 0.54326,2.61749 0.11548,3.36059 -1.9346,3.36059 h -1.50648 l -0.35882,2.41308 c -0.51864,3.48787 -0.37721,6.75024 0.46763,10.78692 l 0.18417,0.88 h -30.40543 -30.40614 z m 44.31278,-6.22942 v -6.55996 l -2.11495,1e-4 -2.11494,9e-5 -0.20175,1.68 c -0.26193,2.1812 -0.2642,8.05544 -0.004,9.95534 l 0.20344,1.48466 2.11603,-1.3e-4 2.11602,-1.4e-4 z m 9.5978,2.3e-4 v -6.56 h -1.99323 c -1.90175,0 -2.00477,0.0405 -2.23949,0.88 -0.31098,1.11225 -0.32454,10.9288 -0.0161,11.68 0.18454,0.4495 0.62647,0.56 2.23949,0.56 h 2.00954 z m -37.5914,-9.92 v -5.28 h -1.7596 -1.7596 v 5.28 5.28 h 1.7596 1.7596 z m -5.43876,-2.70705 v -2.86706 l -2.63939,-0.0929 -2.6394,-0.0929 -0.10025,-1.04 -0.10025,-1.04 h 15.22683 c 13.80213,0 15.24563,0.049 15.42768,0.5235 0.11046,0.28792 0.0543,0.75592 -0.12472,1.04 -0.28432,0.45109 -1.4252,0.52729 -9.00887,0.60165 l -8.68331,0.0851 v 2.87486 2.87485 h 22.01776 22.01776 l -0.27859,-2.16 c -0.15322,-1.188 -0.18957,-3.276 -0.0808,-4.64 l 0.1978,-2.48 h -28.47659 c -19.79269,0 -28.54079,0.1039 -28.68711,0.3407 -0.42971,0.69545 -0.53645,5.30837 -0.16426,7.0993 l 0.38237,1.84 h 2.85667 2.85665 z m 17.49453,-0.22108 c -0.12016,-0.12019 -0.21848,-0.62653 -0.21848,-1.1252 V 188.16 h 8.65829 8.6583 l -0.10026,1.04 -0.10024,1.04 -8.33957,0.0852 c -4.58676,0.0469 -8.43788,-0.0131 -8.55804,-0.13333 z M 313.70584,173.28 v -5.92 h -4.37743 c -4.98838,0 -4.52636,-0.30637 -5.03782,3.34066 -0.29001,2.06785 -0.0775,5.45425 0.48234,7.68519 l 0.20429,0.81415 h 4.36431 4.36431 z m 49.03,3.92 c -0.16103,-1.1 -0.21802,-3.764 -0.12664,-5.92 l 0.16615,-3.92 h -21.55387 -21.55387 l -0.22152,0.69809 c -0.12183,0.38395 -0.22151,2.73381 -0.22151,5.22191 0,2.48811 0.0997,4.83797 0.22151,5.22192 l 0.22152,0.69808 h 21.68051 21.68052 z m -36.01588,-39.10358 c -2.85339,-0.53978 -7.01499,-1.89108 -9.17499,-2.97919 -3.93451,-1.98203 -8.29925,-5.85762 -9.70839,-8.62042 -0.72402,-1.41951 -0.78681,-1.45364 -3.72854,-2.02661 -3.28962,-0.64073 -8.55885,-2.48066 -11.73226,-4.09671 l -3.04287,-1.54957 -5.02114,3.48928 c -2.76164,1.91911 -5.2679,3.44249 -5.56948,3.38531 -1.21211,-0.22985 -0.74303,-1.65569 2.13793,-6.49851 l 2.8555,-4.8 -1.03605,-1.12 c -3.91774,-4.23519 -5.93592,-8.91351 -5.93592,-13.759999 0,-5.174289 2.14162,-9.844779 6.5394,-14.261289 5.61924,-5.64317 12.62424,-9.12281 22.32281,-11.08857 3.15892,-0.64027 4.52373,-0.72819 11.11919,-0.7163 6.91137,0.0125 7.84373,0.0829 11.54986,0.87209 9.48505,2.01986 16.67897,5.67863 21.78993,11.08215 3.65405,3.86323 5.35046,7.21198 6.01009,11.864033 0.36677,2.586606 0.0363,5.603745 -0.91651,8.368725 l -0.6206,1.80083 2.31082,2.35917 c 1.54721,1.57957 2.67356,3.09715 3.40851,4.59243 1.04884,2.13389 1.09769,2.39022 1.09769,5.76 0,3.19203 -0.0849,3.70798 -0.89404,5.43653 -0.49173,1.05039 -1.4433,2.63745 -2.11462,3.5268 l -1.22058,1.61701 1.90106,3.25802 c 1.90202,3.25971 2.18827,4.56837 0.99925,4.56837 -0.2673,0 -1.98419,-1.02935 -3.81532,-2.28745 l -3.32931,-2.28746 -2.91352,1.35399 c -4.9885,2.31829 -8.12479,2.96433 -15.00688,3.09127 -4.12115,0.076 -6.63002,-0.0254 -8.26102,-0.33393 z m 16.41915,-2.85985 c 1.7596,-0.45875 4.54379,-1.48265 6.18711,-2.27533 1.64331,-0.79268 3.22952,-1.44124 3.52491,-1.44124 0.2954,0 1.06674,0.36 1.71411,0.8 1.55629,1.05777 1.71304,1.0103 0.91715,-0.27777 -0.95582,-1.5469 -0.84014,-2.14589 0.73126,-3.78627 0.76846,-0.80219 1.81222,-2.30396 2.31947,-3.33725 0.8096,-1.64921 0.92205,-2.23052 0.92051,-4.75871 -0.002,-2.55159 -0.10935,-3.093 -0.9454,-4.74797 -3.83181,-7.58509 -17.06613,-12.62673 -29.15121,-11.10523 -9.27174,1.16731 -17.20405,5.7046 -20.0375,11.46147 -2.15388,4.37614 -1.09851,8.8821 3.03039,12.93837 3.46188,3.401 8.87989,5.99203 14.9209,7.13557 3.93938,0.74571 11.84194,0.44409 15.8683,-0.60564 z m -36.90433,-14.49053 c -0.23727,-3.81937 2.12404,-8.86027 5.57458,-11.90055 5.61436,-4.94684 13.89405,-7.36624 23.94222,-6.99613 5.52129,0.20337 9.34251,1.02676 13.7263,2.95773 1.44055,0.63453 2.78972,1.22831 2.99815,1.3195 0.64528,0.28233 1.70056,-3.80227 1.70056,-6.582219 0,-7.370899 -4.90128,-13.818809 -14.1279,-18.586039 -14.80249,-7.64821 -35.27079,-7.1605 -49.32298,1.17524 -1.67307,0.99246 -3.70897,2.63543 -5.6833,4.58643 -2.49721,2.46768 -3.31946,3.53086 -4.36764,5.64732 -1.7047,3.44211 -2.24881,6.397229 -1.71673,9.323878 0.56233,3.09309 2.49261,6.87509 4.78747,9.38009 1.06071,1.15784 2.01474,2.45247 2.12006,2.87694 0.14255,0.57448 -0.25175,1.52086 -1.54243,3.7021 l -1.73393,2.93033 2.60129,-1.8422 c 4.18206,-2.96169 3.65103,-2.8873 7.23367,-1.01332 1.71319,0.89612 4.10713,2.00571 5.31986,2.46574 1.98255,0.75206 7.47582,2.313 8.28357,2.35383 0.19009,0.01 0.27417,-0.72037 0.20718,-1.79867 z m -154.25195,9.45516 c -13.19152,-1.5161 -25.45208,-7.911 -34.06951,-17.77008 -2.59616,-2.97023 -2.95963,-4.02923 -1.44237,-4.2024 0.63874,-0.0729 1.07412,0.2612 2.16192,1.65903 1.87453,2.40878 6.38178,6.5285 9.83534,8.98971 19.93231,14.20491 47.92376,11.89239 65.50699,-5.41188 2.555,-2.51447 3.25482,-2.86457 3.59336,-1.79766 0.29404,0.9266 -0.16583,1.5692 -3.12232,4.36308 -11.21886,10.60179 -27.17698,15.92708 -42.46341,14.1702 z M 89.106496,106.16 c -0.08288,-0.22 1.256672,-4.072 2.976669,-8.559995 l 3.127265,-8.160003 1.139819,-0.0962 c 0.660699,-0.0557 1.277428,0.0788 1.467195,0.32 0.663608,0.8436 6.231006,15.972178 6.050756,16.442018 -0.14309,0.37296 -0.60999,0.46393 -2.00288,0.39025 -1.7611,-0.0932 -1.82768,-0.13012 -2.191081,-1.21609 l -0.374774,-1.12 -2.733995,-0.0919 -2.733985,-0.0919 -0.223349,0.89013 c -0.122852,0.48957 -0.373374,1.07093 -0.556743,1.29191 -0.445068,0.53641 -3.743064,0.5379 -3.944897,0.002 z m 8.48038,-6.719999 c -0.005,-0.22 -0.2592,-0.958366 -0.56574,-1.640816 l -0.557343,-1.24082 -0.5246,1.64082 -0.52459,1.640816 h 1.090331 c 0.663458,0 1.087041,-0.1566 1.081942,-0.4 z m 7.844794,6.750699 c -0.0932,-0.24294 -0.13093,-4.11124 -0.0839,-8.596205 l 0.0857,-8.154493 3.67916,-0.0986 c 2.13428,-0.0572 4.21651,0.056 4.95887,0.26955 3.32779,0.95742 4.68732,4.86226 2.51074,7.211363 l -0.77032,0.83138 0.96937,1.104296 c 0.80802,0.9205 0.96937,1.375789 0.96937,2.735399 0,1.94827 -0.86798,3.55044 -2.35036,4.33845 -1.38375,0.73557 -9.70913,1.0353 -9.96863,0.35888 z m 8.23527,-4.62829 c 0.56706,-1.24484 -0.53814,-2.042409 -2.83015,-2.042409 h -1.72416 V 100.96 102.4 h 2.08639 c 1.93998,0 2.11315,-0.0588 2.46792,-0.83759 z m -0.45924,-6.266408 c 1.15577,-1.15604 -0.0987,-2.176 -2.67622,-2.176 h -1.41885 v 1.28 1.28 h 1.85558 c 1.02056,0 2.02833,-0.1728 2.23949,-0.384 z m 9.82175,10.891438 c -1.03392,-0.57056 -2.41638,-1.95435 -2.98457,-2.98744 -0.41742,-0.75895 -0.52777,-1.8647 -0.52693,-5.279995 9.6e-4,-3.855023 0.078,-4.464903 0.71599,-5.666203 2.01885,-3.80155 7.9451,-4.06349 10.44072,-0.46147 0.48811,0.70449 0.96716,1.8752 1.06457,2.60158 l 0.1771,1.32068 -1.87611,-0.0973 c -1.63,-0.0845 -1.92787,-0.20153 -2.27061,-0.89185 -0.85991,-1.7319 -2.23814,-2.05712 -3.475,-0.81999 -0.71716,0.71732 -0.78527,1.03473 -0.78527,3.659173 0,3.337715 0.31775,4.408715 1.43393,4.833185 1.13686,0.43233 2.22686,-0.0746 2.71981,-1.26501 0.40757,-0.98417 0.44747,-0.99944 2.36944,-0.90692 1.87948,0.0905 1.95082,0.12497 1.84972,0.89411 -0.21345,1.62373 -1.82456,3.95377 -3.25816,4.71206 -1.51253,0.80002 -4.45068,0.98666 -5.59463,0.35538 z m 68.70213,-0.0136 c -0.21234,-0.25592 -0.42469,-0.81371 -0.47189,-1.23955 -0.0809,-0.7298 0.0198,-0.77976 1.75376,-0.87022 l 1.83957,-0.096 v -2.05524 -2.055249 l -4.55895,-0.0888 -4.55896,-0.0888 v -1.119996 -1.12 l 4.55896,-0.0888 4.55895,-0.0888 v -0.95121 c 0,-0.547003 0.16995,-0.951723 0.39991,-0.952413 0.21995,-6.6e-4 0.9038,-0.32466 1.51966,-0.72 l 1.11974,-0.71881 -3.99909,-0.16 -3.99908,-0.16 v -1.12 -1.12 l 5.75868,-0.0893 c 5.79931,-0.0899 7.19836,0.12114 7.19836,1.08576 0,0.4286 -2.90658,2.92536 -4.50489,3.869723 -0.51364,0.30348 -0.93387,0.66473 -0.93387,0.80278 0,0.13805 2.02006,0.25101 4.48901,0.25101 4.86066,0 5.07846,0.0823 4.65731,1.760706 l -0.20056,0.79929 h -4.47288 -4.47288 v 2.524539 c 0,3.34392 -0.37627,3.82292 -3.20726,4.08287 -1.613,0.14811 -2.17528,0.0859 -2.4736,-0.27362 z m 27.30425,-0.6145 c -0.24807,-0.59013 -0.37985,-1.18817 -0.29284,-1.32898 0.087,-0.14082 0.99576,-0.16124 2.01947,-0.0454 1.66736,0.18868 1.89788,0.14221 2.21266,-0.44611 0.19327,-0.3612 0.35139,-0.7382 0.35139,-0.83777 0,-0.0996 -2.52298,-0.18104 -5.60663,-0.18104 h -5.60664 l -0.30409,0.8 c -0.23002,0.60513 -0.53521,0.8 -1.25291,0.8 -0.52185,0 -1.01416,-0.108 -1.09404,-0.24 -0.0799,-0.132 0.11192,-1.608 0.42618,-3.28 0.31426,-1.671999 0.66405,-3.571905 0.77731,-4.222005 l 0.20592,-1.182023 -1.53077,-0.098 c -1.51751,-0.0972 -1.53078,-0.10772 -1.53078,-1.21802 v -1.12 l 1.66818,-0.0963 c 1.60022,-0.0924 1.67538,-0.13803 1.84476,-1.12 0.20575,-1.19288 0.79046,-5.39214 0.79974,-5.74367 0.003,-0.132 3.31758,-0.24 7.36465,-0.24 h 7.35832 v 3.52 3.52 h 1.25815 c 1.36272,0 1.86222,0.65631 1.46123,1.92 -0.16285,0.51319 -0.48406,0.64 -1.62119,0.64 -1.25654,0 -1.41844,0.082 -1.4209,0.720003 -0.002,0.396 -0.0925,1.46679 -0.2021,2.37954 l -0.19933,1.659525 1.40183,0.10046 c 1.3641,0.0978 1.40448,0.13229 1.50009,1.28311 l 0.0983,1.18264 -1.6492,0.0974 c -1.60176,0.0945 -1.66151,0.13324 -2.07628,1.34438 -0.65585,1.91513 -1.15149,2.23632 -3.67067,2.3787 l -2.23873,0.12652 z m 0.13057,-5.880579 c -0.21963,-0.2647 -1.24502,-0.99512 -2.27865,-1.623166 -1.03364,-0.62804 -1.87933,-1.22812 -1.87933,-1.33352 0,-0.1054 0.23826,-0.45497 0.52947,-0.77683 0.50554,-0.558743 0.46401,-0.585203 -0.91857,-0.585203 h -1.44803 l -0.21907,1.680003 c -0.12049,0.924 -0.29861,2.003996 -0.39582,2.399996 -0.17539,0.714419 -0.14893,0.719999 3.41629,0.719999 3.16178,0 3.54511,-0.0578 3.19371,-0.481279 z m 4.80275,-0.23872 c 0.002,-0.396 0.0936,-1.475996 0.20452,-2.399996 l 0.20175,-1.680003 h -3.75053 -3.75052 l 2.42625,1.623153 c 2.42979,1.62551 2.75914,2.075886 2.04235,2.792846 -0.2986,0.298669 -0.0498,0.383999 1.11974,0.383999 1.34524,0 1.50395,-0.0759 1.50644,-0.719999 z m -4.00187,-7.159399 c -0.35192,-0.27445 -1.39568,-0.93161 -2.31947,-1.46037 -1.81192,-1.03709 -1.96496,-1.3345 -1.15013,-2.23507 0.50475,-0.55788 0.4683,-0.5852 -0.78095,-0.5852 -0.72072,0 -1.37623,0.108 -1.45669,0.24 -0.0805,0.132 -0.2497,1.212 -0.37608,2.4 l -0.22979,2.16 3.47648,-0.0102 c 3.21032,-0.009 3.4275,-0.0484 2.83663,-0.50918 z m 4.57298,-1.96064 0.094,-2.32 h -3.5912 -3.5912 l 2.04642,1.23768 c 2.44489,1.47866 2.8666,2.01942 2.29224,2.93932 -0.39653,0.6351 -0.35548,0.65562 1.12208,0.56111 l 1.53367,-0.0981 z m -38.18188,2.71215 c -0.0947,-0.24679 -0.12969,-1.58799 -0.0778,-2.98044 l 0.0944,-2.53171 4.23903,-0.0893 4.23903,-0.0893 v -1.43071 -1.43071 h 1.27971 1.27971 v 1.43071 1.43071 l 4.23903,0.0893 4.23903,0.0893 v 2.88 2.88 h -1.11974 -1.11975 l -0.096,-1.84 -0.096,-1.84 h -7.32634 -7.32638 l -0.096,1.84 c -0.0949,1.81997 -0.10729,1.84109 -1.13791,1.94044 -0.67301,0.0649 -1.10292,-0.0584 -1.21411,-0.34829 z m -80.50792,-5.11215 c -1.07482,-0.85112 -1.80875,-10.28829 -1.23811,-15.92 1.33396,-13.16504 6.63573,-24.26765 15.90748,-33.31234 3.48168,-3.39641 8.15791,-7.00766 9.07427,-7.00766 0.63856,0 1.07954,0.91595 0.78711,1.63492 -0.0996,0.24479 -1.1466,1.08734 -2.32673,1.87233 -3.23651,2.15284 -10.12597,9.19782 -12.51324,12.7957 -4.44757,6.70301 -7.16351,13.7084 -8.38079,21.61705 -0.52088,3.38414 -0.46162,12.15046 0.10324,15.26885 0.56411,3.1144 0.0549,4.21375 -1.41323,3.05115 z m 103.09327,-1.66321 c -0.29923,-0.36064 -0.29804,-1.149 0.005,-3.56034 0.52993,-4.21108 0.21431,-11.83047 -0.66179,-15.97645 -2.70877,-12.81871 -9.71896,-23.74952 -20.04519,-31.25592 -1.43648,-1.04422 -2.69869,-2.12507 -2.80488,-2.40189 -0.21829,-0.56897 0.33237,-1.38219 0.93593,-1.38219 0.88111,0 6.25519,4.19467 9.4294,7.36 11.31516,11.28349 17.10028,27.66448 15.34153,43.44066 -0.1898,1.7025 -0.4828,3.35282 -0.65111,3.66739 -0.36998,0.69146 -1.0275,0.7376 -1.5493,0.10874 z m 33.89832,-18.28545 c -1.14374,-0.24442 -3.44721,-1.11342 -5.11883,-1.93112 -2.58826,-1.26609 -3.46766,-1.91959 -5.92563,-4.40347 -4.29641,-4.34169 -6.37273,-8.82913 -6.74386,-14.57519 -0.44017,-6.81505 2.21313,-13.39318 7.32446,-18.1589 2.49516,-2.32645 5.4099,-4.03346 8.81091,-5.16008 2.12077,-0.70254 3.01571,-0.81251 6.61182,-0.81251 3.5961,0 4.49104,0.10997 6.61181,0.81251 3.85595,1.27733 6.52992,2.93741 9.42277,5.84998 2.11418,2.12858 2.87171,3.1767 4.07008,5.63139 3.30899,6.77801 3.31272,14.05632 0.0106,20.77605 -1.23991,2.5232 -1.96174,3.50798 -4.24608,5.79284 -2.29129,2.29181 -3.26122,3.00195 -5.79152,4.2403 -4.81314,2.35559 -9.97182,3.02054 -15.03656,1.9382 z m 3.83912,-4.41134 v -2.68 l -0.99977,-0.2 c -0.54987,-0.11 -1.44967,-0.203 -1.99954,-0.20667 -0.54988,-0.004 -1.93556,-0.20439 -3.0793,-0.44605 -1.14374,-0.24166 -2.11755,-0.40463 -2.16402,-0.36214 -0.0465,0.0425 0.52939,1.25701 1.2797,2.69895 1.32785,2.55183 1.40685,2.63376 2.96385,3.07354 0.8798,0.2485 2.03153,0.50912 2.55941,0.57915 0.52788,0.07 1.06776,0.1489 1.19973,0.17527 0.13197,0.0264 0.23994,-1.15805 0.23994,-2.63205 z m 5.64082,2.02768 1.96166,-0.37905 1.52366,-2.89044 1.52365,-2.89043 -0.9259,0.19676 c -0.82876,0.17611 -3.55566,0.62035 -6.44464,1.04989 l -1.03976,0.15459 v 2.7116 c 0,2.64098 0.0187,2.70788 0.71984,2.56886 0.39591,-0.0785 1.60258,-0.3133 2.68149,-0.52178 z m -16.05941,-4.69889 c -0.92341,-2.12465 -1.22403,-2.52316 -2.14365,-2.84161 -0.5883,-0.20372 -1.69781,-0.69095 -2.46558,-1.08272 l -1.39595,-0.71233 1.03473,1.30676 c 0.83555,1.05521 5.72602,5.80111 5.97782,5.80111 0.0367,0 -0.41665,-1.11205 -1.00737,-2.47121 z m 26.1013,-1.04879 c 1.35594,-1.32 2.62668,-2.7101 2.82388,-3.0891 0.32452,-0.6237 0.0961,-0.57278 -2.4072,0.53656 l -2.76574,1.22566 -1.0681,2.3065 c -0.58746,1.26857 -1.06811,2.36726 -1.06811,2.44153 0,0.44522 2.37263,-1.36451 4.48527,-3.42115 z m -15.68271,-7.2 v -5.6 h -5.77829 -5.77827 l 0.20095,1.52 c 0.30158,2.28109 0.81523,4.82179 1.31539,6.50639 l 0.44674,1.50466 2.47727,0.65481 c 3.05225,0.80679 3.67966,0.91559 5.59656,0.97056 l 1.51965,0.0436 z m 9.00239,4.60865 c 2.16576,-0.58451 2.61171,-0.82132 2.88141,-1.5301 0.5038,-1.32394 1.17639,-4.49599 1.41611,-6.67855 l 0.21967,-2 h -5.64005 -5.64004 v 5.64627 5.64628 l 2.1003,-0.19618 c 1.15516,-0.10789 3.25334,-0.50737 4.6626,-0.88772 z m -21.94823,-3.86393 c -0.23135,-0.99549 -0.5231,-2.8303 -0.6483,-4.07736 l -0.22765,-2.26736 h -2.73039 -2.7304 l 0.203,1.48136 c 0.47389,3.45823 0.6773,3.75374 3.67622,5.34069 1.51453,0.80145 2.7817,1.42917 2.81593,1.39493 0.0342,-0.0342 -0.12705,-0.87676 -0.35841,-1.87226 z m 34.02365,-2.7856 c 0.17973,-0.81352 0.41707,-1.94712 0.52742,-2.51912 l 0.20064,-1.04 h -3.22469 -3.22469 v 1.41185 c 0,0.77652 -0.21593,2.54052 -0.47984,3.92 -0.2639,1.37948 -0.47985,2.6256 -0.47989,2.76915 -3e-5,0.14355 1.42967,-0.48684 3.17711,-1.40088 3.15271,-1.6491 3.17969,-1.67327 3.50394,-3.141 z m -34.67727,-8.11912 c 0.21516,-1.95402 0.64279,-4.27804 1.00828,-5.47983 0.14571,-0.47908 -0.41153,-0.28659 -2.76797,0.95614 -3.20245,1.6889 -3.38386,1.92215 -3.72004,4.7832 l -0.20452,1.74049 h 2.73202 2.73201 z m 13.59946,-3.48641 v -5.48642 l -2.1595,0.18982 c -2.59571,0.22815 -7.15734,1.36829 -7.46471,1.86574 -0.27845,0.45066 -1.48677,5.75065 -1.72293,7.55727 l -0.17778,1.36 h 5.76246 5.76246 z m 13.29134,3.64641 c -0.25049,-2.10161 -0.93752,-5.28338 -1.40754,-6.51856 -0.2697,-0.70877 -0.71565,-0.94558 -2.88141,-1.5301 -1.40926,-0.38035 -3.50744,-0.77982 -4.6626,-0.88772 l -2.1003,-0.19617 v 5.48627 5.48628 h 5.63558 5.63558 z m 8.24578,0.32 c -0.40149,-2.9673 -0.40031,-2.96582 -3.78914,-4.76372 -1.74439,-0.92546 -3.22052,-1.63373 -3.2803,-1.57393 -0.0598,0.0598 0.11575,1.29213 0.39005,2.73853 0.27432,1.4464 0.49876,3.18991 0.49876,3.87447 v 1.24465 h 3.19315 3.19315 z m -3.26002,-8.65566 c -1.33842,-2.08625 -3.84718,-4.39722 -6.83327,-6.29458 -0.86655,-0.5506 -0.86263,-0.53194 0.50209,2.38802 l 1.37546,2.94294 2.53721,1.11413 c 1.39546,0.61276 2.67157,1.2447 2.83581,1.4043 0.72246,0.7021 0.50082,-0.12372 -0.4173,-1.55481 z m -30.18433,-0.70409 c 0.22547,-1.4e-4 0.49839,-0.25225 0.6065,-0.56025 0.10809,-0.308 0.67716,-1.61936 1.26461,-2.91413 l 1.06806,-2.35412 -1.19467,0.88273 c -2.40842,1.77957 -6.15354,5.77247 -6.15354,6.56067 0,0.15272 0.8998,-0.1481 1.99955,-0.66849 1.09975,-0.52039 2.18402,-0.94627 2.40949,-0.94641 z m 6.62844,-1.87225 c 1.23172,-0.19593 2.92333,-0.4397 3.75914,-0.54172 l 1.51965,-0.1855 v -2.97195 -2.97194 l -1.82749,0.28664 c -2.72391,0.42725 -3.31662,0.83462 -4.56511,3.13763 -1.70378,3.14284 -2.03289,3.94824 -1.53617,3.75926 0.22576,-0.0859 1.41826,-0.31649 2.64998,-0.51242 z m 14.31704,-2.368 c -1.75161,-3.29029 -2.27372,-3.70241 -5.05421,-3.98944 l -1.74455,-0.1801 v 2.89053 c 0,3.22742 0.0203,3.25606 2.34563,3.30986 0.73345,0.017 2.12535,0.21309 3.09313,0.43582 3.16689,0.72885 3.11309,0.82642 1.36,-2.46667 z m -77.79416,5.07019 c -0.59819,-0.63688 -0.66111,-0.88553 -0.36444,-1.44 0.37922,-0.70875 1.43417,-0.903 1.78863,-0.32935 0.13805,0.22342 0.41805,0.15307 0.8127,-0.20416 0.50175,-0.45418 0.68598,-0.47537 1.10545,-0.12716 0.99811,0.82854 1.11898,1.45831 0.42324,2.20527 -0.60576,0.65035 -0.7032,0.66615 -1.22048,0.19792 -0.50294,-0.45526 -0.60481,-0.45745 -0.96712,-0.0208 -0.54266,0.65402 -0.73061,0.62046 -1.57798,-0.28173 z m -17.80015,-3e-4 c -2.32158,-1.01145 -3.50975,-3.74816 -2.65705,-6.11996 0.42464,-1.18114 0.41496,-1.38165 -0.10832,-2.2435 -0.82544,-1.35951 -0.71553,-2.2138 0.40632,-3.15799 1.16694,-0.98214 2.08789,-1.0211 4.45443,-0.18844 0.96778,0.34051 2.29947,0.62381 2.95932,0.62955 0.87108,0.008 1.19973,0.1477 1.19973,0.51149 0,1.00166 -0.6476,1.6691 -1.83091,1.88701 -1.62779,0.29976 -3.91797,1.33117 -4.80359,2.16336 -0.45483,0.42739 -0.72382,1.0549 -0.72382,1.68859 0,1.98509 2.51042,3.2343 5.94544,2.95851 2.50352,-0.20101 2.91284,0.33127 1.16717,1.51775 -0.94711,0.64373 -1.56582,0.80124 -3.10781,0.79121 -1.0589,-0.007 -2.36432,-0.2038 -2.90091,-0.43758 z m -0.014,-9.8704 c -0.66165,-0.40285 -1.33603,0.0728 -1.47834,1.04264 l -0.13487,0.91911 1.00412,-0.86062 c 0.70887,-0.60756 0.88797,-0.93134 0.60909,-1.10113 z m -11.49467,7.99549 -0.84269,-0.72501 0.69075,-0.87835 0.69076,-0.87835 0.9339,0.66515 c 1.08076,0.76975 1.16764,1.27082 0.34885,2.01198 -0.74898,0.67798 -0.8146,0.67094 -1.82157,-0.19542 z m 29.44043,-0.77039 c -1.46504,-0.38576 -3.04168,-2.6355 -3.03753,-4.33431 0.004,-1.52768 0.65788,-3.1734 1.21837,-3.06523 0.4307,0.0831 0.53945,0.47176 0.53945,1.92797 0,2.11405 0.44213,2.73723 2.13719,3.01236 0.80221,0.13021 1.58986,-0.0261 2.69722,-0.5354 l 1.56413,-0.71931 -1.47566,-0.44151 c -2.01155,-0.60184 -2.65869,-1.36766 -2.38569,-2.82321 0.26309,-1.40269 1.88534,-3.30816 3.33072,-3.91222 0.96199,-0.40204 1.14379,-0.39229 1.67644,0.0899 0.81805,0.74049 1.009,1.49666 0.62985,2.49413 -0.37881,0.9966 -1.16885,1.10637 -1.45574,0.20227 -0.27305,-0.8605 -0.60138,-0.80832 -1.83152,0.29106 l -1.04179,0.93105 1.27669,0.23107 c 2.2769,0.41208 3.02378,1.00039 3.03019,2.38682 0.0116,2.50615 -4.02869,5.01334 -6.87232,4.26459 z m -16.08705,-1.5354 c -0.9999,-0.84155 -1.00954,-0.87523 -0.46518,-1.62423 0.6853,-0.94292 1.03951,-0.96717 1.93523,-0.1325 0.8489,0.79106 0.86242,0.99623 0.1256,1.90637 l -0.57457,0.70973 z m -30.68483,-0.47508 c -1.41459,-0.86274 -1.9642,-2.70924 -1.41734,-4.76183 0.48288,-1.81245 0.81635,-2.20311 1.43923,-1.68605 0.3513,0.29162 0.39587,0.63286 0.18069,1.38332 -0.35887,1.2516 -0.0802,2.41431 0.67556,2.81889 0.82492,0.44158 1.48396,0.38901 2.76893,-0.22089 l 1.12179,-0.53245 -0.22605,-4.66862 c -0.21789,-4.50023 -0.20152,-4.69083 0.45377,-5.28399 0.40078,-0.36278 0.7859,-0.49369 0.93825,-0.31893 0.45395,0.52071 1.04431,3.0158 0.80514,3.40288 -0.12685,0.2053 -0.24441,1.89433 -0.26124,3.75341 -0.0369,4.07915 -0.49874,5.20115 -2.51828,6.11827 -1.70809,0.77567 -2.68364,0.77468 -3.96045,-0.004 z m 14.73171,-1.0037 c -1.53019,-0.44339 -2.99182,-2.28705 -2.99182,-3.7738 0,-1.76005 0.59866,-3.29223 1.23671,-3.16515 0.35654,0.071 0.5318,0.45796 0.55092,1.21634 0.0517,2.05216 0.12792,2.23916 1.17169,2.87571 1.18147,0.72052 4.64693,0.87509 6.71846,0.29966 1.33949,-0.37207 1.41133,-0.56566 0.71199,-1.91835 -0.44106,-0.85312 -0.43754,-1.02 0.0368,-1.7441 0.28849,-0.4404 0.63431,-0.80072 0.76849,-0.80072 0.44762,0 1.01169,0.91614 1.41926,2.30513 0.52972,1.80523 0.13631,3.29889 -1.02508,3.89193 -2.03647,1.03987 -6.39323,1.45204 -8.59742,0.81335 z m -19.70965,-5.30899 c -0.14823,-4.48842 -0.0975,-5.45895 0.31891,-6.09454 0.27237,-0.41578 0.72631,-0.71159 1.00877,-0.65735 0.76205,0.14632 0.93455,10.20432 0.19438,11.33422 -1.11258,1.6984 -1.33695,1.02291 -1.52206,-4.58233 z m 13.51676,5.25858 c -0.1168,-5.20057 -0.35063,-9.95372 -0.50169,-10.19819 -0.10947,-0.17718 0.0473,-0.59441 0.34838,-0.92718 0.52467,-0.57989 0.51128,-0.60232 -0.32227,-0.53983 -0.7772,0.0583 -0.87983,-0.0538 -0.96499,-1.05375 -0.11283,-1.32493 0.22764,-2.059209 1.27221,-2.743799 0.98341,-0.6445 2.24025,-0.10754 1.98986,0.850149 -0.0993,0.37962 0.004,0.6126 0.27089,0.6126 0.79471,0 0.82984,0.62799 0.0773,1.38075 -0.55414,0.55428 -0.69016,0.9458 -0.529,1.52269 0.11933,0.42711 0.2313,2.69834 0.24884,5.04718 0.0262,3.50031 -0.0671,4.43827 -0.51697,5.2 -0.30189,0.51116 -0.73379,0.92938 -0.95979,0.92938 -0.226,0 -0.41172,-0.036 -0.41271,-0.08 z m 28.50957,-0.6835 c -0.53743,-0.57219 -0.69168,-1.06714 -0.61564,-1.97527 0.11283,-1.34752 0.73277,-1.8164 1.05577,-0.79851 0.3164,0.99712 1.17458,1.32041 2.51923,0.94905 0.64098,-0.17702 1.16541,-0.48957 1.16541,-0.69455 0,-0.20498 -0.80945,-1.12618 -1.79876,-2.04711 -1.53451,-1.42842 -1.76862,-1.79456 -1.59354,-2.49226 0.27486,-1.09539 1.0551,-1.04198 2.52887,0.1731 2.06838,1.70532 3.01255,4.42415 2.11738,6.09718 -0.8314,1.55385 -4.1965,2.04708 -5.37872,0.78837 z m 19.24189,0.27192 c -0.38592,-0.27037 -0.86616,-1.04073 -1.06721,-1.71191 -0.31556,-1.05353 -0.2742,-1.41281 0.30259,-2.62843 0.36747,-0.77444 0.80529,-1.62408 0.97293,-1.88808 0.16765,-0.264 0.38266,-0.732 0.47782,-1.04 0.24353,-0.78827 0.54189,-0.71201 2.21565,0.56629 1.81056,1.38278 2.43653,3.01017 1.87671,4.8791 -0.60108,2.00666 -3.13599,2.97375 -4.77849,1.82303 z m 2.93258,-2.26266 c 0.74437,-0.2857 0.62035,-0.8565 -0.39816,-1.83251 -0.85646,-0.82073 -0.92991,-0.83657 -1.391,-0.29987 -0.84814,0.9872 -0.96962,1.38202 -0.5725,1.86064 0.40123,0.48355 1.48493,0.60825 2.36166,0.27174 z m -3.4658,-6.86172 c -0.51332,-0.51775 -0.55332,-0.74808 -0.2468,-1.42098 0.39487,-0.86684 0.98818,-1.02627 1.58769,-0.42662 0.28852,0.28858 0.52315,0.24355 1.00537,-0.19295 0.6067,-0.54917 0.65842,-0.53997 1.45745,0.25923 0.79465,0.79483 0.80694,0.86141 0.30152,1.63295 -0.61083,0.93246 -0.86206,0.98842 -1.41978,0.31625 -0.36296,-0.43743 -0.46092,-0.43743 -0.94417,0 -0.688,0.62278 -0.98587,0.59407 -1.74128,-0.16788 z"
       id="path1" />
  </g>
</svg>
