<?xml version="1.0" encoding="UTF-8" standalone="no"?>
<!-- Created with Inkscape (http://www.inkscape.org/) -->

<svg
   version="1.1"
   id="svg1"
   width="416"
   height="320.32001"
   viewBox="0 0 416 320.32001"
   sodipodi:docname="web-development-pro.svg"
   inkscape:version="1.3.2 (091e20e, 2023-11-25)"
   xmlns:inkscape="http://www.inkscape.org/namespaces/inkscape"
   xmlns:sodipodi="http://sodipodi.sourceforge.net/DTD/sodipodi-0.dtd"
   xmlns:xlink="http://www.w3.org/1999/xlink"
   xmlns="http://www.w3.org/2000/svg"
   xmlns:svg="http://www.w3.org/2000/svg">
  <defs
     id="defs1">
    <linearGradient
       id="linearGradient1"
       inkscape:collect="always">
      <stop
         style="stop-color:#8a150f;stop-opacity:0.89999998;"
         offset="0"
         id="stop2" />
      <stop
         style="stop-color:#002d5b;stop-opacity:1;"
         offset="1"
         id="stop1" />
    </linearGradient>
    <linearGradient
       inkscape:collect="always"
       xlink:href="#linearGradient1"
       id="linearGradient2"
       x1="6.1485648"
       y1="184.49415"
       x2="407.37331"
       y2="184.49415"
       gradientUnits="userSpaceOnUse" />
  </defs>
  <sodipodi:namedview
     id="namedview1"
     pagecolor="#505050"
     bordercolor="#eeeeee"
     borderopacity="1"
     inkscape:showpageshadow="0"
     inkscape:pageopacity="0"
     inkscape:pagecheckerboard="0"
     inkscape:deskcolor="#505050"
     inkscape:zoom="0.73676322"
     inkscape:cx="207.66509"
     inkscape:cy="159.48136"
     inkscape:window-width="1456"
     inkscape:window-height="718"
     inkscape:window-x="0"
     inkscape:window-y="37"
     inkscape:window-maximized="0"
     inkscape:current-layer="g1" />
  <g
     inkscape:groupmode="layer"
     inkscape:label="Image"
     id="g1">
    <path
       style="fill:url(#linearGradient2)"
       d="m 68.480001,313.44031 v -6.5603 h 25.31447 25.314469 l -1.71447,-1.85239 c -2.84214,-3.07078 -4.37114,-6.59374 -4.89025,-11.26761 -0.1716,-1.5451 0.47056,-6.87954 1.90685,-15.84 l 0.20517,-1.28 -41.352439,0.0824 c -30.37634,0.0605 -41.46808,-0.0136 -41.78812,-0.27919 -0.3608,-0.29944 -0.43568,-4.67894 -0.43568,-25.48249 v -25.12091 l -7.50784,10.68009 c -4.12932,5.87405 -7.87138,10.95877 -8.3157,11.29937 -1.16362,0.89198 -4.21125,1.06202 -5.7707698,0.32198 -2.36758,-1.12349 -3.82431,-4.34924 -3.11848,-6.90552 0.16768,-0.60731 4.5003698,-7.06114 9.6281998,-14.34185 l 9.32331,-13.23764 -0.87936,-0.53626 c -1.90109,-1.15935 -1.89086,-1.27857 0.38673,-4.50863 1.15165,-1.63325 2.09391,-3.09657 2.09391,-3.25181 0,-0.15523 -0.35165,-0.74329 -0.78145,-1.30678 -1.42966,-1.87438 -3.40217,-6.24259 -4.24779,-9.40695 -0.71326,-2.66903 -0.83733,-3.80388 -0.84904,-7.76582 -0.0121,-4.08869 0.0899,-5.01693 0.85864,-7.81238 1.42481,-5.1815 3.8194,-9.44616 7.48452,-13.32956 l 1.68178,-1.78194 0.0867,-6.69806 0.0867,-6.69806 50.32,-0.081 50.319999,-0.081 v 27.68046 27.68046 l 1.55507,-1.11721 c 2.43264,-1.74767 4.05394,-2.33097 19.59294,-7.04898 l 14.58801,-4.42926 3.23358,-13.94174 3.23358,-13.94175 -0.82826,-0.64 c -3.65562,-2.82467 -5.21492,-5.36377 -5.21492,-8.49172 0,-1.34021 -0.54359,-2.47014 -5.16829,-10.743 l -5.16829,-9.24526 -0.0316,-3.68 c -0.05,-5.82846 1.09084,-9.1711 4.30182,-12.60364 1.0241,-1.09478 2.58126,-2.38197 3.46034,-2.86042 1.98114,-1.07828 5.48031,-1.98385 8.84602,-2.28933 2.51277,-0.22806 2.5911,-0.26169 4.24559,-1.82288 2.01146,-1.89803 5.32766,-3.50775 9.63637,-4.67759 2.83621,-0.77005 3.58087,-0.83585 9.47804,-0.83759 6.08678,-0.002 6.54017,0.0414 9.26421,0.88199 4.46747,1.37863 7.45767,3.09531 10.22164,5.86826 4.33724,4.35132 6.27344,9.42593 6.26547,16.4212 -0.006,5.47085 -1.22528,12.68894 -2.08716,12.35821 -0.30724,-0.11791 -0.47628,0.3352 -0.61922,1.65981 -2.06283,19.11612 -4.9688,29.12319 -10.0817,34.71752 -1.88259,2.05985 -3.92967,3.04697 -6.89258,3.32365 -1.96986,0.18395 -2.07043,0.23395 -2.06593,1.02709 0.007,1.31243 0.89244,4.73655 1.56208,6.0438 0.98495,1.92279 2.36448,3.42261 3.23319,3.51511 2.90458,0.30929 18.99713,3.78007 20.32,4.38255 1.83258,0.83461 4.34742,3.23748 5.16505,4.93506 0.67418,1.39977 14.85135,51.59178 14.66,51.9014 -0.0741,0.11988 -1.28904,0.40543 -2.69988,0.63454 -1.41084,0.22912 -2.56186,0.57063 -2.55782,0.75892 0.0115,0.53568 5.69305,25.50941 5.83592,25.65228 0.07,0.07 7.52596,-0.24011 16.56876,-0.68919 l 16.44145,-0.81651 2.22176,-1.82211 c 1.22197,-1.00217 3.17193,-2.59002 4.33326,-3.52856 1.16132,-0.93854 2.6701,-2.22155 3.35282,-2.85113 l 1.24133,-1.1447 4.05537,0.53113 c 2.23046,0.29213 4.62386,0.5331 5.31868,0.53551 1.99166,0.007 2.45221,0.26207 3.94788,2.18748 1.22558,1.57772 1.56091,1.81924 2.63129,1.89524 0.67469,0.0479 1.50927,0.1919 1.85463,0.32 0.34535,0.1281 2.00527,1.9379 3.68871,4.02177 3.3185,4.10788 3.52423,4.66573 2.39469,6.49337 -0.59116,0.95652 -0.82275,1.07777 -2.05858,1.07777 -1.26219,0 -1.50287,-0.13473 -2.57244,-1.44 -1.05504,-1.28754 -1.31989,-1.43927 -2.50143,-1.43308 -1.17373,0.006 -1.37511,0.12241 -1.80145,1.04 -0.41093,0.88442 -0.66787,1.04685 -1.78559,1.12882 -1.10838,0.0813 -1.5813,0.37435 -3.13084,1.94022 l -1.82524,1.84449 1.60817,0.75322 c 2.61324,1.22398 3.60265,4.089 2.01897,5.84633 -0.47906,0.53159 -0.16122,0.56 6.26493,0.56 h 6.7696 l 2e-5,-17.52 2e-5,-17.52 -32.16002,0.083 -32.16002,0.083 V 224.80297 186.56 h 65.76 65.76 v 38.24415 38.24414 l -23.20004,-0.0841 -23.20004,-0.0841 4e-5,17.52 4e-5,17.52 h 18.88 18.88 v 4.48 4.48 h 16.32663 16.32662 l -0.0866,6.48 -0.0866,6.48 -169.36,0.0803 -169.359999,0.0803 z m 143.535569,-7.31886 c 0.88856,-0.41376 3.60441,-2.21235 6.03521,-3.99687 2.4308,-1.78452 4.73117,-3.24457 5.11193,-3.24457 0.38076,0 4.14154,1.152 8.35729,2.56 4.21575,1.408 7.97584,2.56 8.35576,2.56 0.37992,0 1.15531,-0.19533 1.72308,-0.43406 l 1.03232,-0.43406 -7.31558,-4.49179 c -6.68451,-4.1043 -7.32397,-4.57402 -7.41281,-5.44509 -0.1129,-1.107 0.58062,-1.54697 1.58836,-1.00764 0.35462,0.18979 4.02309,2.426 8.15214,4.96936 4.12905,2.54336 7.74877,4.58357 8.04381,4.53379 0.29504,-0.0498 0.84934,-0.44779 1.23177,-0.88446 l 0.69533,-0.79395 -8.03748,-4.55059 c -4.42061,-2.50282 -8.13968,-4.80954 -8.2646,-5.12605 -0.39945,-1.01211 -0.29019,-1.35873 0.49003,-1.55455 0.59174,-0.14852 2.71,0.92325 9.47475,4.7939 4.79194,2.74185 8.76899,4.98519 8.83787,4.98519 0.0689,0 0.12525,-0.288 0.12525,-0.64 0,-0.352 -0.108,-0.60459 -0.24,-0.56132 -0.132,0.0433 -4.15208,-2.04289 -8.93351,-4.63592 -8.65684,-4.69472 -8.70272,-4.71481 -10.88,-4.76314 -3.7978,-0.0843 -6.75166,0.61474 -17.70038,4.18884 l -10.66514,3.48153 -30.27048,-4.45083 c -16.64877,-2.44796 -30.59449,-4.52745 -30.99049,-4.62109 -0.396,-0.0937 -0.72161,-0.34752 -0.72358,-0.56417 -0.002,-0.21665 0.59328,-4.46665 1.32279,-9.44444 0.72951,-4.9778 1.27112,-9.09497 1.20358,-9.14926 -0.0675,-0.0543 -5.16279,-2.152 -11.32279,-4.66156 -6.16,-2.50956 -11.2797,-4.6911 -11.37712,-4.84788 -0.0974,-0.15677 -1.30367,7.19788 -2.68057,16.34368 -2.07999,13.81595 -2.47749,17.0767 -2.35,19.27714 0.27833,4.80354 2.16862,8.51535 5.90685,11.59882 l 2.14537,1.7696 43.85773,-0.003 43.85774,-0.003 z m 22.77708,0.17853 1.99264,-0.55754 -4.99422,-1.6572 -4.99422,-1.65719 0.18754,1.36822 c 0.10314,0.75253 0.33429,1.75422 0.51365,2.22598 0.31569,0.83033 0.40567,0.8574 2.81404,0.84651 1.36836,-0.006 3.38461,-0.26213 4.48057,-0.56878 z M 267.52,303.50112 c 0,-2.44075 -0.10093,-3.31651 -0.36351,-3.15422 -0.19994,0.12357 -5.85194,1.63373 -12.56,3.35592 l -12.19649,3.13125 12.56,0.023 12.56,0.023 z m -2.2793,-4.98129 16.15748,-4.11793 6.42091,0.81763 c 8.94798,1.13942 12.67289,1.43658 13.36496,1.0662 0.74521,-0.39882 0.75612,-1.84087 0.0159,-2.10766 -0.308,-0.11101 -3.332,-1.72482 -6.72,-3.58624 -7.14478,-3.92544 -7.12372,-3.89567 -4.64,-6.56133 0.836,-0.89724 1.97009,-2.15577 2.5202,-2.79672 1.5776,-1.83814 1.86956,-1.80592 5.08781,0.56151 3.29115,2.42106 4.47027,3.00472 6.07023,3.00472 h 1.1388 l -3.36852,-4.4687 c -3.50189,-4.64563 -4.14278,-6.1144 -2.64852,-6.06983 0.54411,0.0162 1.47931,1.05845 3.8282,4.26631 2.95308,4.03297 3.15655,4.23774 4.07674,4.10269 1.06605,-0.15647 1.07941,-0.0995 -0.56111,-2.3943 -0.60511,-0.84645 -1.00814,-1.7355 -0.90664,-2 0.1005,-0.2619 0.0432,-0.47617 -0.12723,-0.47617 -0.17048,0 -0.3161,-0.18 -0.3236,-0.4 -0.008,-0.22 -0.56871,-1.03206 -1.24711,-1.80456 l -1.23346,-1.40457 -3.26562,-0.27613 c -1.7961,-0.15187 -4.05447,-0.39983 -5.01861,-0.55102 l -1.75298,-0.2749 -2.61429,2.11374 c -1.43786,1.16256 -2.68629,2.19208 -2.77429,2.28784 -0.088,0.0958 -1.40389,1.19147 -2.92419,2.43493 l -2.7642,2.26084 -2.6758,0.19882 c -5.4153,0.40236 -32.59462,1.60287 -32.75089,1.4466 -0.0888,-0.0888 -1.36336,-5.47824 -2.83235,-11.97653 -1.46899,-6.49829 -2.77739,-11.80382 -2.90754,-11.79008 -0.13015,0.0137 -3.47802,1.52574 -7.43971,3.36 l -7.20307,3.33502 0.18888,4.72 c 0.10388,2.596 0.28165,6.84977 0.39504,9.45282 l 0.20617,4.73282 3.55383,-0.0128 3.55383,-0.0128 9.31298,5.04953 c 9.46889,5.13406 10.04702,5.55421 10.04702,7.30141 0,1.18981 -0.94126,2.54131 -1.904,2.73386 -0.50405,0.10081 -1.39785,0.68853 -1.98622,1.30605 -0.9967,1.04606 -1.01638,1.10651 -0.28817,0.88484 0.42988,-0.13086 8.05247,-2.091 16.93909,-4.35587 z M 286.4,297.409 c -3.98961,-0.56976 -5.27342,-0.57182 -7.2,-0.0115 -1.5382,0.44734 -1.37134,0.46493 4.32,0.45549 l 5.92,-0.01 z m 13.57205,-10.84899 c -0.29883,-0.176 -1.67561,-1.148 -3.05949,-2.16 -1.38388,-1.012 -2.64638,-1.84 -2.80554,-1.84 -0.15917,0 -0.93706,0.75174 -1.72866,1.67054 l -1.43925,1.67054 3.41044,1.82879 3.41045,1.82879 1.3777,-1.33933 c 1.20974,-1.17605 1.31145,-1.37834 0.83435,-1.65933 z m 13.79676,-1.45425 c 0.26656,-0.43131 -4.5305,-6.34557 -5.50821,-6.79104 -1.28932,-0.58746 -1.18498,-0.0107 0.40356,2.23055 3.19206,4.50374 4.44687,5.62479 5.10465,4.56049 z M 115.04079,273.52001 c 0.10438,-0.572 0.75087,-4.77894 1.43663,-9.34875 1.33329,-8.88479 1.32469,-9.13125 -0.31861,-9.13125 -0.78428,0 -0.92492,0.16715 -1.25987,1.49735 -0.48897,1.94188 -1.45093,3.2651 -2.77623,3.81885 -0.8833,0.36907 -6.86172,0.4438 -35.504069,0.4438 -38.67657,0 -35.92615,0.1756 -37.42955,-2.38976 -1.56972,-2.67851 -0.56088,-6.66973 1.95117,-7.71933 0.90581,-0.37847 6.65148,-0.45091 35.76481,-0.45091 h 34.685619 l 1.09923,0.74595 1.09923,0.74596 5.04348,-17.46596 c 5.53643,-19.17304 6.56195,-21.88416 9.48983,-25.08773 L 129.92,207.43027 V 180.03514 152.64 h -48.479999 -48.48 v 4.94546 4.94545 l 0.80977,-0.80976 c 1.22445,-1.22446 6.98779,-3.84489 10.23244,-4.65242 4.0114,-0.99836 10.98558,-0.99524 14.68898,0.007 2.48378,0.67189 2.9946,0.68471 27.27352,0.68471 28.091429,0 26.651689,-0.12632 28.174379,2.47196 1.11707,1.90614 1.15267,3.76197 0.10883,5.67324 -1.37356,2.51495 -0.51218,2.4148 -20.769689,2.4148 h -17.94504 l 1.015,1.44 1.01501,1.44 h 17.07429 c 14.020619,0 17.229449,0.0802 17.941839,0.44863 1.25845,0.65077 2.42375,2.90628 2.42375,4.69131 0,1.82585 -1.30214,4.20806 -2.59227,4.74245 -0.64395,0.26673 -5.12026,0.34606 -16.020179,0.28389 l -15.12652,-0.0863 0.14847,0.8 c 0.78846,4.24851 0.21262,10.99108 -1.26396,14.8 -0.20493,0.52864 0.6547,0.56 15.34742,0.56 17.411289,0 16.997229,-0.0496 18.575349,2.22757 1.33222,1.92241 1.33222,4.18246 0,6.10486 -0.52017,0.7506 -1.4104,1.55887 -1.9783,1.79615 -0.82637,0.34528 -4.78834,0.43148 -19.842809,0.43171 l -18.81028,2.8e-4 -1.22658,1.26442 -1.22658,1.26441 8.32387,0.0953 c 9.37322,0.10732 9.36925,0.10634 10.84402,2.68539 0.91549,1.60097 0.91611,3.41327 0.002,5.24991 -1.34627,2.7044 0.10927,2.55894 -25.61243,2.55951 -19.68284,4.3e-4 -22.77978,-0.0636 -23.6,-0.48772 -0.51925,-0.26894 -0.9441,-0.62894 -0.9441,-0.80042 0,-0.73077 -0.67282,-0.20975 -1.45692,1.12822 -0.46414,0.792 -0.94856,1.44 -1.07648,1.44 -0.12793,0 -0.79564,-0.41983 -1.48382,-0.93294 l -1.25122,-0.93294 -0.88441,1.33294 -0.88441,1.33294 -10e-4,25.68 -0.001,25.68 h 40.9455 40.945499 z M 41.088991,233.92816 c -0.36906,-0.14921 -1.12506,-0.95677 -1.68,-1.79458 -1.13837,-1.71863 -1.35331,-3.85165 -0.52939,-5.25357 0.25859,-0.44 0.55473,-1.02702 0.65809,-1.30448 0.10335,-0.27746 0.64565,-0.78146 1.20511,-1.12 0.98362,-0.5952 1.96268,-0.61552 29.6572,-0.61552 23.1466,0 28.78222,0.0811 29.38148,0.42275 0.407809,0.23251 1.163809,1.0887 1.679999,1.90265 1.22135,1.92587 1.26231,3.78586 0.12608,5.7247 -1.47447,2.51598 0.72126,2.35231 -31.251669,2.32961 -15.71674,-0.0111 -28.87785,-0.14236 -29.2469,-0.29156 z m 21.47101,-23.52136 c 0.352,-0.0786 1.432,-0.64854 2.4,-1.26662 l 1.76,-1.12379 -12.27164,-0.008 c -13.80351,-0.009 -13.67038,0.0111 -15.17923,-2.31591 -1.25469,-1.93502 -1.21288,-4.1036 0.11788,-6.11267 0.7208,-1.08822 1.30336,-1.58196 2.16,-1.83066 0.78142,-0.22688 6.64778,-0.30858 17.57343,-0.24476 l 16.40045,0.0958 0.79141,-2.4 c 1.11396,-3.37812 1.56187,-6.72473 1.32771,-9.92 -0.31864,-4.3481 0.0441,-4.01607 -4.26085,-3.89986 -4.46357,0.12049 -5.25464,-0.14067 -6.41293,-2.11715 -1.11239,-1.89814 -1.13686,-3.88522 -0.0712,-5.7813 0.9327,-1.65971 2.01498,-2.28188 3.96909,-2.28188 0.80074,0 1.45199,-0.108 1.44723,-0.24 -0.005,-0.132 -0.5107,-0.78 -1.12431,-1.44 l -1.11564,-1.2 -14.1557,-0.0113 c -10.49231,-0.008 -14.33507,-0.11192 -14.84881,-0.4 -0.77755,-0.43599 -1.708,-1.55297 -2.38838,-2.86715 l -0.45481,-0.87849 -1.59184,1.12201 c -0.87552,0.61711 -2.05807,1.44443 -2.62789,1.8385 l -1.03604,0.71647 0.0142,19.04 0.0142,19.04 1.94881,1.41988 c 1.07185,0.78094 2.77389,1.86094 3.78232,2.4 l 1.83352,0.98012 10.67956,-0.0852 c 5.87376,-0.0469 10.96756,-0.14948 11.31956,-0.22804 z m -31.59469,-31.9268 -0.0853,-8.4 -1.58236,2.39243 c -5.76769,8.72041 -5.76769,20.09474 0,28.81515 l 1.58236,2.39242 0.0853,-8.4 c 0.0469,-4.62 0.0469,-12.18 0,-16.8 z M 191.8913,199.17925 c 1.33338,-0.27542 3.16831,-0.82978 4.07762,-1.23193 1.8898,-0.83575 5.95108,-3.37555 5.95108,-3.72161 0,-0.12708 0.31059,-0.31228 0.69021,-0.41155 0.66064,-0.17277 0.66711,-0.21205 0.151,-0.91733 -0.64494,-0.88134 -2.43331,-4.44346 -2.45845,-4.89683 -0.0269,-0.48444 -13.19788,-9.57821 -16.30276,-11.25604 -2.92928,-1.58295 -3.18762,-1.816 -3.1951,-2.88239 -0.009,-1.31535 1.07307,-1.17906 4.05238,0.51031 6.38217,3.61892 12.77837,5.80661 17.22272,5.89069 2.25244,0.0426 2.81183,-0.0704 4.65612,-0.94036 2.16586,-1.02169 3.26284,-2.1289 4.87675,-4.92221 3.08419,-5.33801 5.88688,-17.27395 6.97654,-29.71129 0.34393,-3.9256 0.3362,-4.61974 -0.054,-4.84288 -2.75076,-1.57319 -4.12353,-3.10254 -5.82179,-6.48583 -0.50798,-1.012 -0.97654,-1.84 -1.04123,-1.84 -0.62996,0 -26.18257,4.48349 -26.31662,4.61754 -0.0986,0.0986 -0.24756,3.85194 -0.3311,8.34083 -0.0868,4.66276 -0.27848,8.16163 -0.44718,8.16163 -0.16241,0 -0.2055,0.14529 -0.0957,0.32287 0.37762,0.611 -0.18548,1.59754 -0.90333,1.58261 -0.51999,-0.0108 -0.90283,-0.44001 -1.49844,-1.67986 -1.44851,-3.01529 -5.18921,-4.44325 -8.16,-3.11495 l -0.96,0.42923 1.20353,0.22025 c 1.52271,0.27866 1.55912,0.3208 1.7514,2.02665 0.25431,2.25624 -1.20819,3.33665 -3.25455,2.40426 -0.95458,-0.43493 -1.44781,-2.2653 -0.86284,-3.20199 0.20234,-0.32399 0.24918,-0.58907 0.1041,-0.58907 -0.14509,0 -0.61135,0.612 -1.03615,1.36 -1.03461,1.82179 -1.08808,4.94097 -0.11658,6.8 1.29951,2.4867 4.2769,3.84381 7.17558,3.27067 1.3385,-0.26466 1.71241,-0.2414 1.94172,0.12078 0.74586,1.17806 0.068,1.92161 -2.15672,2.36584 l -1.86832,0.37307 -0.38964,1.89482 c -0.2143,1.04215 -1.59415,7.21703 -3.06633,13.72195 l -2.6767,11.82713 1.88251,1.21673 c 4.1055,2.65351 8.46412,4.48349 12.35602,5.18772 3.29443,0.59612 5.06028,0.59624 7.94427,5.4e-4 z m 11.30663,-29.55824 c -1.1366,-0.34573 -2.60497,-1.13987 -3.38457,-1.83047 -1.1775,-1.04307 -2.69336,-3.38357 -2.69336,-4.15855 0,-0.62221 0.16568,-0.75199 0.96,-0.75199 0.64,0 0.96,0.16 0.96,0.48 0,1.48139 4.60925,4.32 7.01468,4.32 0.94313,0 1.45405,0.84007 1.0892,1.79087 -0.18858,0.49143 -2.53097,0.58056 -3.94595,0.15014 z m 2.70584,-6.98101 c -0.29602,-0.67741 -0.19191,-1.45039 0.23067,-1.71276 0.17076,-0.10602 1.30837,-0.3711 2.52802,-0.58906 1.21965,-0.21797 2.21754,-0.44298 2.21754,-0.50004 0,-0.0571 -1.20967,-2.27924 -2.68815,-4.93817 -2.79824,-5.0324 -3.07805,-6.09997 -1.59882,-6.09997 0.55655,0 0.87662,0.28299 1.20266,1.06332 0.24436,0.58482 1.59487,3.06882 3.00115,5.52 2.74107,4.77776 3.07796,5.53447 2.71585,6.10031 -0.1842,0.28785 -6.11262,1.71637 -7.12301,1.71637 -0.13266,0 -0.35133,-0.252 -0.48591,-0.56 z m 5.49269,-9.16836 c -0.61886,-1.30414 -0.64858,-2.10099 -0.12297,-3.29658 1.43593,-3.26629 4.00239,-0.14312 2.77521,3.37719 -0.28076,0.80539 -0.53048,1.00775 -1.24354,1.00775 -0.70019,0 -1.0034,-0.23426 -1.4087,-1.08836 z m -12.03316,-0.0255 c -0.9631,-1.79956 -0.10162,-5.28616 1.30613,-5.28616 1.38659,0 2.26773,2.95789 1.45826,4.89523 -0.40855,0.9778 -0.65615,1.18477 -1.41729,1.18477 -0.65432,0 -1.04568,-0.23062 -1.3471,-0.79384 z m -3.42684,-6.77634 c -0.5718,-1.49009 1.88079,-3.30847 4.46354,-3.30932 1.41537,-4.6e-4 1.52,0.0556 1.52,0.81405 0,0.448 -0.34161,1.15615 -0.75913,1.57367 -1.32457,1.32457 -4.83233,1.94335 -5.22441,0.9216 z m 17.01013,-0.0714 c -1.428,-0.64864 -2.48421,-1.97168 -2.18874,-2.74166 0.28906,-0.75329 2.81086,-0.64523 4.28562,0.18364 1.28311,0.72114 2.02141,1.87394 1.71371,2.6758 -0.25764,0.67138 -2.20582,0.61117 -3.81059,-0.11778 z m 73.79566,16.96315 c -0.18824,-0.35173 -0.34225,-1.00445 -0.34225,-1.4505 0,-0.55472 -0.13836,-0.7579 -0.43786,-0.64297 -0.24082,0.0924 -1.24785,-0.10543 -2.23785,-0.43965 l -1.79999,-0.60767 -0.7476,0.96942 -0.74759,0.96943 -1.10001,-0.67985 c -0.60501,-0.37392 -1.45506,-1.05777 -1.889,-1.51968 -0.77297,-0.82279 -0.7777,-0.85951 -0.23281,-1.80893 0.55306,-0.96365 0.54958,-0.97978 -0.61943,-2.87373 -1.05931,-1.71621 -1.2602,-1.88605 -2.03074,-1.71681 -1.13403,0.24907 -1.48619,-0.24259 -1.76027,-2.45755 -0.17361,-1.40302 -0.33078,-1.77626 -0.68994,-1.63843 -0.25981,0.0997 -0.87537,-0.21457 -1.39452,-0.71195 l -0.9294,-0.89042 -1.89152,0.84886 c -1.04034,0.46688 -2.33456,0.93747 -2.87605,1.04577 -0.92914,0.18583 -0.9899,0.28936 -1.07998,1.83999 l -0.0954,1.64309 -2.3496,0.0946 c -2.81311,0.11328 -3.2504,-0.15823 -3.2504,-2.01819 0,-1.30069 -0.0517,-1.3749 -1.09397,-1.57043 -0.60169,-0.11288 -1.90654,-0.6151 -2.89968,-1.11605 l -1.8057,-0.91081 -0.6805,0.92043 c -0.37428,0.50624 -0.93351,0.92043 -1.24273,0.92043 -0.83614,0 -3.46115,-2.88931 -3.47,-3.81937 -0.004,-0.42866 0.29095,-1.09698 0.65563,-1.48516 l 0.66304,-0.70578 -0.77936,-1.55484 c -0.42865,-0.85517 -0.95418,-2.09485 -1.16786,-2.75485 -0.36074,-1.11423 -0.4774,-1.2 -1.63243,-1.2 -1.56058,0 -1.90644,-0.57196 -1.90644,-3.15279 0,-2.69604 0.13888,-2.92721 1.75862,-2.92721 1.32995,0 1.37676,-0.0352 1.59518,-1.2 0.12377,-0.66 0.5948,-1.95525 1.04672,-2.87833 0.76943,-1.57158 0.78791,-1.71566 0.29059,-2.26519 -0.89148,-0.98508 -0.62706,-2.02036 0.93391,-3.65648 1.6025,-1.67966 2.17041,-1.84354 2.96936,-0.85687 l 0.53696,0.66312 2.3853,-1.14312 c 1.31192,-0.62872 2.71337,-1.14313 3.11433,-1.14313 0.59216,0 0.72903,-0.17532 0.72903,-0.93383 0,-1.82848 0.17415,-1.94617 2.88,-1.94617 2.69534,0 2.88,0.12216 2.88,1.90528 0,0.78761 0.14447,0.91603 1.22495,1.0888 0.67372,0.10774 2.07453,0.62442 3.11291,1.14819 1.87984,0.94821 1.89083,0.9496 2.55567,0.32502 0.9996,-0.93908 1.56654,-0.77899 3.16145,0.89271 1.61242,1.69005 1.78176,2.4216 0.80197,3.46454 l -0.66304,0.70578 0.79061,1.5602 c 0.43484,0.85811 0.95476,2.16979 1.15538,2.91484 0.34883,1.29547 0.41865,1.35464 1.5982,1.35464 1.47753,0 1.6219,0.27059 1.6219,3.04 0,2.82914 -0.12445,3.04 -1.79424,3.04 -1.0002,0 -1.40576,0.13093 -1.40576,0.45383 0,0.24961 -0.0897,0.71761 -0.19937,1.04 -0.1488,0.43748 -0.063,0.40353 0.33814,-0.13383 0.61876,-0.82881 1.52555,-0.93364 2.09902,-0.24266 0.34465,0.41527 0.52657,0.36736 1.39918,-0.36849 0.55167,-0.46521 1.46176,-1.03807 2.02243,-1.27303 0.80324,-0.33661 1.04074,-0.64597 1.12,-1.45893 0.0766,-0.78564 0.29142,-1.08437 0.9006,-1.25241 0.44,-0.12138 0.56341,-0.23504 0.27424,-0.25258 -0.28917,-0.0175 -0.60182,-0.2301 -0.69478,-0.47234 -0.0978,-0.25479 -0.48314,-0.38947 -0.91424,-0.3195 -0.9121,0.14804 -3.47646,-2.0612 -3.55168,-3.05983 -0.0273,-0.36313 -0.21968,-0.66023 -0.4274,-0.66023 -0.51578,0 -0.71343,-0.61945 -0.95738,-3.00057 -0.14015,-1.368 -0.0906,-2.10523 0.1515,-2.25487 0.19786,-0.12228 0.35974,-0.51027 0.35974,-0.86221 0,-0.57719 1.60171,-2.95741 2.4,-3.56651 0.176,-0.13429 0.55958,-0.18702 0.8524,-0.11717 0.3096,0.0738 0.59303,-0.10487 0.67728,-0.42704 0.23726,-0.9073 4.48649,-1.37647 4.81086,-0.53118 0.10603,0.2763 0.46957,0.38299 0.97551,0.28627 0.59258,-0.11327 1.08731,0.10902 1.86522,0.83808 0.5823,0.54573 1.16673,0.99291 1.29873,0.99372 0.132,8.2e-4 0.24,0.21748 0.24,0.48148 0,0.264 0.29486,0.77486 0.65525,1.13525 0.52871,0.52871 0.66347,1.10032 0.69784,2.96 0.0505,2.73305 -0.22805,3.76227 -1.51309,5.59071 -0.78904,1.12269 -1.1141,1.34665 -1.82529,1.25758 -0.67469,-0.0845 -0.88615,0.0375 -0.96,0.55404 -0.0719,0.50301 -0.40274,0.70925 -1.37471,0.85701 -0.97487,0.14821 -1.06626,0.20542 -0.38335,0.24 0.68954,0.0349 0.97394,0.26714 1.2313,1.00541 0.22977,0.65911 0.55051,0.96328 1.02335,0.97045 0.37879,0.006 1.45044,0.27356 2.38145,0.59514 1.64537,0.56833 1.70166,0.56804 2.01126,-0.0104 0.46666,-0.87197 1.44652,-0.72935 2.87475,0.41841 1.29517,1.04083 1.51971,1.74556 0.91573,2.8741 -0.26348,0.49233 -0.23435,0.7722 0.12272,1.17896 0.25752,0.29336 0.77593,1.14538 1.15201,1.89338 0.6065,1.20628 0.80896,1.36 1.79119,1.36 0.89133,0 1.13621,0.14049 1.25506,0.72 0.72632,3.54159 0.57201,4.4 -0.79094,4.4 -0.75703,0 -0.96858,0.16547 -1.12511,0.88 -0.10602,0.484 -0.38791,1.49167 -0.62642,2.23927 -0.40221,1.26072 -0.38868,1.38334 0.18667,1.69126 0.87694,0.46933 0.77961,1.73489 -0.25967,3.37628 -0.94541,1.49313 -1.57991,1.7032 -2.77644,0.91921 -0.70243,-0.46025 -0.83665,-0.43785 -1.96534,0.32811 -0.66629,0.45215 -1.54486,0.90578 -1.95237,1.00806 -0.58718,0.14737 -0.70225,0.34012 -0.5545,0.92879 0.3286,1.30926 -0.12505,2.0301 -1.40939,2.23947 -0.65008,0.10598 -1.56795,0.26422 -2.03971,0.35166 -0.63364,0.11744 -0.94717,-0.008 -1.2,-0.48053 z m 2.53775,-3.25162 c 0,-0.94346 0.15045,-1.34069 0.56,-1.47856 1.33987,-0.45105 3.20962,-1.43826 3.8448,-2.03001 0.81229,-0.75678 2.0754,-0.83591 2.63228,-0.16491 0.21749,0.26206 0.54493,0.38408 0.72766,0.27115 0.21231,-0.13121 0.16319,-0.33206 -0.13609,-0.55647 -0.85859,-0.6438 -0.93672,-1.51903 -0.28994,-3.2477 0.34764,-0.92916 0.7292,-2.42154 0.84791,-3.31641 0.21238,-1.60099 0.50673,-1.87125 1.81338,-1.66494 0.132,0.0208 0.24,-0.16334 0.24,-0.40929 0,-0.29486 -0.33012,-0.43111 -0.96915,-0.4 -0.88919,0.0433 -1.02963,-0.10013 -1.70211,-1.73826 -0.40312,-0.982 -1.14578,-2.3267 -1.65035,-2.98822 -0.8023,-1.05187 -0.87425,-1.3171 -0.57346,-2.11397 0.27386,-0.72554 0.25092,-0.94689 -0.11261,-1.08638 -0.2511,-0.0964 -0.5385,0.0384 -0.63867,0.29941 -0.23991,0.6252 -1.80628,0.60862 -3.04555,-0.0322 -0.53906,-0.27876 -1.7637,-0.58771 -2.72142,-0.68656 -1.59063,-0.16417 -1.75672,-0.2568 -1.91948,-1.0706 -0.21443,-1.07218 -1.34367,-1.21992 -1.16305,-0.15217 0.15657,0.92557 -0.10382,1.1687 -2.57944,2.40841 -1.20741,0.60463 -2.26681,1.28572 -2.35423,1.51354 -0.18963,0.49415 -2.33048,0.56335 -2.33048,0.0753 0,-0.18639 -0.13232,-0.25711 -0.29405,-0.15715 -0.16681,0.10309 -0.0876,0.59569 0.18318,1.13837 0.43583,0.87364 0.41969,1.11044 -0.18595,2.72916 -0.36475,0.97488 -0.66318,2.33282 -0.66318,3.01765 0,1.27514 -0.63413,2.25085 -1.46286,2.25085 -0.25143,0 -0.45714,0.144 -0.45714,0.32 0,0.176 0.49256,0.32 1.09457,0.32 0.94966,0 1.12178,0.12387 1.30007,0.9356 0.11302,0.51457 0.77246,1.74497 1.46543,2.73421 1.31994,1.88428 1.46308,2.39268 0.94579,3.35924 -0.23648,0.44188 -0.18961,0.63476 0.18961,0.78029 0.33324,0.12787 0.56052,-0.0238 0.67147,-0.44802 0.20404,-0.78026 1.42927,-0.85258 3.04027,-0.17946 0.60796,0.25402 1.84642,0.56015 2.75214,0.6803 1.55793,0.20667 1.6577,0.27671 1.84932,1.29815 0.29441,1.5693 1.09133,1.4157 1.09133,-0.21035 z m -4.18766,-5.09579 c -2.44884,-0.74212 -4.13234,-3.28029 -4.13234,-6.23022 0,-4.8213 4.24419,-7.82546 8.59574,-6.08432 1.29064,0.51641 3.00864,2.35898 3.56575,3.8243 0.40913,1.0761 0.40913,3.39605 0,4.47215 -0.55711,1.46531 -2.27511,3.30789 -3.56575,3.8243 -1.32521,0.53024 -3.09905,0.60726 -4.4634,0.19379 z m 4.53345,-2.7475 c 0.46635,-0.24116 1.08333,-0.93458 1.37106,-1.54093 1.43796,-3.03029 -0.46313,-6.0691 -3.79685,-6.0691 -2.56417,0 -4.32,1.66778 -4.32,4.10336 0,3.37854 3.48764,5.19152 6.74579,3.50667 z M 262.0849,150.16 c 0.007,-1.62963 0.30714,-1.99434 1.94668,-2.36272 0.77258,-0.17359 2.23783,-0.73899 3.25612,-1.25644 2.29823,-1.16788 3.05763,-1.17991 3.94858,-0.0626 0.69442,0.87089 0.70603,0.87312 1.37864,0.26441 l 0.67831,-0.61386 -0.80661,-0.84193 c -1.01184,-1.05613 -1.01241,-1.62966 -0.003,-3.15478 0.89055,-1.34572 2.07651,-4.47787 2.07651,-5.48413 0,-0.55466 0.20741,-0.648 1.44,-0.648 1.32267,0 1.44,-0.0652 1.44,-0.8 0,-0.71936 -0.12841,-0.8 -1.2739,-0.8 -1.12834,0 -1.29655,-0.10055 -1.47209,-0.88 -0.60685,-2.69453 -0.91566,-3.60222 -1.76128,-5.17682 -1.10518,-2.05794 -1.14104,-2.4802 -0.28776,-3.38846 l 0.64496,-0.68654 -0.68303,-0.61409 c -0.67563,-0.60743 -0.68825,-0.60628 -1.164,0.10591 -0.50374,0.7541 -2.10709,1.00808 -2.48666,0.39392 -0.32577,-0.52711 -3.15006,-1.8533 -4.83702,-2.2713 -1.7499,-0.4336 -2.0273,-0.70122 -2.03432,-1.96262 -0.004,-0.76335 -0.13215,-0.88 -0.9649,-0.88 -0.8968,0 -0.96,0.0794 -0.96,1.20565 v 1.20565 l -2.13279,0.55939 c -1.17304,0.30766 -2.8312,0.98912 -3.68481,1.51435 -1.85144,1.1392 -2.68281,1.19825 -3.45443,0.24534 -0.49179,-0.60733 -0.64909,-0.64781 -1.09129,-0.28082 -0.64577,0.53594 -0.65877,1.11415 -0.0367,1.63044 0.71852,0.59632 0.58508,1.62559 -0.45803,3.53307 -0.51591,0.94342 -1.11833,2.62243 -1.3387,3.73113 l -0.40068,2.0158 h -1.2213 c -1.08938,0 -1.22129,0.0864 -1.22129,0.8 0,0.71937 0.12841,0.8 1.2739,0.8 1.12915,0 1.29605,0.1 1.46874,0.88 0.43573,1.96801 0.89181,3.20229 1.77185,4.79516 1.10792,2.00531 1.14296,2.53212 0.23288,3.50087 -0.68126,0.72517 -0.68268,0.74826 -0.0863,1.4072 l 0.60629,0.66994 0.71099,-0.82658 c 0.89212,-1.03715 1.88417,-1.04936 3.65246,-0.045 0.75685,0.4299 2.28355,1.02727 3.39267,1.32749 l 2.01657,0.54586 v 1.55251 c 0,1.51167 0.0252,1.5525 0.96,1.5525 0.89513,0 0.96033,-0.0811 0.9649,-1.2 z m -3.16274,-4.24879 c -2.44527,-0.50862 -4.07342,-1.52392 -5.77427,-3.60076 -1.96837,-2.4035 -2.58789,-4.10969 -2.58789,-7.12722 0,-2.75449 0.54758,-4.44953 2.1507,-6.65748 1.49488,-2.05888 1.76483,-2.28803 3.9293,-3.33551 1.47584,-0.71422 2.20007,-0.85323 4.4857,-0.86099 2.44428,-0.008 2.94625,0.0993 4.86195,1.04192 2.32086,1.14201 3.51364,2.39988 4.95139,5.22161 0.75204,1.47595 0.88159,2.12375 0.89052,4.45292 0.009,2.43181 -0.0999,2.94935 -1.01291,4.8 -1.29981,2.63469 -2.90882,4.33388 -5.00481,5.28532 -1.90405,0.86432 -4.87035,1.20022 -6.88968,0.78019 z m 6.25981,-3.16935 c 4.35969,-2.06248 6.01027,-7.13674 3.76365,-11.57024 -2.11972,-4.18306 -7.15078,-5.72621 -11.71122,-3.59212 -5.06447,2.36995 -6.34265,8.93907 -2.61561,13.44284 0.31966,0.38629 1.42383,1.14229 2.4537,1.68 2.60575,1.36051 5.28954,1.37359 8.10948,0.0395 z m 9.69803,5.21896 c 0,-0.42521 -0.0869,-0.44708 -0.48,-0.12082 -0.264,0.2191 -0.48,0.45274 -0.48,0.51919 0,0.0664 0.216,0.12081 0.48,0.12081 0.264,0 0.48,-0.23363 0.48,-0.51918 z m 0.40491,-4.47178 c -1.19768,-0.90887 -1.74467,-0.0945 -0.69035,1.02775 l 0.74162,0.78942 0.25682,-0.69424 c 0.18632,-0.50369 0.10176,-0.8119 -0.30809,-1.12293 z m 11.23276,-12.31738 c 0.16349,-0.81744 0.32462,-0.93166 1.31433,-0.93166 0.68645,0 1.12992,0.15658 1.1329,0.4 0.004,0.28633 0.0852,0.27326 0.28732,-0.046 0.16705,-0.26382 0.14859,-0.82988 -0.0452,-1.38576 -0.41894,-1.20179 0.22911,-2.60573 1.09793,-2.37853 0.31627,0.0827 0.57283,0.0559 0.57014,-0.0597 -0.0115,-0.4952 -0.53652,-0.92654 -1.3787,-1.13279 -0.8238,-0.20174 -0.89554,-0.33295 -0.81232,-1.48558 0.0502,-0.69537 -0.0832,-1.43876 -0.2964,-1.65198 C 288.0882,122.2002 288,122.19936 288,122.49566 c 0,0.22182 -0.45021,0.384 -1.06593,0.384 -0.79416,0 -1.1695,-0.19353 -1.47217,-0.75908 -0.54846,-1.02481 -1.39127,-0.89281 -1.7819,0.27908 -0.34295,1.02887 -1.45979,1.44752 -2.20706,0.82734 -0.61386,-0.50946 -0.7687,-0.15489 -0.59713,1.36732 0.11405,1.01179 0.0131,1.51072 -0.38652,1.91034 -0.29749,0.29749 -0.65985,0.46736 -0.80525,0.3775 -0.14539,-0.0899 -0.18899,0.12482 -0.0969,0.47706 0.0921,0.35224 0.43362,0.64044 0.7589,0.64044 0.72929,0 1.37041,1.12005 1.14172,1.99458 -0.0934,0.35704 0.0381,0.85702 0.29215,1.11107 0.40255,0.40254 0.48675,0.39716 0.65523,-0.0419 0.11604,-0.30241 0.57446,-0.50378 1.14687,-0.50378 0.75549,0 1.02539,0.19028 1.29933,0.91604 0.44165,1.17008 1.37618,0.99624 1.63631,-0.30438 z m -2.76623,-0.98644 c -1.18044,-0.43077 -2.27497,-2.54992 -2.01791,-3.90694 0.104,-0.54905 0.53485,-1.43028 0.95745,-1.95828 0.67602,-0.84464 0.96791,-0.96 2.42902,-0.96 1.46111,0 1.753,0.11536 2.42902,0.96 1.62131,2.02571 1.10812,4.90439 -1.03388,5.79937 -1.20986,0.50551 -1.53751,0.51332 -2.7637,0.0658 z M 286.3455,127.44 c 0.59232,-1.15166 -0.69183,-2.30812 -1.8655,-1.68 -0.61317,0.32816 -0.87613,1.57721 -0.42667,2.02667 0.44072,0.44072 2.00921,0.2035 2.29217,-0.34667 z m 55.23117,25.12 c 0.12051,-0.924 0.29867,-2.004 0.39591,-2.4 0.15903,-0.64761 0.0592,-0.72 -0.99316,-0.72 h -1.16996 l 0.0953,-2 0.0953,-2 h 1.36428 c 1.45413,0 1.45882,-0.006 1.82228,-2.16 l 0.20244,-1.2 H 342.0945 340.8 V 140 137.92 h 1.5939 c 1.76611,0 1.67471,0.12811 2.16885,-3.04 l 0.24955,-1.6 1.87268,-0.0971 1.87267,-0.0971 -0.19025,1.05713 c -0.10463,0.58142 -0.28199,1.65336 -0.39412,2.38209 l -0.20387,1.32497 1.45624,0.11582 1.45624,0.11582 0.33905,-1.947 c 0.18648,-1.07085 0.33906,-2.18721 0.33906,-2.48079 0,-0.43985 0.34237,-0.53379 1.94543,-0.53379 h 1.94542 l -0.19266,0.88 c -0.10597,0.484 -0.30641,1.60123 -0.44542,2.48274 l -0.25276,1.60273 1.21999,-0.11634 1.22,-0.11635 v 2.1445 2.14449 l -1.56909,-0.11088 -1.56909,-0.11089 -0.28334,1.76 -0.28334,1.76 1.37243,-0.11222 1.37243,-0.11222 v 2.11222 2.11222 h -1.71473 -1.71474 l -0.41053,2.4 -0.41053,2.4 h -1.75607 -1.75607 l 0.21967,-1.9416 c 0.12082,-1.06789 0.29883,-2.14789 0.39557,-2.4 0.13816,-0.36003 -0.16594,-0.4584 -1.41711,-0.4584 h -1.59301 l -0.21912,1.68 c -0.41667,3.19469 -0.36068,3.12 -2.33925,3.12 h -1.76653 z m 8.25856,-9.52 0.17928,-1.12 -1.52999,0.10837 c -1.48658,0.1053 -1.53549,0.14162 -1.72373,1.28 -0.31077,1.87931 -0.28248,1.92892 1.15921,2.03323 1.47851,0.10698 1.54188,0.0308 1.91523,-2.3016 z M 92.308001,127.0746 c -0.1694,-0.16137 -2.972,-1.90178 -6.228,-3.86757 -3.256,-1.96578 -6.1089,-3.7576 -6.33978,-3.9818 -0.34276,-0.33285 0.81733,-1.17997 6.32196,-4.61644 3.70796,-2.31483 6.88486,-4.20879 7.05978,-4.20879 0.1768,0 0.31802,0.88821 0.318,2 l -4e-5,2 23.440039,-0.0892 c 12.89202,-0.0491 23.76404,-0.0103 24.16004,0.0861 0.70239,0.17104 0.72,0.28083 0.72,4.48923 V 123.2 H 117.61527 93.470541 l -0.0953,1.9746 c -0.0922,1.91142 -0.42793,2.50905 -1.06727,1.9 z m 35.692019,-24.4346 2e-5,-2 H 103.76002 79.520001 v -4.320003 -4.32 l 24.239999,-0.082 24.24,-0.082 v -1.86465 c 0,-1.02556 0.0821,-1.94677 0.18249,-2.04714 0.27457,-0.27458 13.41751,8.03616 13.41751,8.48436 0,0.40439 -12.49939,8.181903 -13.2,8.213453 -0.27926,0.0126 -0.39999,-0.5857 -0.39998,-1.98199 z M 318.4,96.171637 c 0,-0.2576 2.0349,-6.4496 4.52199,-13.76 l 4.52199,-13.29164 h 2.03801 c 1.62166,0 2.03801,0.10067 2.03801,0.49275 0,0.27101 -2.03519,6.46301 -4.52266,13.76 l -4.52265,13.26725 h -2.03735 c -1.57514,0 -2.03734,-0.10625 -2.03734,-0.46836 z m -90.73364,-3.32777 c -2.96917,-1.81066 -4.07145,-5.41976 -2.55107,-8.35281 0.23123,-0.44608 1.40688,-1.74144 2.61256,-2.87858 8.07342,-7.61445 7.87146,-7.39444 7.33346,-7.98892 -0.6556,-0.72443 -0.63794,-1.90219 0.0397,-2.65103 0.5168,-0.57106 0.40559,-0.73391 -2.48,-3.63174 -2.48736,-2.49792 -3.46788,-3.24358 -5.55032,-4.22091 -2.34903,-1.10245 -2.62836,-1.34164 -3.92,-3.35673 -0.76491,-1.19333 -1.38784,-2.49222 -1.38429,-2.88642 0.008,-0.86364 3.32315,-4.40459 4.10059,-4.37959 0.29313,0.009 1.52948,0.69343 2.74744,1.52 2.04116,1.38524 2.29481,1.68748 3.24073,3.86164 0.86743,1.99375 1.52576,2.85829 4.25403,5.58657 l 3.2278,3.22779 0.7521,-0.70657 c 0.9437,-0.88655 1.7478,-0.89616 2.66779,-0.0319 l 0.71817,0.67469 1.48226,-1.23469 c 1.24466,-1.03677 1.45012,-1.36293 1.2818,-2.03469 -0.11025,-0.44 -0.27682,-2.096 -0.37016,-3.68 -0.22001,-3.73367 0.45367,-5.67316 2.80625,-8.07905 2.35859,-2.41204 4.8822,-3.0894 8.56639,-2.29928 1.63821,0.35133 2.59836,1.25819 2.59836,2.45414 0,0.31807 -1.224,1.79596 -2.72,3.28419 -1.496,1.48823 -2.72,2.85643 -2.72,3.04044 0,0.44713 4.87706,5.27956 5.32832,5.27956 0.19479,0 1.30505,-1.008 2.46726,-2.24 2.21627,-2.34936 3.17211,-2.7466 4.18108,-1.73762 0.72206,0.72205 0.93091,1.85162 0.73724,3.98741 -0.32151,3.54568 -2.57511,7.03383 -5.3539,8.28683 -1.64126,0.74007 -5.30979,0.89859 -7.01764,0.30323 -0.97374,-0.33945 -1.10649,-0.28886 -2.30911,0.88 l -1.27597,1.24015 5.2816,5.12 c 5.7888,5.61168 6.25695,6.35188 5.8277,9.21429 -0.26448,1.7637 -2.06105,4.19568 -3.45962,4.68322 -1.26191,0.43991 -3.92714,0.4409 -4.828,0.002 -0.38443,-0.18738 -2.93096,-2.64981 -5.65896,-5.47207 l -4.96,-5.13139 -4.77846,5.12735 c -2.62815,2.82004 -5.11892,5.28247 -5.53505,5.47207 -1.237,0.56361 -4.27655,0.42158 -5.38013,-0.2514 z m 4.65364,-2.15346 0.8,-0.48692 -0.91222,0.19244 c -3.26346,0.68846 -5.5227,-3.12894 -3.66824,-6.19815 l 0.69954,-1.15778 -1.18058,1.12 c -1.40653,1.33435 -1.88929,2.7568 -1.46147,4.30621 0.60967,2.20805 3.74652,3.42716 5.72297,2.2242 z m 26.06134,-0.0504 c 0.80164,-0.3981 1.27769,-0.94562 1.64662,-1.8938 0.77471,-1.99105 0.29135,-2.98605 -3.07036,-6.32032 -1.58268,-1.56976 -2.8776,-2.77476 -2.8776,-2.67778 0,0.097 -1.764,-1.60539 -3.92,-3.78306 -2.156,-2.17767 -4.01118,-3.96067 -4.12263,-3.96222 -0.11145,-0.002 -1.19986,-1.00599 -2.41868,-2.23208 l -2.21604,-2.22926 -2.3461,2.36186 -2.3461,2.36186 0.60477,0.76518 c 1.55109,1.96248 15.99022,16.94505 16.8795,17.51478 1.24227,0.79589 2.70809,0.82909 4.18662,0.0948 z m -17.75678,-8.16844 1.3925,-1.52843 -2.56491,-2.63157 -2.56491,-2.63156 -2.40569,2.43444 c -1.32313,1.33894 -2.99876,2.91104 -3.72362,3.49355 -1.50699,1.21105 -1.70146,1.72199 -0.47844,1.25699 0.93498,-0.35548 2.5789,-0.13965 3.33392,0.43771 0.27137,0.20752 0.75404,0.93398 1.07259,1.61435 0.7058,1.50748 0.5162,2.74831 -0.66256,4.33623 -0.76993,1.03717 3.0976,-2.93616 6.60112,-6.78171 z m -7.75925,4.80844 c 0.54495,-1.1961 -0.0222,-2.16 -1.271,-2.16 -1.22558,0 -1.83431,0.47787 -1.83431,1.44 0,0.94854 0.60498,1.44 1.77264,1.44 0.73131,0 1.09388,-0.19589 1.33267,-0.72 z m 20.6408,-18.15519 c 0.22764,0.003 0.98989,0.21233 1.69389,0.46596 1.84306,0.66398 3.9282,0.58556 5.6,-0.21061 0.792,-0.37718 1.57784,-0.69802 1.74631,-0.71297 0.63424,-0.0563 2.12354,-3.01887 2.47931,-4.93192 0.55959,-3.00903 0.10426,-3.07966 -2.40206,-0.3726 -2.93085,3.16558 -3.22324,3.11894 -7.34356,-1.17147 -2.03951,-2.12371 -3.12,-3.49551 -3.12,-3.96121 0,-0.46339 0.96341,-1.69694 2.75628,-3.5291 l 2.75628,-2.81669 -1.36551,-0.36769 c -1.53519,-0.41339 -3.3839,-0.0868 -5.28928,0.93444 -2.94732,1.57967 -4.06376,5.55964 -2.81151,10.02265 0.44319,1.5795 0.45991,1.99957 0.10593,2.66099 -0.23119,0.43197 -0.559,0.78541 -0.72848,0.78541 -0.16948,0 -0.79716,0.51851 -1.39485,1.15224 l -1.0867,1.15224 1.52892,1.55954 c 0.84091,0.85775 1.67428,1.56324 1.85195,1.56776 0.17766,0.005 0.52189,0.32665 0.76495,0.71585 0.43629,0.69863 0.4636,0.68435 2.14308,-1.12 0.93564,-1.0052 1.88741,-1.82547 2.11505,-1.82282 z m -15.88481,-0.67928 c 0.12574,-0.20345 -1.22191,-1.80538 -3.16316,-3.76 -2.69505,-2.71362 -3.5569,-3.81185 -4.24193,-5.40534 -0.74758,-1.73901 -1.0942,-2.14342 -2.65795,-3.10114 l -1.79826,-1.10135 -0.88,0.84102 c -0.484,0.46255 -0.88,0.9522 -0.88,1.0881 0,0.48148 1.76028,3.15318 2.07767,3.15343 0.17728,1.4e-4 1.18633,0.41179 2.24233,0.91478 1.43326,0.68269 2.76692,1.77779 5.26077,4.31975 1.83742,1.87287 3.44892,3.40521 3.58111,3.40521 0.13219,0 0.33893,-0.1595 0.45942,-0.35446 z m 69.65682,18.02419 c -2.96443,-1.88833 -4.84972,-3.28687 -4.8,-3.56075 0.0809,-0.44552 9.58554,-6.74898 10.17645,-6.74898 0.16982,0 0.30543,1.20105 0.30543,2.70503 v 2.70503 l -1.52,0.68028 -1.52,0.68029 1.52,0.78082 1.52,0.78082 v 2.55387 c 0,1.83524 -0.11256,2.55097 -0.4,2.54359 -0.22,-0.006 -2.59684,-1.40964 -5.28188,-3.12 z m 29.04188,0.47332 v -2.65696 l 1.35703,-0.65724 1.35702,-0.65725 -1.35702,-0.6923 -1.35703,-0.6923 v -2.7135 c 0,-1.49242 0.0791,-2.7135 0.17578,-2.7135 0.33442,0 9.90508,6.15572 10.13265,6.51718 0.12563,0.19955 0.0536,0.52767 -0.16,0.72915 -0.64518,0.60847 -9.52636,6.19367 -9.84873,6.19367 -0.16484,0 -0.2997,-1.19563 -0.2997,-2.65695 z M 115.11851,71.057107 c -3.04892,-1.93357 -3.92124,-4.59311 -3.68804,-11.24418 0.11659,-3.32524 0.26596,-4.2848 0.8571,-5.50593 1.35367,-2.7963 3.53317,-4.06155 7.00271,-4.06521 2.09688,-0.002 3.62466,0.61523 4.90909,1.984 1.21202,1.2916 2.51328,3.9454 2.5175,5.13421 0.003,0.87373 -0.0123,0.88 -2.16515,0.88 h -2.16828 l -0.63172,-1.36 c -0.51266,-1.10368 -0.85284,-1.41463 -1.80497,-1.6499 -1.47237,-0.36381 -2.92123,0.18041 -3.42524,1.28659 -0.48112,1.05594 -0.47249,8.16962 0.0112,9.2312 0.46732,1.02567 2.3468,1.65977 3.66939,1.238 0.62978,-0.20084 1.11619,-0.7154 1.54962,-1.6393 l 0.63172,-1.34659 h 2.16828 c 2.15282,0 2.16826,0.006 2.16515,0.88 -0.004,1.15241 -1.30058,3.83899 -2.41129,4.99667 -1.35147,1.40862 -3.20378,2.10827 -5.60293,2.11631 -1.77917,0.006 -2.3229,-0.13602 -3.58414,-0.93587 z M 134.4,71.643137 c -1.62605,-0.48982 -3.061,-1.69263 -4.07287,-3.41398 -0.87822,-1.494 -0.88713,-1.56539 -0.88713,-7.10916 0,-5.12832 0.0582,-5.70781 0.69069,-6.88 0.37988,-0.704 1.10193,-1.6704 1.60454,-2.14757 2.81684,-2.6742 8.90825,-2.35621 11.14936,0.58203 1.58004,2.07154 1.75592,2.92814 1.74838,8.51527 -0.006,4.37528 -0.10151,5.41541 -0.59663,6.49027 -0.73146,1.58797 -1.859,2.80776 -3.26982,3.53732 -1.28943,0.66679 -4.78946,0.90088 -6.36652,0.42582 z m 5.04,-5.57018 c 0.66403,-0.76423 0.72,-1.13943 0.72,-4.82669 0,-2.8792 -0.13074,-4.25087 -0.46718,-4.90148 -1.05367,-2.03757 -4.79275,-1.59969 -5.57813,0.65324 -0.46292,1.32794 -0.45729,6.93214 0.008,8.26775 0.69886,2.00475 3.85955,2.48458 5.31701,0.80718 z m 8.72,-4.95296 v -10.56 l 5.04,0.007 c 5.79094,0.008 6.93238,0.32815 8.67168,2.43165 1.52157,1.84016 1.70923,2.87827 1.59286,8.81109 l -0.10454,5.32976 -0.98699,1.39024 c -0.62297,0.87748 -1.61783,1.7148 -2.69738,2.27024 -1.6468,0.84728 -1.89267,0.88 -6.61301,0.88 H 148.16 Z m 8.71057,5.74578 c 1.90709,-0.52965 2.16943,-1.19185 2.16943,-5.47615 0,-2.06138 -0.14308,-4.1243 -0.31796,-4.58427 -0.41407,-1.08909 -2.06582,-1.76536 -4.31176,-1.76536 H 152.64 v 6.08 6.08 l 1.52,-0.002 c 0.836,-9.8e-4 2.05575,-0.15057 2.71057,-0.33243 z M 167.04,61.119997 v -10.56 h 7.2 7.2 v 2.24 2.24 h -4.96 -4.96 v 1.92 1.92 h 4.16 4.16 v 2.24 2.24 h -4.16 -4.16 v 1.92 1.92 h 4.96 4.96 v 2.24 2.24 h -7.2 -7.2 z m -63.6727,4.48189 c -2.72399,-1.73695 -4.989649,-3.27595 -5.034799,-3.41999 -0.0451,-0.14404 0.0236,-0.41158 0.1527,-0.59452 0.34382,-0.48707 9.511929,-6.22738 9.946029,-6.22738 0.24756,0 0.36877,0.83945 0.36877,2.55387 v 2.55387 l -1.51893,0.77194 -1.51894,0.77194 1.51894,0.73796 1.51893,0.73795 v 2.65624 c 0,1.46093 -0.108,2.64723 -0.24,2.63623 -0.132,-0.011 -2.46872,-1.44115 -5.1927,-3.17811 z m 80.3127,0.57612 v -2.69048 l 1.52,-0.75257 1.52,-0.75258 -1.51358,-0.67119 -1.51358,-0.67119 -0.006,-2.58666 c -0.004,-1.42267 0.0774,-2.67054 0.17996,-2.77305 0.20414,-0.20414 10.37666,6.11265 10.36872,6.43862 -0.003,0.1106 -0.1107,0.36487 -0.24,0.56505 -0.23749,0.36766 -9.07853,6.11 -9.88148,6.41812 -0.34364,0.13187 -0.43362,-0.39191 -0.43362,-2.52407 z"
       id="path1" />
  </g>
</svg>
