<svg width="1000" height="1000" xmlns="http://www.w3.org/2000/svg"><ellipse style="fill:#002d5b;fill-opacity:1;fill-rule:evenodd;stroke-width:2.38061" cx="500" cy="500" rx="500" ry="495.536"/><ellipse style="fill:#fff;fill-opacity:1;fill-rule:evenodd;stroke-width:2.10883" cx="471.816" cy="526.219" rx="462.243" ry="475.301" transform="rotate(-3.089) skewX(.056)"/><path style="fill:#002d5b;fill-opacity:1;stroke:#fff;stroke-opacity:1" d="M175.972 396.194c-13.82-.754-30.906-4.147-45.637-9.061-23.507-7.841-44.209-19.608-63.628-36.166l-5.93-5.057 42.597-.407c42.943-.41 48.456-.7 60.598-3.188 8.738-1.79 14.066-3.572 21.099-7.058 13.186-6.535 21.073-14.115 27.066-26.014 5.946-11.805 8.238-28.642 5.82-42.746-2.323-13.543-12.537-27.907-23.472-33.006-2.651-1.237-4.826-2.4-4.833-2.585-.007-.186 1.561-1.054 3.486-1.93 4.2-1.91 11.84-9.45 15.008-14.812 5.706-9.652 7.4-21.393 5.186-35.921-3.924-25.732-19.076-41.156-47.376-48.23-15.718-3.927-25.997-4.423-91.818-4.43-29.608-.004-53.833-.239-53.833-.522 0-.967 8.03-14.96 12.28-21.396 15.692-23.77 38.504-45.193 63.226-59.377 22.597-12.964 46.826-20.929 73.143-24.043 8.716-1.032 35.096-.83 44.555.342 48.583 6.015 93.477 31.221 124.126 69.693 21.012 26.375 34.463 57.583 39.348 91.293 1.8 12.424 1.966 37.99.326 50.337-5.453 41.071-23.136 77.784-51.655 107.247-33.036 34.13-77.268 54.549-123.682 57.097-12.383.68-12.46.68-26-.06zm70-248.074c11.579-2.432 22.145-12.265 26.375-24.544 1.87-5.424 2.111-15.838.49-21.04-5.058-16.226-19.23-26.984-35.505-26.95-10.32.022-18.587 3.504-26.038 10.97-5.454 5.464-7.844 9.602-9.67 16.744-3.939 15.399 2.103 31.015 15.42 39.857 8.324 5.527 18.186 7.22 28.928 4.963zM74.305 276.243V260.91h24.688c26.725 0 27.073.041 30.888 3.698 7.086 6.791 5.255 21.87-3.116 25.671-2.583 1.173-4.661 1.27-27.627 1.283l-24.833.014zm0-82.333v-14.334H96.66c23.536 0 25.201.187 28.525 3.192 6.41 5.797 5.033 19.63-2.407 24.165-2.015 1.23-3.484 1.305-25.306 1.307l-23.167.002z" transform="matrix(2.07972 0 0 2.13835 85.353 54.873)"/></svg>