<svg width="100" height="100" xmlns="http://www.w3.org/2000/svg"><g style="display:inline"><path d="M22.729 27.254c1.913 3.968 4.275 8.904 5.243 10.983 4.417 9.565 6.094 11.856 14.242 19.461 3.283 3.07 4.63 4.937 5.598 7.7.59 1.724.637 2.173.637 5.314 0 3.118-.07 3.59-.66 5.314-.355 1.04-.804 2.126-.993 2.41l-.33.542h14.643V72.98c0-3.306-.118-6.825-.26-7.841-.543-3.92-2.315-8.384-4.487-11.36-1.252-1.7-3.402-3.85-6.472-6.472-4.676-4.015-6.896-7.014-10.014-13.486-1.016-2.125-3.637-7.463-5.787-11.88-2.172-4.416-5.455-11.077-7.274-14.832L23.469.314l-6.81.015C12.927.338 9.816.291 9.822.314c4.246 9.022 8.567 17.96 12.907 26.94Z" style="fill:#fff;fill-opacity:1;stroke-width:.0236183"/><path d="M52.516.317s-.805.332-2.85 3.27c-2.372 3.43-4.088 7.682-4.652 11.606-.352 2.373-.37 6.28.03 8.511 1.128 6.415 5.075 12.641 10.361 16.377 2.139 1.527 4.37 2.631 8.576 4.276 5.522 2.185 8.341 4.23 10.668 7.754 2.232 3.383 3.195 6.555 3.195 10.62 0 9.116-5.075 17.387-13.299 21.64-7.095 3.665-16.306 3.853-23.449.47-6.625-3.15-11.16-8.107-14.074-15.39l-.399-.987h-6.461c-5.545 0-6.462.047-6.462.352 0 .682 2.397 7.096 3.525 9.446 5.498 11.372 16.376 19.313 28.9 21.099 2.913.4 8.411.446 11.395.094 2.867-.353 7.777-1.621 10.315-2.702 2.35-.987 6.954-3.666 8.717-5.099 2.02-1.621 5.098-4.934 6.743-7.237 1.903-2.631 4.394-7.518 5.334-10.432 1.362-4.158 2.033-8.95 1.785-12.687-.551-8.317-4.038-16.192-9.469-21.311-3.568-3.363-6.555-5.169-11.56-7.002-3.783-1.386-5.643-2.415-7.589-4.23-2.918-2.72-4.32-5.754-4.558-9.867-.09-1.574.05-2.377.3-3.577.385-1.855 2.194-5.892 3.454-7.707 2.372-3.42 5.806-5.588 9.498-7.254z" style="fill:#fff;fill-opacity:1;stroke-width:.0234959"/><path d="M76.27 2.775a683.561 683.561 0 0 0-4.197 7.609c-1.465 2.711-3.04 5.553-3.499 6.34-.437.788-1.377 2.471-2.055 3.761l-1.268 2.362h6.34c5.16 0 6.385-.066 6.582-.306.153-.175.678-1.072 1.203-2.034a233.78 233.78 0 0 1 1.53-2.798c2.536-4.526 4.023-7.216 5.488-9.949.94-1.75 2.274-4.132 2.974-5.291.721-1.18 1.29-2.187 1.29-2.252 0-.066-2.886-.11-6.428-.11h-6.45z" style="fill:#fff;fill-opacity:1;stroke-width:.0218648"/></g></svg>