<?xml version="1.0" encoding="UTF-8" standalone="no"?>
<!-- Created with Inkscape (http://www.inkscape.org/) -->

<svg
   width="1000"
   height="1000"
   viewBox="0 0 264.58333 264.58333"
   version="1.1"
   id="svg1"
   xmlns="http://www.w3.org/2000/svg"
   xmlns:svg="http://www.w3.org/2000/svg">
  <defs
     id="defs1" />
  <g
     id="layer1">
    <g
       id="g10"
       transform="translate(286.99683,-70.318732)"
       style="stroke:#000000;stroke-opacity:1;fill:#000000;fill-opacity:1;stroke-width:0.52916667;stroke-dasharray:none">
      <path
         d="m -134.42425,110.04799 c -6.85934,1.79577 -14.08739,4.26081 -19.18351,9.19081 -5.5639,5.38253 -8.9128,13.07368 -10.72279,20.60047 -1.34161,5.57903 -1.48236,11.70872 0.13662,17.21366 3.5325,12.0114 9.83637,24.49985 20.0826,31.74051 4.14403,2.96002 8.47021,5.10035 16.62165,8.28806 10.70161,4.23511 16.16626,8.19698 20.6746,15.02779 4.32618,6.55759 6.19327,12.70532 6.19327,20.58353 0,17.66904 -9.83637,33.69869 -25.77494,41.94121 -13.75271,7.10404 -31.60391,7.46835 -45.44769,0.91077 -12.84194,-6.10219 -21.63092,-15.71087 -27.27773,-29.82789 l -0.77416,-1.91263 h -12.52316 c -10.74715,0 -12.52316,0.0911 -12.52316,0.68308 0,1.32062 4.64495,13.75271 6.83081,18.30659 10.65608,22.04076 31.74053,37.43286 56.01269,40.89381 5.64681,0.77416 16.30288,0.86524 22.08631,0.18216 5.55573,-0.68309 15.07333,-3.14218 19.99152,-5.23696 4.55387,-1.91263 13.47947,-7.10405 16.89488,-9.88192 3.916331,-3.14217 9.881911,-9.56314 13.069631,-14.02594 3.68864,-5.10034 8.51575,-14.5724 10.3373,-20.21921 2.64125,-8.06036 3.96187,-17.35027 3.46095,-24.59094 -1.0474,-16.12072 -8.39353,-29.99865 -18.35213,-41.30366 -5.771581,-6.5519 -14.856111,-9.18287 -22.405071,-13.57054 -4.85278,-2.82058 -10.52801,-4.4521 -14.70903,-8.19699 -4.31557,-3.86539 -9.54814,-8.39286 -10.0755,-14.16238 -0.57893,-6.33368 3.14202,-13.26052 8.05881,-17.29486 4.8174,-3.95279 11.93023,-4.53741 18.16091,-4.43494 5.1956,0.0854 13.27326,2.19956 15.668311,6.81099 l 5.87882,11.3191 16.92689,-2.2511 -3.63225,-15.28882 c -2.08745,-4.63068 -4.98075,-9.08172 -8.77649,-12.45707 -3.81923,-3.39624 -8.65454,-5.62215 -13.480131,-7.30577 -5.00215,-1.74522 -10.36166,-2.47324 -15.6516,-2.76291 -5.26243,-0.28816 -10.67874,-0.30279 -15.77723,1.03199 z"
         id="path2"
         style="fill:#000000;fill-opacity:1;stroke:#000000;stroke-width:0.52916667;stroke-dasharray:none;stroke-opacity:1" />
      <path
         d="m -230.4073,110.9677 c 0,0.18215 15.48318,32.51468 24.81862,51.77758 3.68865,7.65051 8.24252,17.16811 10.10961,21.17553 8.51575,18.4432 11.74901,22.86046 27.45988,37.52394 6.32989,5.92004 8.9256,9.51761 10.79269,14.84564 1.13847,3.32433 1.22955,4.18957 1.22955,10.24622 0,6.01112 -0.13662,6.9219 -1.27509,10.24623 -0.68308,2.0037 -1.54831,4.09849 -1.91263,4.64495 l -0.63754,1.04739 h 14.11702 14.11702 v -11.56684 c 0,-6.37543 -0.22769,-13.16071 -0.50093,-15.11888 -1.04739,-7.55943 -4.4628,-16.16626 -8.65236,-21.90414 -2.41356,-3.2788 -6.55759,-7.42282 -12.47763,-12.47763 -9.01667,-7.74159 -13.29732,-13.52501 -19.30843,-26.00263 -1.95817,-4.09849 -7.01298,-14.39026 -11.157,-22.90601 -4.18957,-8.51575 -10.51946,-21.35768 -14.02595,-28.59834 l -6.42096,-13.06963 h -13.16071 c -7.19512,0 -13.11516,0.0911 -13.11516,0.13662 z"
         id="path1"
         style="fill:#000000;fill-opacity:1;stroke:#000000;stroke-width:0.52916667;stroke-dasharray:none;stroke-opacity:1" />
    </g>
  </g>
</svg>
