<?xml version="1.0" encoding="UTF-8" standalone="no"?><!--Created with Inkscape (http://www.inkscape.org/)--><svg width="101.83418mm" height="113.50267mm" viewBox="0 0 360.82976 402.17482" id="svg3476" version="1.1" inkscape:version="1.3.2 (091e20e, 2023-11-25)" sodipodi:docname="CSS3_logo.svg" xmlns:inkscape="http://www.inkscape.org/namespaces/inkscape" xmlns:sodipodi="http://sodipodi.sourceforge.net/DTD/sodipodi-0.dtd" xmlns="http://www.w3.org/2000/svg" xmlns:svg="http://www.w3.org/2000/svg" xmlns:rdf="http://www.w3.org/1999/02/22-rdf-syntax-ns#" xmlns:cc="http://creativecommons.org/ns#" xmlns:dc="http://purl.org/dc/elements/1.1/"><defs id="defs3478"><inkscape:path-effect effect="powerclip" id="path-effect4" is_visible="true" lpeversion="1" inverse="true" flatten="false" hide_clip="false" message="Use fill-rule evenodd on &lt;b&gt;fill and stroke&lt;/b&gt; dialog if no flatten result after convert clip to paths."/><clipPath clipPathUnits="userSpaceOnUse" id="clipPath3"><rect style="display:none;opacity:0.5;fill:#0054a8;stroke:#ffffff;stroke-width:15.9803" id="rect4" width="506.25003" height="112.5" x="-53.938427" y="-24.107149"/><path id="lpe_path-effect4" style="opacity:0.5;fill:#0054a8;stroke:#ffffff;stroke-width:15.9803" class="powerclip" d="M 69.633,-5 H 442.367 V 517 H 69.633 Z"/></clipPath><clipPath clipPathUnits="userSpaceOnUse" id="clipPath2"><rect style="opacity:0.5;fill:#0054a8;stroke:#ffffff;stroke-width:15.9803" id="rect2" width="362.08264" height="402.17484" x="73.380112" y="109.00065"/></clipPath></defs><sodipodi:namedview id="base" pagecolor="#ffffff" bordercolor="#666666" borderopacity="1.0" inkscape:pageopacity="0.0" inkscape:pageshadow="2" inkscape:zoom="1.04099" inkscape:cx="235.35288" inkscape:cy="158.02265" inkscape:document-units="px" inkscape:current-layer="layer1" showgrid="false" fit-margin-top="0" fit-margin-left="0" fit-margin-right="0" fit-margin-bottom="0" inkscape:window-width="1472" inkscape:window-height="842" inkscape:window-x="0" inkscape:window-y="37" inkscape:window-maximized="0" inkscape:showpageshadow="0" inkscape:pagecheckerboard="0" inkscape:deskcolor="#505050"/><metadata id="metadata3481"><rdf:RDF><cc:Work rdf:about=""><dc:format>image/svg+xml</dc:format><dc:type rdf:resource="http://purl.org/dc/dcmitype/StillImage"/></cc:Work></rdf:RDF></metadata><g inkscape:label="Calque 1" inkscape:groupmode="layer" id="layer1" transform="translate(-193.633,-385.36285)"><g id="g3013" transform="translate(119,276.3622)" clip-path="url(#clipPath2)" inkscape:path-effect="#path-effect4"><polygon id="polygon2989" points="404.321,470.819 255.778,512 107.644,470.877 74.633,100.62 437.367,100.62 " style="fill:#264de4" d="M 404.321,470.819 255.778,512 107.644,470.877 74.633,100.62 h 362.734 z"/><polygon id="polygon2991" points="256,130.894 256,480.523 376.03,447.246 404.27,130.894 " style="fill:#2965f1" d="M 256,130.894 V 480.523 L 376.03,447.246 404.27,130.894 Z"/><polygon id="polygon2993" points="256,313.627 256,268.217 150.31,268.217 154.38,313.627 " style="fill:#ebebeb" d="m 256,313.627 v -45.41 H 150.31 l 4.07,45.41 z"/><polygon id="polygon2995" points="255.843,176.305 142.132,176.305 146.26,221.716 256,221.716 256,176.305 " style="fill:#ebebeb" d="M 255.843,176.305 H 142.132 l 4.128,45.411 H 256 v -45.411 z"/><polygon id="polygon2997" points="156.409,336.333 162.771,407.634 255.791,433.457 256,433.399 256,386.153 255.801,386.206 205.227,372.55 201.994,336.333 177.419,336.333 " style="fill:#ebebeb" d="m 156.409,336.333 6.362,71.301 93.02,25.823 0.209,-0.058 v -47.246 l -0.199,0.053 -50.574,-13.656 -3.233,-36.217 h -24.575 z"/><path id="path2999" d="m 160,0 h 55 v 23 h -32 v 23 h 32 v 23 h -55 z" inkscape:connector-curvature="0" inkscape:original-d="m 160,0 h 55 v 23 h -32 v 23 h 32 v 23 h -55 z"/><path id="path3001" d="m 226,0 h 55 v 20 h -32 v 4 h 32 V 70 H 226 V 49 h 32 v -4 h -32 z" inkscape:connector-curvature="0" inkscape:original-d="m 226,0 h 55 v 20 h -32 v 4 h 32 V 70 H 226 V 49 h 32 v -4 h -32 z"/><path id="path3003" d="m 292,0 h 55 v 20 h -32 v 4 h 32 V 70 H 292 V 49 h 32 v -4 h -32 z" inkscape:connector-curvature="0" inkscape:original-d="m 292,0 h 55 v 20 h -32 v 4 h 32 V 70 H 292 V 49 h 32 v -4 h -32 z"/><polygon id="polygon3005" points="360.291,280.411 361.399,268.217 369.597,176.305 255.843,176.305 255.843,221.716 319.831,221.716 315.699,268.217 255.843,268.217 255.843,313.627 311.761,313.627 306.49,372.521 255.843,386.191 255.843,433.435 348.937,407.634 349.62,399.962 " style="fill:#ffffff" d="m 360.291,280.411 1.108,-12.194 8.198,-91.912 H 255.843 v 45.411 h 63.988 l -4.132,46.501 h -59.856 v 45.41 h 55.918 l -5.271,58.894 -50.647,13.67 v 47.244 l 93.094,-25.801 0.683,-7.672 z"/></g></g></svg>