<?xml version="1.0" encoding="UTF-8" standalone="no"?>
<svg
   version="1.0"
   width="968.67456pt"
   height="1200pt"
   viewBox="0 0 968.67456 1200"
   preserveAspectRatio="xMidYMid"
   id="svg3"
   sodipodi:docname="logo-colored.svg"
   inkscape:version="1.3.2 (091e20e, 2023-11-25)"
   xmlns:inkscape="http://www.inkscape.org/namespaces/inkscape"
   xmlns:sodipodi="http://sodipodi.sourceforge.net/DTD/sodipodi-0.dtd"
   xmlns="http://www.w3.org/2000/svg"
   xmlns:svg="http://www.w3.org/2000/svg">
  <defs
     id="defs3" />
  <sodipodi:namedview
     id="namedview3"
     pagecolor="#505050"
     bordercolor="#eeeeee"
     borderopacity="1"
     inkscape:showpageshadow="0"
     inkscape:pageopacity="0"
     inkscape:pagecheckerboard="0"
     inkscape:deskcolor="#505050"
     inkscape:document-units="pt"
     inkscape:zoom="0.17285156"
     inkscape:cx="633.49153"
     inkscape:cy="781.01696"
     inkscape:window-width="1312"
     inkscape:window-height="769"
     inkscape:window-x="0"
     inkscape:window-y="37"
     inkscape:window-maximized="0"
     inkscape:current-layer="svg3" />
  <g
     transform="matrix(0.2824124,0,0,-0.2824124,-954.55391,2013.6004)"
     fill="#000000"
     stroke="none"
     id="g3"
     style="fill:#002d5b;fill-opacity:1">
    <path
       d="m 3380,7127 c 0,-4 340,-714 545,-1137 81,-168 181,-377 222,-465 187,-405 258,-502 603,-824 139,-130 196,-209 237,-326 25,-73 27,-92 27,-225 0,-132 -3,-152 -28,-225 -15,-44 -34,-90 -42,-102 l -14,-23 h 310 310 v 254 c 0,140 -5,289 -11,332 -23,166 -98,355 -190,481 -53,72 -144,163 -274,274 -198,170 -292,297 -424,571 -43,90 -154,316 -245,503 -92,187 -231,469 -308,628 l -141,287 h -289 c -158,0 -288,-2 -288,-3 z"
       id="path1"
       style="fill:#002d5b;fill-opacity:1" />
    <path
       d="m 5152,7120 c -37,-9 -36,-8 -123,-133 -101,-146 -174,-327 -198,-494 -15,-101 -14,-283 3,-378 48,-273 216,-538 441,-697 91,-65 186,-112 365,-182 235,-93 355,-180 454,-330 95,-144 136,-279 136,-452 0,-388 -216,-740 -566,-921 -302,-156 -694,-164 -998,-20 -282,134 -475,345 -599,655 l -17,42 h -275 c -236,0 -275,-2 -275,-15 0,-29 102,-302 150,-402 234,-484 697,-822 1230,-898 124,-17 358,-19 485,-4 122,15 331,69 439,115 100,42 296,156 371,217 86,69 217,210 287,308 81,112 187,320 227,444 58,177 87,381 76,540 -23,354 -172,689 -403,907 -152,143 -279,220 -492,298 -161,59 -240,103 -323,180 -124,116 -183,245 -194,420 -3,67 0,117 11,168 16,79 93,251 147,328 73,107 246,247 351,284 26,9 51,20 55,23 9,10 -725,7 -765,-3 z"
       id="path2"
       style="fill:#002d5b;fill-opacity:1" />
    <path
       d="m 6152,7008 c -38,-68 -125,-224 -192,-348 -67,-124 -139,-254 -160,-290 -20,-36 -63,-113 -94,-172 l -58,-108 h 290 c 236,0 292,3 301,14 7,8 31,49 55,93 23,43 55,101 70,128 116,207 184,330 251,455 43,80 104,189 136,242 33,54 59,100 59,103 0,3 -132,5 -294,5 h -295 z"
       id="path3"
       style="fill:#002d5b;fill-opacity:1" />
  </g>
</svg>
