<svg xmlns="http://www.w3.org/2000/svg" style="display: none;">
  <defs>
  <!-- <symbol id="web-bites-fake" viewBox="0 0 24 24">
    <path d="M12 2C6.48 2 2 6.48 2 12s4.48 10 10 10 10-4.48 10-10S17.52 2 12 2zm-1 15H9v-2h2v2zm0-4H9v-2h2v2zm0-4H9V7h2v2zm4 8h-2v-2h2v2zm0-4h-2v-2h2v2zm0-4h-2V7h2v2z"/>
  </symbol> -->

  <!-- <symbol id="portfolio-icon" viewBox="0 0 24 24">
    <path d="M2 3h20v18H2V3zm2 2v14h16V5H4zm2 2h4v2H6V7zm6 0h6v2h-6V7zm-6 4h4v2H6v-2zm6 0h6v2h-6v-2z"/>
  </symbol> -->

  <!-- <symbol id="header-logo" viewBox="0 0 24 24">
    <path d="M12 0L0 12l12 12 12-12z" fill="currentColor"/>
    <circle cx="12" cy="12" r="4" fill="currentColor"/>
  </symbol> -->

  <!-- <symbol id="web-bites" viewBox="0 0 1000 1000">
    <ellipse
      style="fill:#002d5b;fill-rule:evenodd;stroke-width:2.38061"
      cx="500"
      cy="500"
      rx="500"
      ry="495.53571" />
    <ellipse
      style="fill:#ffffff;fill-rule:evenodd;stroke-width:2.10883"
      cx="471.81577"
      cy="526.21887"
      rx="462.24335"
      ry="475.3006"
      transform="matrix(0.99854686,-0.05389036,0.05486282,0.9984939,0,0)" />
    <g transform="matrix(2.0797181,0,0,2.1383517,85.353445,54.873465)">
      <path
        d="m 175.97176,396.1944 c -13.81953,-0.75483 -30.90529,-4.14728 -45.63704,-9.06142 -23.50673,-7.84126 -44.208574,-19.60827 -63.627424,-36.16611 l -5.93113,-5.05728 42.597804,-0.40665 c 42.94256,-0.40994 48.45563,-0.69994 60.59779,-3.18754 8.73807,-1.79019 14.06653,-3.57263 21.09906,-7.05792 13.18617,-6.53501 21.07323,-14.11554 27.06651,-26.01455 5.94579,-11.80474 8.23784,-28.64159 5.81912,-42.746 -2.32249,-13.5433 -12.5367,-27.90677 -23.47148,-33.00615 -2.65107,-1.23632 -4.82607,-2.3996 -4.83334,-2.58508 -0.007,-0.18548 1.5618,-1.05386 3.4868,-1.92974 4.19864,-1.91038 11.83864,-9.45057 15.00778,-14.81171 5.70551,-9.65186 7.40047,-21.39357 5.18536,-35.92131 -3.92339,-25.73149 -19.07535,-41.15637 -47.37576,-48.22915 -15.71792,-3.92818 -25.99637,-4.42427 -91.817394,-4.43156 -29.60833,-0.003 -53.83333,-0.23786 -53.83333,-0.5213 0,-0.96693 8.03077,-14.95941 12.28015,-21.39642 15.69162,-23.769835 38.50362,-45.193005 63.22617,-59.376825 22.596104,-12.96385 46.825764,-20.9284 73.142864,-24.04287 8.7159,-1.03147 35.09549,-0.82889 44.5545,0.34216 48.58347,6.01475 93.47756,31.22117 124.12645,69.69256 21.01218,26.375105 34.46284,57.583165 39.34765,91.293915 1.80027,12.42393 1.96613,37.98886 0.32657,50.33615 -5.4538,41.07177 -23.13646,77.78455 -51.65563,107.24753 -33.03601,34.1293 -77.26756,54.54854 -123.68204,57.09711 -12.38304,0.67993 -12.45923,0.67976 -26.00001,-0.0598 z m 70.00001,-248.0745 c 11.57882,-2.43204 22.14558,-12.26487 26.37555,-24.54363 1.86878,-5.42471 2.11118,-15.83827 0.48974,-21.03995 -5.05812,-16.226815 -19.23058,-26.984365 -35.50536,-26.950195 -10.32014,0.0217 -18.58659,3.50435 -26.038,10.96988 -5.45327,5.4636 -7.84325,9.60199 -9.66984,16.743885 -3.93841,15.39907 2.10294,31.01514 15.41926,39.85668 8.32503,5.52751 18.18696,7.21953 28.92865,4.96333 z M 74.305086,276.24293 V 260.9096 h 24.68809 c 26.724514,0 27.073204,0.0418 30.888304,3.6985 7.08513,6.79104 5.25434,21.87033 -3.11672,25.67085 -2.58291,1.17265 -4.66095,1.26913 -27.626334,1.28267 l -24.83334,0.0147 z m 0,-82.33333 v -14.33333 h 22.35475 c 23.536454,0 25.201274,0.1863 28.525134,3.19209 6.4103,5.79689 5.0328,19.62877 -2.40655,24.16477 -2.01579,1.22909 -3.48457,1.30497 -25.306664,1.30731 l -23.16667,0.002 z"
        fill="currentColor" stroke="currentColor" />
    </g>
  </symbol> -->
  
  <!-- <symbol id="github" viewBox="0 0 16 16">
    <path d="M8 0C3.58 0 0 3.58 0 8c0 3.54 2.29 6.53 5.47 7.59.4.07.55-.17.55-.38 0-.19-.01-.82-.01-1.49-2.01.37-2.53-.49-2.69-.94-.09-.23-.48-.94-.82-1.13-.28-.15-.68-.52-.01-.53.63-.01 1.08.58 1.23.82.72 1.21 1.87.87 2.33.66.07-.52.28-.87.51-1.07-1.78-.2-3.64-.89-3.64-3.95 0-.87.31-1.59.82-2.15-.08-.2-.36-1.02.08-2.12 0 0 .67-.21 2.2.82.64-.18 1.32-.27 2-.27.68 0 1.36.09 2 .27 1.53-1.04 2.2-.82 2.2-.82.44 1.1.16 1.92.08 2.12.51.56.82 1.27.82 2.15 0 3.07-1.87 3.75-3.65 3.95.29.25.54.73.54 1.48 0 1.07-.01 1.93-.01 2.2 0 .21.15.46.55.38A8.01 8.01 0 0 0 16 8c0-4.42-3.58-8-8-8Z"/>
  </symbol> -->
  
  <!-- <symbol id="linkedin" viewBox="0 0 16 16">
    <path d="M0 1.146C0 .513.526 0 1.175 0h13.65C15.474 0 16 .513 16 1.146v13.708c0 .633-.526 1.146-1.175 1.146H1.175C.526 16 0 15.487 0 14.854V1.146zm4.943 12.248V6.169H2.542v7.225h2.401zm-1.2-8.212c.837 0 1.358-.554 1.358-1.248-.015-.709-.52-1.248-1.342-1.248-.822 0-1.359.54-1.359 1.248 0 .694.521 1.248 1.327 1.248h.016zm4.908 8.212V9.359c0-.216.016-.432.08-.586.173-.431.568-.878 1.232-.878.869 0 1.216.662 1.216 1.634v3.865h2.401V9.25c0-2.22-1.184-3.252-2.764-3.252-1.274 0-1.845.7-2.165 1.193v.025h-.016a5.54 5.54 0 0 1 .016-.025V6.169h-2.4c.03.678 0 7.225 0 7.225h2.4z"/>
  </symbol> -->

  <symbol id="ys-logo" viewBox="0 0 100 100">
    <g fill="currentColor">
      <path
        d="m 22.729013,27.254261 c 1.913082,3.967876 4.274913,8.904102 5.243264,10.982517 4.416634,9.565426 6.093531,11.856396 14.241856,19.4615 3.282941,3.070386 4.62919,4.936227 5.597541,7.699576 0.590453,1.724137 0.637694,2.172887 0.637694,5.314124 0,3.117618 -0.07083,3.589978 -0.661314,5.314116 -0.354278,1.039212 -0.803027,2.125655 -0.991971,2.409071 l -0.330658,0.543222 h 7.321679 7.321687 v -5.99905 c 0,-3.306571 -0.118092,-6.825697 -0.259805,-7.841289 C 60.305764,61.217404 58.534395,56.753547 56.361509,53.777633 55.109732,52.077117 52.960465,49.92785 49.890089,47.306214 45.213658,43.291097 42.993531,40.291572 39.875913,33.820153 38.860331,31.694507 36.238695,26.356762 34.089428,21.940136 31.916541,17.523511 28.633591,10.863138 26.814981,7.1078272 l -3.345807,-6.79408166 -6.810072,0.015625 C 12.927421,0.33793249 9.8161836,0.29125445 9.8218851,0.31416672 14.068413,9.3364234 18.388687,18.274945 22.729013,27.254261 Z" />
      <path
        d="m 52.515775,0.31675835 c 0,0 -0.805006,0.33239049 -2.849143,3.26937025 -2.373077,3.4303948 -4.088274,7.6831334 -4.652177,11.6069424 -0.35244,2.373077 -0.37008,6.27906 0.02931,8.511172 1.127806,6.414351 5.075105,12.64075 10.361662,16.376585 2.138124,1.527234 4.370225,2.63154 8.575976,4.276249 5.52152,2.185113 8.341024,4.22925 10.667112,7.753622 2.232101,3.383395 3.195432,6.555338 3.195432,10.620113 0,9.116379 -5.075094,17.386915 -13.298641,21.639665 -7.095738,3.665347 -16.306105,3.853311 -23.448835,0.469915 C 34.470645,81.691949 29.935955,76.734331 27.022474,69.450626 l -0.399438,-0.98683 h -6.461351 c -5.54501,0 -6.461352,0.04704 -6.461352,0.352439 0,0.681379 2.396576,7.095742 3.524371,9.445319 5.498033,11.37198 16.376598,19.313576 28.899872,21.099261 2.913491,0.399429 8.411512,0.446419 11.39548,0.09398 2.866492,-0.352428 7.777121,-1.62121 10.314673,-2.702017 2.349577,-0.986819 6.954766,-3.665347 8.716952,-5.098593 2.020637,-1.621209 5.098593,-4.934128 6.743302,-7.236717 1.903161,-2.631529 4.393725,-7.518669 5.333556,-10.432149 1.362758,-4.158762 2.033333,-8.951183 1.785686,-12.68775 -0.55121,-8.316815 -4.03813,-16.191968 -9.468819,-21.310714 -3.568217,-3.363256 -6.555519,-5.168589 -11.559955,-7.001766 -3.783003,-1.385754 -5.64352,-2.415201 -7.589157,-4.22925 -2.918014,-2.720661 -4.320261,-5.755233 -4.55819,-9.868246 -0.091,-1.573168 0.05032,-2.376805 0.299603,-3.577042 0.385122,-1.854288 2.194233,-5.8910785 3.453884,-7.706633 2.372561,-3.41961 5.8065,-5.587931 9.498166,-7.25435761 z" />
      <path
        d="m 76.270832,2.7748748 c -0.830863,1.48681 -2.733102,4.897721 -4.198046,7.6089582 -1.46494,2.711232 -3.039205,5.553656 -3.498367,6.340791 -0.437295,0.787135 -1.377484,2.470722 -2.055293,3.760746 l -1.268158,2.361401 h 6.340795 c 5.160092,0 6.384523,-0.06559 6.581304,-0.306108 0.153054,-0.174919 0.677809,-1.071376 1.202565,-2.033427 0.502893,-0.940184 1.202564,-2.208346 1.530538,-2.798696 2.53632,-4.526015 4.023126,-7.215385 5.488066,-9.9484842 0.940188,-1.749186 2.27394,-4.132448 2.973615,-5.291289 0.721537,-1.180698 1.290025,-2.18648102 1.290025,-2.25207002 0,-0.0656 -2.886156,-0.10933 -6.428255,-0.10933 h -6.450117 z" />
    </g>
  </symbol>
  </defs>
</svg>