<?xml version="1.0" encoding="UTF-8" standalone="no"?>
<!-- Created with Inkscape (http://www.inkscape.org/) -->

<svg
   version="1.1"
   id="svg1"
   width="1000"
   height="1000"
   viewBox="0 0 1000 1000"
   xmlns="http://www.w3.org/2000/svg"
   xmlns:svg="http://www.w3.org/2000/svg">
  <defs
     id="defs1" />
  <ellipse
     style="fill:#002d5b;fill-opacity:1;fill-rule:evenodd;stroke-width:2.38061"
     id="path3"
     cx="500"
     cy="500"
     rx="500"
     ry="495.53571" />
  <ellipse
     style="fill:#ffffff;fill-opacity:1;fill-rule:evenodd;stroke-width:2.10883"
     id="path2"
     cx="471.81577"
     cy="526.21887"
     rx="462.24335"
     ry="475.3006"
     transform="matrix(0.99854686,-0.05389036,0.05486282,0.9984939,0,0)" />
  <g
     id="g1"
     transform="matrix(2.0797181,0,0,2.1383517,85.353445,54.873465)">
    <path
       style="fill:#002d5b;fill-opacity:1;stroke:#ffffff;stroke-opacity:1"
       d="m 175.97176,396.1944 c -13.81953,-0.75483 -30.90529,-4.14728 -45.63704,-9.06142 -23.50673,-7.84126 -44.208574,-19.60827 -63.627424,-36.16611 l -5.93113,-5.05728 42.597804,-0.40665 c 42.94256,-0.40994 48.45563,-0.69994 60.59779,-3.18754 8.73807,-1.79019 14.06653,-3.57263 21.09906,-7.05792 13.18617,-6.53501 21.07323,-14.11554 27.06651,-26.01455 5.94579,-11.80474 8.23784,-28.64159 5.81912,-42.746 -2.32249,-13.5433 -12.5367,-27.90677 -23.47148,-33.00615 -2.65107,-1.23632 -4.82607,-2.3996 -4.83334,-2.58508 -0.007,-0.18548 1.5618,-1.05386 3.4868,-1.92974 4.19864,-1.91038 11.83864,-9.45057 15.00778,-14.81171 5.70551,-9.65186 7.40047,-21.39357 5.18536,-35.92131 -3.92339,-25.73149 -19.07535,-41.15637 -47.37576,-48.22915 -15.71792,-3.92818 -25.99637,-4.42427 -91.817394,-4.43156 -29.60833,-0.003 -53.83333,-0.23786 -53.83333,-0.5213 0,-0.96693 8.03077,-14.95941 12.28015,-21.39642 15.69162,-23.769835 38.50362,-45.193005 63.22617,-59.376825 22.596104,-12.96385 46.825764,-20.9284 73.142864,-24.04287 8.7159,-1.03147 35.09549,-0.82889 44.5545,0.34216 48.58347,6.01475 93.47756,31.22117 124.12645,69.69256 21.01218,26.375105 34.46284,57.583165 39.34765,91.293915 1.80027,12.42393 1.96613,37.98886 0.32657,50.33615 -5.4538,41.07177 -23.13646,77.78455 -51.65563,107.24753 -33.03601,34.1293 -77.26756,54.54854 -123.68204,57.09711 -12.38304,0.67993 -12.45923,0.67976 -26.00001,-0.0598 z m 70.00001,-248.0745 c 11.57882,-2.43204 22.14558,-12.26487 26.37555,-24.54363 1.86878,-5.42471 2.11118,-15.83827 0.48974,-21.03995 -5.05812,-16.226815 -19.23058,-26.984365 -35.50536,-26.950195 -10.32014,0.0217 -18.58659,3.50435 -26.038,10.96988 -5.45327,5.4636 -7.84325,9.60199 -9.66984,16.743885 -3.93841,15.39907 2.10294,31.01514 15.41926,39.85668 8.32503,5.52751 18.18696,7.21953 28.92865,4.96333 z M 74.305086,276.24293 V 260.9096 h 24.68809 c 26.724514,0 27.073204,0.0418 30.888304,3.6985 7.08513,6.79104 5.25434,21.87033 -3.11672,25.67085 -2.58291,1.17265 -4.66095,1.26913 -27.626334,1.28267 l -24.83334,0.0147 z m 0,-82.33333 v -14.33333 h 22.35475 c 23.536454,0 25.201274,0.1863 28.525134,3.19209 6.4103,5.79689 5.0328,19.62877 -2.40655,24.16477 -2.01579,1.22909 -3.48457,1.30497 -25.306664,1.30731 l -23.16667,0.002 z"
       id="path1" />
  </g>
</svg>
